<?xml version="1.0" encoding="UTF-8"?>
<svg viewBox="0 0 128 128" width="100%" height="100%" xmlns="http://www.w3.org/2000/svg"><g id="body"><polygon points="50,60 64,60 58,85 52,85" fill="#22252a"></polygon><polygon points="45,45 68,45 62,65 48,65" fill="#5B7B43"></polygon><polygon points="35,40 80,40 70,55 58,65 45,55" fill="#D4CEB8"></polygon><polygon points="35,40 80,40 72,45 42,45" fill="#FFF" opacity="0.3"></polygon><polygon points="58,45 62,48 62,52 58,55 54,52 54,48" fill="#F98822"></polygon><polygon points="58,47 60,49 60,51 58,53 56,51 56,49" fill="#22252a"></polygon></g></svg>