<?xml version="1.0" encoding="UTF-8"?>
<svg viewBox="0 0 128 128" width="100%" height="100%" xmlns="http://www.w3.org/2000/svg"><svg viewBox="0 0 128 128" width="100%" height="100%" xmlns="http://www.w3.org/2000/svg"><g id="arm_left"><polygon points="62,60 68,60 65,75 58,70" fill="#22252a"></polygon><polygon points="65,75 58,70 60,85 68,88" fill="#22252a"></polygon><rect x="68" y="10" width="3" height="110" fill="#22252a"></rect><polygon points="67,15 69.5,0 72,15" fill="#D4CEB8"></polygon></g><g id="leg_left"><polygon points="55,80 62,80 65,100 58,100" fill="#22252a"></polygon><polygon points="56,100 64,100 60,125 54,125" fill="#22252a"></polygon></g><g id="body"><polygon points="50,60 64,60 58,85 52,85" fill="#22252a"></polygon><polygon points="45,45 68,45 62,65 48,65" fill="#5B7B43"></polygon><polygon points="35,40 80,40 70,55 58,65 45,55" fill="#D4CEB8"></polygon><polygon points="35,40 80,40 72,45 42,45" fill="#FFF" opacity="0.3"></polygon><polygon points="58,45 62,48 62,52 58,55 54,52 54,48" fill="#F98822"></polygon><polygon points="58,47 60,49 60,51 58,53 56,51 56,49" fill="#22252a"></polygon></g><g id="head"><polygon points="54,35 60,35 58,45 52,45" fill="#22252a"></polygon><polygon points="58,15 70,25 60,38 48,28" fill="#5B7B43"></polygon><polygon points="58,15 70,25 64,28 54,20" fill="#D4CEB8"></polygon><polygon points="54,26 62,24 64,32 56,34" fill="#22252a"></polygon><polygon points="56,28 60,27 61,30 57,31" fill="#00E575"></polygon></g><g id="leg_right"><polygon points="48,80 58,80 62,105 52,105" fill="#22252a"></polygon><polygon points="49,82 56,82 60,103 52,103" fill="#5B7B43"></polygon><polygon points="52,105 62,105 58,128 48,128" fill="#22252a"></polygon><polygon points="53,107 60,107 57,125 50,125" fill="#5B7B43"></polygon><polygon points="50,100 62,100 64,108 48,108" fill="#D4CEB8"></polygon></g><g id="arm_right"><polygon points="45,48 55,48 50,65 40,65" fill="#22252a"></polygon><polygon points="40,65 50,65 55,85 45,85" fill="#22252a"></polygon><polygon points="48,55 60,50 65,65 55,100 40,95 38,70" fill="#22252a"></polygon><polygon points="49,57 58,53 63,66 54,98 42,93 40,71" fill="#5B7B43"></polygon><polygon points="49,57 58,53 60,65 44,70" fill="#D4CEB8" opacity="0.4"></polygon><polygon points="42,93 54,98 52,90 44,88" fill="#F98822"></polygon></g></svg></svg>