<svg width="187" height="197" viewBox="0 0 187 197" fill="none" xmlns="http://www.w3.org/2000/svg">
<path d="M165.676 122.26L143.7 166.494L25.8022 161.099L27.3079 57.6084L147.925 47.0582L165.676 122.26Z" fill="#B3622E"/>
<path d="M147.935 83.2763L139.727 140.107L112.308 156.108L68.8079 140.107L61.3079 108.108L68.8079 66.1084L95.3089 48.0644L136.129 59.2363L147.935 83.2763Z" fill="#EEC89F"/>
<path d="M25.808 161.608L24.8079 56.1084L73.1342 26.2379L116.163 21.9262L147.774 47.4436L165.939 122.457L147.774 157.643L147.774 86.769L102.889 55.2343L73.1342 73.6084L53.5862 146.585L25.808 161.608Z" fill="#DA8536"/>
<rect x="94.3079" y="91.1084" width="20" height="10" fill="#242434"/>
<rect x="128.308" y="91.1084" width="14" height="10" fill="#242434"/>
</svg>
