<svg width="80" height="320" viewBox="0 0 80 320" fill="none" xmlns="http://www.w3.org/2000/svg">
<path d="M80 0L0 59.5L34.5 316L80 0Z" fill="#212531"/>
<path d="M29 137L32 35.5L80 0L59 146L29 137Z" fill="#3B3D54"/>
<path d="M29 160.5L57.5 156L34.5 320L29 160.5Z" fill="#3B3D54"/>
<path d="M22 73H9L11 101.5H23L22 73Z" fill="#F6F4CB"/>
<path d="M14.5 132.5L11.5 104H23L24 132.5H14.5Z" fill="#F6F4CB"/>
<path d="M24 135H14.5L17.5 162.5H25.5L24 135Z" fill="#F6F4CB"/>
<path d="M25.5 165H17.5L19.5 190.5H26.5L25.5 165Z" fill="#F6F4CB"/>
</svg>
