<?xml version="1.0" encoding="UTF-8"?>
<svg viewBox="0 0 128 128" width="100%" height="100%" xmlns="http://www.w3.org/2000/svg"><svg viewBox="0 0 128 128" width="100%" height="100%" xmlns="http://www.w3.org/2000/svg"><g id="arm_left"><polygon points="65,35 85,35 80,75 60,75" fill="#3B3E43"></polygon><polygon points="62,32 82,32 77,72 57,72" fill="#22252a"></polygon><polygon points="75,15 80,15 75,95 70,95" fill="#22252a"></polygon><polygon points="77,15 80,15 78,40 75,40" fill="#F98822"></polygon></g><g id="leg_left"><polygon points="55,95 80,95 75,115 50,115" fill="#3B3E43"></polygon><polygon points="53,92 78,92 73,112 48,112" fill="#22252a"></polygon></g><g id="body"><polygon points="40,30 80,30 85,80 45,80" fill="#3B3E43"></polygon><polygon points="35,25 75,25 80,75 40,75" fill="#D4CEB8"></polygon><polygon points="40,35 50,35 54,65 44,65" fill="#F98822"></polygon><polygon points="42,38 48,38 52,60 46,60" fill="#D4CEB8"></polygon><polygon points="55,30 75,30 80,70 60,70" fill="#22252a"></polygon><polygon points="60,35 70,35 74,60 64,60" fill="#00E575"></polygon><polygon points="62,38 68,38 72,55 66,55" fill="#FFF" opacity="0.3"></polygon></g><g id="head"><polygon points="45,5 75,5 80,20 50,20" fill="#3B3E43"></polygon><polygon points="40,0 70,0 75,15 45,15" fill="#D4CEB8"></polygon><polygon points="43,5 65,5 68,12 46,12" fill="#22252a"></polygon><polygon points="45,6 55,6 57,10 47,10" fill="#00E575"></polygon></g><g id="leg_right"><polygon points="40,90 65,90 60,120 35,120" fill="#3B3E43"></polygon><polygon points="35,85 60,85 55,115 30,115" fill="#D4CEB8"></polygon><polygon points="38,95 55,95 51,105 34,105" fill="#22252a"></polygon></g><g id="arm_right"><polygon points="25,40 50,40 55,90 30,90" fill="#3B3E43"></polygon><polygon points="20,35 45,35 50,85 25,85" fill="#D4CEB8"></polygon><polygon points="25,40 40,40 44,75 29,75" fill="#22252a"></polygon><polygon points="28,43 35,43 38,70 31,70" fill="#00E575"></polygon><polygon points="35,40 45,40 48,55 38,55" fill="#F98822"></polygon></g></svg></svg>