<?xml version="1.0" encoding="UTF-8"?>
<svg viewBox="0 0 1024 512" width="100%" height="100%" xmlns="http://www.w3.org/2000/svg"><svg viewBox="0 0 1920 1080" width="100%" height="100%" preserveAspectRatio="xMidYMid slice" xmlns="http://www.w3.org/2000/svg"><g id="bg_layer_2_buildings"><path d="M 0 1080 L 0 650 L 40 650 L 40 720 L 60 760 L 90 720 L 90 600 L 140 600 L 140 750 L 180 800 L 220 750 L 250 750 L 250 1080 Z" fill="#d0c8b6"></path><polygon points="100,560 130,550 120,580" fill="#d0c8b6"></polygon><path d="M 150 1080 L 150 850 L 280 600 L 290 640 L 270 660 L 320 620 L 220 1080 Z" fill="#bbb19a" opacity="0.9"></path><polygon points="290,560 320,580 300,590" fill="#bbb19a"></polygon><path d="M 280 1080 L 280 400 L 310 400 L 310 480 L 350 480 L 350 350 L 390 350 L 390 450 L 430 450 L 430 1080 Z" fill="#c5bca8"></path><polygon points="360,310 390,320 370,330" fill="#c5bca8"></polygon><polygon points="300,700 380,700 360,850 290,820" fill="#f4f1ea"></polygon><polygon points="340,850 360,850 320,950 310,950" fill="#f4f1ea"></polygon><path d="M 500 1080 L 500 550 L 540 550 L 540 640 L 600 640 L 600 520 L 670 520 L 670 600 L 700 600 L 700 1080 Z" fill="#bbb19a"></path><path d="M 650 1080 L 650 450 L 680 450 L 680 350 L 720 350 L 720 420 L 760 420 L 760 380 L 800 380 L 800 1080 Z" fill="#d0c8b6"></path><polygon points="730,310 760,330 740,340" fill="#d0c8b6"></polygon><polygon points="680,800 780,850 750,920 660,850" fill="#f4f1ea"></polygon><polygon points="700,920 730,950 680,980" fill="#f4f1ea"></polygon> <path d="M 900 1080 L 900 750 L 920 750 L 920 800 L 960 800 L 960 620 L 1020 620 L 1020 700 L 1070 700 L 1070 650 L 1150 650 L 1150 1080 Z" fill="#c5bca8"></path><polygon points="980,570 1020,590 990,600" fill="#c5bca8"></polygon><polygon points="950,850 1020,830 1050,920 980,950" fill="#f4f1ea"></polygon><polygon points="980,950 1000,950 1020,1020 1000,1020" fill="#f4f1ea"></polygon> <polygon points="1080,600 1250,900 1220,920 1050,620" fill="#bbb19a"></polygon><polygon points="1150,750 1190,750 1170,780" fill="#f4f1ea"></polygon> <path d="M 1200 1080 L 1200 480 L 1230 480 L 1230 550 L 1270 550 L 1270 420 L 1320 420 L 1320 500 L 1400 500 L 1400 1080 Z" fill="#d0c8b6"></path><path d="M 1450 1080 L 1450 350 L 1480 350 L 1480 420 L 1520 420 L 1520 280 L 1580 280 L 1580 400 L 1600 400 L 1600 1080 Z" fill="#bbb19a"></path><path d="M 1650 1080 L 1650 650 L 1680 650 L 1680 720 L 1740 720 L 1740 580 L 1800 580 L 1800 480 L 1870 480 L 1870 600 L 1920 600 L 1920 1080 Z" fill="#c5bca8"></path></g><g id="bg_layer_2_windows"><rect x="50" y="650" width="20" height="40" fill="#e2dec3"></rect><rect x="90" y="650" width="20" height="40" fill="#e2dec3"></rect><rect x="50" y="750" width="20" height="40" fill="#e2dec3"></rect><rect x="310" y="550" width="30" height="20" fill="#e2dec3"></rect><rect x="360" y="550" width="30" height="20" fill="#e2dec3"></rect><rect x="310" y="650" width="30" height="20" fill="#e2dec3"></rect><rect x="360" y="650" width="30" height="20" fill="#e2dec3"></rect><rect x="540" y="600" width="120" height="15" fill="#d3ccb0"></rect><rect x="540" y="650" width="120" height="15" fill="#d3ccb0"></rect><rect x="540" y="700" width="120" height="15" fill="#d3ccb0"></rect><rect x="680" y="400" width="20" height="80" fill="#e2dec3"></rect><rect x="710" y="400" width="20" height="80" fill="#e2dec3"></rect><rect x="1230" y="520" width="40" height="20" fill="#e2dec3"></rect><rect x="1330" y="520" width="40" height="20" fill="#d3ccb0"></rect><rect x="1330" y="560" width="40" height="20" fill="#d3ccb0"></rect><rect x="1480" y="350" width="30" height="80" fill="#d3ccb0"></rect><rect x="1540" y="350" width="30" height="80" fill="#d3ccb0"></rect><rect x="1700" y="650" width="60" height="20" fill="#e2dec3"></rect><rect x="1700" y="700" width="60" height="20" fill="#e2dec3"></rect></g><g id="bg_layer_2_nature"><path d="M 180 1080 Q 150 950 210 880 T 240 680 Q 250 630 230 620" fill="none" stroke="#8ba87d" stroke-width="4" stroke-linecap="round"></path><path d="M 170 950 Q 120 880 160 820 T 130 780" fill="none" stroke="#738f65" stroke-width="3" stroke-linecap="round"></path><polygon points="190,750 210,740 200,760" fill="#8ba87d"></polygon><polygon points="230,680 250,670 240,700" fill="#8ba87d"></polygon><polygon points="210,880 230,870 220,890" fill="#738f65"></polygon><polygon points="160,820 180,810 170,830" fill="#8ba87d"></polygon><polygon points="150,860 170,840 180,870 160,890" fill="#8ba87d" opacity="0.9"></polygon><polygon points="230,820 250,790 260,830" fill="#738f65" opacity="0.8"></polygon><path d="M 450 1080 Q 400 950 480 880 T 490 750 Q 500 700 460 680" fill="none" stroke="#8ba87d" stroke-width="4" stroke-linecap="round"></path><path d="M 430 950 Q 360 920 410 850 T 390 750" fill="none" stroke="#738f65" stroke-width="3" stroke-linecap="round"></path><polygon points="450,880 470,870 460,890" fill="#8ba87d"></polygon><polygon points="480,780 500,760 490,790" fill="#8ba87d"></polygon><polygon points="440,820 420,810 450,800" fill="#8ba87d"></polygon><polygon points="410,850 390,840 420,830" fill="#738f65"></polygon><polygon points="380,800 400,770 420,810" fill="#8ba87d" opacity="0.85"></polygon><polygon points="470,720 500,690 510,740 480,750" fill="#738f65" opacity="0.9"></polygon><path d="M 720 380 Q 770 450 730 520 T 750 680" fill="none" stroke="#8ba87d" stroke-width="3" stroke-linecap="round"></path><path d="M 750 450 Q 800 500 760 560 T 780 700" fill="none" stroke="#738f65" stroke-width="2" stroke-linecap="round"></path><polygon points="730,520 710,500 740,480" fill="#8ba87d"></polygon><polygon points="780,600 800,580 790,620" fill="#8ba87d"></polygon><polygon points="760,560 740,550 770,540" fill="#738f65"></polygon><path d="M 980 800 Q 920 860 1020 900 T 1050 1000" fill="none" stroke="#8ba87d" stroke-width="3" stroke-linecap="round"></path><path d="M 950 850 Q 890 890 970 930 T 940 980" fill="none" stroke="#738f65" stroke-width="2" stroke-linecap="round"></path><polygon points="1020,900 1040,890 1030,920" fill="#8ba87d"></polygon><polygon points="970,930 990,920 980,940" fill="#738f65"></polygon><polygon points="950,850 970,840 960,860" fill="#8ba87d"></polygon><path d="M 1480 330 Q 1420 400 1490 480 T 1510 630" fill="none" stroke="#738f65" stroke-width="3" stroke-linecap="round"></path><path d="M 1450 400 Q 1390 460 1460 520 T 1430 600" fill="none" stroke="#8ba87d" stroke-width="2" stroke-linecap="round"></path><polygon points="1490,480 1510,470 1500,490" fill="#738f65"></polygon><polygon points="1460,520 1480,510 1470,530" fill="#8ba87d"></polygon><path d="M 1280 480 Q 1210 560 1300 620 T 1320 780" fill="none" stroke="#8ba87d" stroke-width="4" stroke-linecap="round"></path><path d="M 1250 550 Q 1180 610 1260 680 T 1220 750" fill="none" stroke="#738f65" stroke-width="3" stroke-linecap="round"></path><polygon points="1300,620 1320,610 1310,630" fill="#8ba87d"></polygon><polygon points="1260,680 1280,670 1270,690" fill="#738f65"></polygon><polygon points="1260,700 1240,690 1270,680" fill="#8ba87d"></polygon><path d="M 1780 540 Q 1710 630 1810 700 T 1830 860" fill="none" stroke="#8ba87d" stroke-width="3" stroke-linecap="round"></path><polygon points="1810,700 1830,690 1820,710" fill="#8ba87d"></polygon><polygon points="1750,620 1770,610 1760,630" fill="#8ba87d"></polygon></g></svg></svg>