<?xml version="1.0" encoding="UTF-8"?>
<svg viewBox="0 0 1024 512" width="100%" height="100%" xmlns="http://www.w3.org/2000/svg"><svg viewBox="0 0 1920 1080" width="100%" height="100%" preserveAspectRatio="xMidYMid slice" xmlns="http://www.w3.org/2000/svg"><g id="bg_layer_3_buildings"><path d="M -50 1080 L -50 500 L 20 500 L 20 550 L 60 550 L 60 450 L 100 450 L 120 530 L 70 600 L 150 630 L 150 1080 Z" fill="#ebe6db"></path><polygon points="40,420 80,410 60,430" fill="#ebe6db"></polygon><rect x="20" y="600" width="30" height="200" fill="#e0d8c8"></rect><rect x="70" y="650" width="30" height="200" fill="#e0d8c8"></rect><polygon points="0,520 50,560 30,580" fill="#e0d8c8"></polygon><polygon points="-20,680 80,720 40,780" fill="#f4f1ea"></polygon> <path d="M 20 620 L 70 620 M 20 650 L 70 650 M 20 680 L 70 680" stroke="#bba896" stroke-width="4"></path><path d="M -10 680 L 50 680 L 50 780" stroke="#bba896" stroke-width="6" fill="none"></path><path d="M 300 1080 L 300 850 L 330 850 L 330 780 L 380 780 L 450 880 L 520 850 L 520 1080 Z" fill="#e0d8c8"></path><polygon points="360,1080 360,950 420,880 480,950 480,1080" fill="#f4f1ea"></polygon><rect x="360" y="750" width="10" height="60" fill="#bba896"></rect><rect x="390" y="770" width="10" height="80" fill="#bba896" transform="rotate(30, 390, 770)"></rect><path d="M 380 880 L 420 820 L 460 880" stroke="#bba896" stroke-width="8" fill="none"></path><polygon points="410,800 430,820 420,840" fill="#bba896"></polygon><path d="M 700 1080 L 700 680 L 730 680 L 730 740 L 780 740 L 780 650 L 880 650 L 880 1080 Z" fill="#ebe6db"></path><rect x="700" y="760" width="100" height="50" fill="#e0d8c8"></rect><rect x="720" y="850" width="150" height="50" fill="#e0d8c8"></rect><polygon points="760,650 830,550 860,580 820,650" fill="#bba896"></polygon><rect x="740" y="850" width="10" height="50" fill="#bba896"></rect><rect x="780" y="850" width="10" height="50" fill="#bba896"></rect><rect x="820" y="850" width="10" height="50" fill="#bba896"></rect><path d="M 1000 1080 L 1000 750 L 1040 750 L 1040 680 L 1080 680 L 1110 750 L 1180 750 L 1180 1080 Z" fill="#ebe6db"></path><polygon points="1040,680 1070,600 1100,620 1080,680" fill="#e0d8c8"></polygon><polygon points="1060,540 1090,550 1070,580" fill="#ebe6db"></polygon><polygon points="1020,850 1140,820 1100,900" fill="#f4f1ea"></polygon> <polygon points="1050,900 1070,1050 1100,1050" fill="#f4f1ea"></polygon> <path d="M 1400 1080 L 1400 650 L 1430 650 L 1430 580 L 1480 580 L 1580 660 L 1580 1080 Z" fill="#e0d8c8"></path><rect x="1450" y="700" width="50" height="50" fill="#d2c8b4"></rect><rect x="1480" y="780" width="50" height="50" fill="#d2c8b4"></rect><polygon points="1520,580 1560,500 1590,520 1550,600" fill="#d2c8b4"></polygon><polygon points="1580,450 1620,440 1590,480" fill="#d2c8b4"></polygon><polygon points="1440,850 1520,830 1480,920 1410,880" fill="#f4f1ea"></polygon> <path d="M 1650 1080 L 1650 400 L 1700 350 L 1750 350 L 1800 420 L 1850 420 L 1950 280 L 1950 1080 Z" fill="#ebe6db"></path><polygon points="1870,240 1920,250 1890,260" fill="#ebe6db"></polygon><polygon points="1720,550 1760,450 1860,450 1900,550 1860,650 1760,650" fill="#e0d8c8"></polygon><polygon points="1750,550 1780,480 1810,480 1840,520 1870,550 1840,620 1780,620" fill="#d2c8b4"></polygon><polygon points="1650,700 1750,720 1650,800" fill="#f4f1ea"></polygon><polygon points="1850,750 1950,700 1950,850" fill="#f4f1ea"></polygon></g><g id="bg_layer_3_tech"><polygon points="0,550 10,550 10,575 0,575" fill="#f98b3f"></polygon><polygon points="800,700 830,700 830,710 800,710" fill="#f98b3f"></polygon><polygon points="1050,780 1065,780 1065,810 1050,810" fill="#f98b3f"></polygon><polygon points="1500,650 1520,650 1520,658 1500,658" fill="#f98b3f"></polygon><polygon points="1790,550 1810,520 1830,550 1810,580" fill="#f98b3f"></polygon><path d="M 120 700 L 120 1080" stroke="#bba896" stroke-width="15" fill="none"></path><path d="M -50 850 L 80 850 L 80 1080" stroke="#bba896" stroke-width="10" fill="none" stroke-linejoin="miter"></path><path d="M 720 900 L 720 1080" stroke="#bba896" stroke-width="12" fill="none"></path><path d="M 830 750 L 830 800 L 850 820 L 850 1080" stroke="#bba896" stroke-width="12" fill="none" stroke-linejoin="miter"></path><path d="M 1020 750 L 1020 850 L 980 890 L 980 1080" stroke="#bba896" stroke-width="10" fill="none" stroke-linejoin="miter"></path><path d="M 1130 720 L 1130 1080" stroke="#bba896" stroke-width="15" fill="none"></path><path d="M 1420 640 L 1420 750 L 1380 790 L 1380 1080" stroke="#bba896" stroke-width="8" fill="none" stroke-linejoin="miter"></path><polygon points="450,600 480,580 540,620 510,640" fill="#e8cdb7"></polygon><polygon points="1350,450 1380,410 1440,430 1410,470" fill="#e8cdb7"></polygon></g><g id="bg_layer_3_nature"><path d="M 20 1080 Q 80 950 30 850 T 60 650 T 80 480" fill="none" stroke="#4d6b4f" stroke-width="6" stroke-linecap="round"></path><path d="M 50 950 Q 120 900 60 820 T 140 700 T 160 520" fill="none" stroke="#6c8b6e" stroke-width="4" stroke-linecap="round"></path><polygon points="30,850 50,830 40,860" fill="#4d6b4f"></polygon><polygon points="80,750 100,740 90,770" fill="#4d6b4f"></polygon><polygon points="140,700 160,680 150,710" fill="#6c8b6e"></polygon><polygon points="160,520 180,500 170,530" fill="#6c8b6e"></polygon><polygon points="60,650 80,640 70,670" fill="#4d6b4f"></polygon><polygon points="110,780 130,770 120,800" fill="#6c8b6e"></polygon><polygon points="40,900 70,870 90,910 50,930" fill="#4d6b4f" opacity="0.9"></polygon><polygon points="120,720 150,680 170,720 140,750" fill="#6c8b6e" opacity="0.9"></polygon><polygon points="130,550 160,520 140,580" fill="#6c8b6e" opacity="0.85"></polygon><path d="M 350 880 Q 280 950 380 1000 T 340 1080" fill="none" stroke="#4d6b4f" stroke-width="5" stroke-linecap="round"></path><path d="M 380 1000 Q 450 1040 390 1080" fill="none" stroke="#6c8b6e" stroke-width="4" stroke-linecap="round"></path><polygon points="380,1000 400,990 390,1020" fill="#4d6b4f"></polygon><polygon points="340,1080 360,1060 330,1070" fill="#4d6b4f"></polygon><polygon points="420,1050 440,1040 430,1060" fill="#6c8b6e"></polygon><path d="M 480 850 Q 560 920 460 980 T 490 1080" fill="none" stroke="#4d6b4f" stroke-width="6" stroke-linecap="round"></path><path d="M 460 980 Q 380 1030 450 1080" fill="none" stroke="#6c8b6e" stroke-width="5" stroke-linecap="round"></path><polygon points="460,980 480,970 470,1000" fill="#4d6b4f"></polygon><polygon points="520,1050 540,1040 530,1060" fill="#4d6b4f"></polygon><polygon points="410,1020 430,1010 420,1030" fill="#6c8b6e"></polygon><path d="M 720 680 Q 600 750 740 820 T 750 950" fill="none" stroke="#6c8b6e" stroke-width="6" stroke-linecap="round"></path><path d="M 650 750 Q 550 790 660 850 T 620 920" fill="none" stroke="#4d6b4f" stroke-width="5" stroke-linecap="round"></path><polygon points="740,820 760,810 750,830" fill="#6c8b6e"></polygon><polygon points="680,890 700,880 690,900" fill="#6c8b6e"></polygon><polygon points="660,850 680,840 670,860" fill="#4d6b4f"></polygon><polygon points="620,920 600,940 630,950" fill="#4d6b4f"></polygon><path d="M 1050 1080 Q 1120 950 1030 850 T 1080 650" fill="none" stroke="#4d6b4f" stroke-width="6" stroke-linecap="round"></path><path d="M 1080 950 Q 1180 880 1090 820 T 1120 680" fill="none" stroke="#6c8b6e" stroke-width="5" stroke-linecap="round"></path><polygon points="1030,850 1010,840 1020,860" fill="#4d6b4f"></polygon><polygon points="1120,780 1140,770 1130,800" fill="#4d6b4f"></polygon><polygon points="1090,820 1110,810 1100,830" fill="#6c8b6e"></polygon><polygon points="1160,750 1180,740 1170,770" fill="#6c8b6e"></polygon><path d="M 1520 1080 Q 1440 980 1550 880 T 1560 680 T 1510 580" fill="none" stroke="#6c8b6e" stroke-width="5" stroke-linecap="round"></path><path d="M 1550 880 Q 1660 820 1540 750 T 1600 650" fill="none" stroke="#4d6b4f" stroke-width="4" stroke-linecap="round"></path><polygon points="1550,880 1570,870 1560,890" fill="#6c8b6e"></polygon><polygon points="1490,780 1510,770 1500,800" fill="#6c8b6e"></polygon><polygon points="1560,680 1580,670 1570,690" fill="#6c8b6e"></polygon><polygon points="1540,750 1560,740 1550,770" fill="#4d6b4f"></polygon><path d="M 1750 420 Q 1630 480 1760 550 T 1780 680" fill="none" stroke="#4d6b4f" stroke-width="6" stroke-linecap="round"></path><path d="M 1680 480 Q 1580 520 1700 600 T 1650 680" fill="none" stroke="#6c8b6e" stroke-width="4" stroke-linecap="round"></path><path d="M 1760 550 Q 1860 500 1880 580 T 1840 650" fill="none" stroke="#4d6b4f" stroke-width="4" stroke-linecap="round"></path><polygon points="1760,550 1780,540 1770,560" fill="#4d6b4f"></polygon><polygon points="1700,620 1720,610 1710,630" fill="#4d6b4f"></polygon><polygon points="1700,600 1720,590 1710,610" fill="#6c8b6e"></polygon><polygon points="1620,520 1600,510 1610,530" fill="#6c8b6e"></polygon><polygon points="1880,580 1900,570 1890,590" fill="#4d6b4f"></polygon></g></svg></svg>