<?xml version="1.0" encoding="UTF-8"?>
<!DOCTYPE svg PUBLIC "-//W3C//DTD SVG 1.1//EN" "http://www.w3.org/Graphics/SVG/1.1/DTD/svg11.dtd">
<!-- Creator: CorelDRAW 2026 (Versión OEM) -->
<svg xmlns="http://www.w3.org/2000/svg" xml:space="preserve" width="128px" height="128px" version="1.1" style="shape-rendering:geometricPrecision; text-rendering:geometricPrecision; image-rendering:optimizeQuality; fill-rule:evenodd; clip-rule:evenodd"
viewBox="0 0 128 128"
 xmlns:xlink="http://www.w3.org/1999/xlink"
 xmlns:xodm="http://www.corel.com/coreldraw/odm/2003">
 <defs>
  <style type="text/css">
   <![CDATA[
    .fil2 {fill:none}
    .fil0 {fill:#84716B}
    .fil1 {fill:#F58634}
   ]]>
  </style>
   <clipPath id="id0">
    <path d="M0 0l128 0 0 128 -128 0 0 -128z"/>
   </clipPath>
 </defs>
 <g id="Capa_x0020_1">
  <metadata id="CorelCorpID_0Corel-Layer"/>
  <g>
  </g>
  <g style="clip-path:url(#id0)">
   <g id="_2138737778816">
    <rect class="fil0" x="9.5" y="76.78" width="109" height="18"/>
    <rect class="fil1" transform="matrix(0.643457 0.765482 -0.765482 0.643457 88.0943 35.4188)" width="12.47" height="51"/>
    <rect class="fil1" transform="matrix(-0.643457 0.765482 0.765482 0.643457 53.0763 34.4184)" width="12.47" height="51"/>
    <rect class="fil1" transform="matrix(-0.643457 0.765482 0.765482 0.643457 66.0769 38.4188)" width="12.47" height="51"/>
    <rect class="fil1" transform="matrix(0.643457 0.765482 -0.765482 0.643457 57.6309 34.0062)" width="12.47" height="51"/>
    <rect class="fil1" transform="matrix(0.643457 0.765482 -0.765482 0.643457 71.2469 33.2196)" width="12.47" height="51"/>
   </g>
  </g>
  <polygon class="fil2" points="0,0 128,0 128,128 0,128 "/>
 </g>
</svg>
