<?xml version="1.0" encoding="UTF-8"?>
<!-- Generator: visioncortex VTracer 0.6.12 -->
<svg version="1.1" xmlns="http://www.w3.org/2000/svg" width="408" height="612">
<path d="M0,0 L39,0 L44,11 L48,22 L47,27 L41,39 L35,53 L29,65 L23,79 L21,84 L17,84 L9,68 L1,52 L-7,36 L-10,31 L-9,22 L-3,1 Z " fill="#E5E5E5" transform="translate(23,120)"/>
<path d="M0,0 L25,0 L41,13 L41,33 L39,67 L36,67 L31,62 L29,61 L26,53 L24,59 L9,65 L4,65 L-3,59 L-3,57 L-6,57 L-9,41 L-12,47 L-14,47 L-15,41 L-14,33 L-12,33 L-12,20 L-11,20 L-9,14 L-6,6 L-3,3 L-1,3 Z " fill="#D6782B" transform="translate(181,20)"/>
<path d="M0,0 L6,1 L20,10 L22,17 L25,30 L23,43 L21,49 L6,57 L0,58 L-11,51 L-16,48 L-17,42 L-16,30 L-13,27 L-12,23 L-14,22 L-16,26 L-16,24 L-18,24 L-17,16 L-15,12 L-6,5 Z " fill="#E5B78D" transform="translate(266,26)"/>
<path d="M0,0 L4,1 L23,13 L26,16 L27,21 L28,51 L27,76 L16,79 L11,79 L10,82 L9,81 L9,70 L7,70 L4,50 L1,24 L-1,2 Z " fill="#2C2D46" transform="translate(176,227)"/>
<path d="M0,0 L5,1 L1,37 L-3,71 L-4,79 L-8,80 L-22,76 L-22,17 L-17,12 L-7,5 L-1,1 Z " fill="#292940" transform="translate(280,227)"/>
<path d="M0,0 L6,0 L16,7 L23,11 L24,37 L21,40 L18,40 L18,42 L9,43 L8,45 L6,45 L4,43 L1,42 L2,45 L1,47 L-8,44 L-17,38 L-18,37 L-18,15 L-16,10 L-1,1 Z " fill="#E5B431" transform="translate(115,31)"/>
<path d="M0,0 L2,1 L0,22 L-2,32 L-4,49 L-9,81 L-12,102 L-16,104 L-17,102 L-21,68 L-26,32 L-27,24 L-19,16 L-14,12 L-12,12 L-10,8 Z " fill="#232338" transform="translate(392,231)"/>
<path d="M0,0 L2,0 L11,27 L4,43 L-1,53 L-6,66 L-10,71 L-15,72 L-17,63 L-18,46 L-20,39 L-20,20 L-17,6 L-16,1 Z " fill="#E5E4E4" transform="translate(136,121)"/>
<path d="M0,0 L6,1 L12,6 L17,11 L23,16 L23,24 L17,68 L13,95 L9,96 L7,83 L0,39 L-2,25 L-3,2 L0,2 Z " fill="#26263C" transform="translate(321,238)"/>
<path d="M0,0 L8,4 L18,11 L18,20 L15,43 L13,63 L10,87 L7,88 L-13,81 L-16,79 L-18,67 L-19,54 L-17,54 L-16,65 L-15,63 L-4,60 L1,60 L1,31 Z M-14,74 L-14,79 L-11,79 L-11,81 L-2,82 L-1,77 L-8,74 Z " fill="#1C1B29" transform="translate(202,243)"/>
<path d="M0,0 L2,0 L5,19 L10,51 L13,72 L15,87 L15,94 L11,90 L-6,56 L-14,41 L-16,36 L-17,16 L-12,11 L-2,1 Z " fill="#E1E1E1" transform="translate(332,116)"/>
<path d="M0,0 L4,2 L9,6 L14,12 L18,15 L17,36 L9,52 L1,68 L-7,84 L-12,94 L-15,93 L-10,61 L-5,30 L-1,4 Z " fill="#DEDEDE" transform="translate(376,116)"/>
<path d="M0,0 L13,0 L15,1 L15,11 L12,29 L14,48 L14,88 L8,86 L5,81 L2,68 L-4,42 L-7,26 L-6,19 L-4,18 L-3,11 L-2,10 Z " fill="#AF5A22" transform="translate(186,116)"/>
<path d="M0,0 L2,1 L1,60 L13,62 L18,64 L18,75 L16,79 L15,73 L10,73 L10,75 L1,76 L1,83 L5,84 L-3,88 L-7,87 L-10,68 L-12,47 L-15,21 L-15,11 L-10,7 L-1,1 Z " fill="#1A1927" transform="translate(257,243)"/>
<path d="M0,0 L5,0 L7,4 L11,6 L19,13 L24,18 L27,20 L27,22 L31,24 L33,26 L32,30 L21,44 L8,60 L1,70 L-2,69 L0,68 L0,50 L2,1 Z " fill="#1B1A28" transform="translate(40,243)"/>
<path d="M0,0 L3,0 L3,30 L1,67 L-3,66 L-9,56 L-9,54 L-11,54 L-22,36 L-27,29 L-26,24 L-10,9 Z " fill="#2D2E4A" transform="translate(39,244)"/>
<path d="M0,0 L6,2 L23,16 L27,19 L27,24 L13,48 L5,62 L1,62 L0,54 L-1,26 L-1,2 Z " fill="#2B2C43" transform="translate(118,246)"/>
<path d="M0,0 L5,2 L6,4 L2,3 L2,29 L3,57 L4,64 L6,64 L5,69 L1,69 L-15,41 L-22,29 L-25,24 L-24,19 L-12,9 L-3,2 Z " fill="#181725" transform="translate(116,243)"/>
<path d="M0,0 L2,2 L44,3 L47,4 L46,6 L1,5 L1,121 L-2,122 L-2,5 L-75,5 L-75,124 L-76,188 L-77,188 L-77,3 L-71,2 L-6,2 L-3,1 L0,2 Z " fill="#C0C1C0" transform="translate(307,216)"/>
<path d="M0,0 L2,0 L2,109 L75,109 L75,66 L76,66 L76,116 L75,112 L2,112 L2,202 L9,202 L9,203 L-3,203 L-1,202 L-2,111 L0,111 Z " fill="#787878" transform="translate(154,339)"/>
<path d="M0,0 L1,0 L2,22 L3,22 L3,96 L6,97 L3,97 L3,197 L0,196 L0,97 L-32,97 L-32,96 L0,95 Z " fill="#7B7C7B" transform="translate(353,9)"/>
<path d="M0,0 L1,3 L1,112 L-46,112 L-46,111 L0,111 L0,4 L-45,5 L-47,22 L-48,22 L-48,4 L-121,4 L-121,1 Z " fill="#5C5D5D" transform="translate(353,337)"/>
<path d="M0,0 L2,0 L3,2 L3,107 L0,108 L0,102 L-45,102 L-45,192 L-46,192 L-46,99 L0,99 Z " fill="#747574" transform="translate(401,349)"/>
<path d="M0,0 L3,1 L5,14 L7,32 L9,46 L9,54 L6,54 L-3,46 L-3,44 L-7,42 L-9,40 L-7,27 L-1,2 Z " fill="#1F2033" transform="translate(117,364)"/>
<path d="M0,0 L1,0 L1,99 L47,99 L47,100 L1,100 L2,106 L1,110 L-1,110 L-1,100 L-74,100 L-74,106 L-76,106 L-76,55 L-74,54 L-74,98 L-1,98 L-1,9 Z " fill="#B6B9B8" transform="translate(306,350)"/>
<path d="M0,0 L7,0 L6,7 L5,9 L4,25 L4,59 L1,60 L1,56 L-1,56 L-6,39 L-6,19 L-5,6 L-3,1 Z " fill="#AE612D" transform="translate(111,125)"/>
<path d="M0,0 L2,0 L2,95 L74,94 L74,100 L73,98 L2,98 L2,104 L-1,103 L-1,23 Z " fill="#5D5E5E" transform="translate(5,353)"/>
<path d="M0,0 L3,0 L9,25 L11,32 L11,40 L1,50 L-4,49 L-4,41 L-2,23 L-1,1 Z " fill="#212237" transform="translate(40,364)"/>
<path d="M0,0 L1,0 L2,58 L3,58 L3,186 L1,187 L0,179 L0,60 L-3,60 L-3,58 L0,58 Z " fill="#5F5F5F" transform="translate(401,161)"/>
<path d="M0,0 L1,0 L1,87 L3,88 L1,88 L1,201 L-2,201 L-2,86 L-1,2 Z " fill="#595958" transform="translate(155,18)"/>
<path d="M0,0 L1,0 L1,97 L50,96 L74,97 L75,95 L74,99 L1,99 L1,117 L-1,120 L-2,103 L-1,99 L-4,98 L-1,98 L-1,1 Z " fill="#C0C1C0" transform="translate(231,7)"/>
<path d="M0,0 L398,0 L398,1 L0,1 Z " fill="#595958" transform="translate(5,4)"/>
<path d="M0,0 L8,0 L8,2 L2,2 L2,60 L0,57 L0,3 L-46,3 L-46,10 L-48,9 L-48,3 L-121,3 L-121,1 Z " fill="#747574" transform="translate(353,541)"/>
<path d="M0,0 L97,0 L97,13 L95,12 L94,3 L95,1 L49,1 L49,27 L48,27 L47,2 L2,2 L2,89 L0,91 Z " fill="#C6C6C6" transform="translate(306,5)"/>
<path d="M0,0 L17,0 L21,2 L21,13 L20,14 L-1,14 L-3,13 L-3,3 Z " fill="#242538" transform="translate(321,51)"/>
<path d="M0,0 L5,1 L5,20 L2,30 L-5,29 L-10,26 L-10,19 L-6,6 L0,5 Z " fill="#EDECEA" transform="translate(100,122)"/>
<path d="M0,0 L20,1 L21,2 L21,13 L20,14 L-1,14 L-2,13 L-2,2 Z " fill="#242437" transform="translate(369,51)"/>
<path d="M0,0 L1,0 L1,7 L11,7 L11,8 L3,8 L4,68 L3,86 L2,119 L1,119 L0,100 Z " fill="#6D6D6D" transform="translate(4,213)"/>
<path d="M0,0 L2,0 L2,147 L0,146 L0,85 L-3,85 L-2,82 L0,82 Z " fill="#A6A6A4" transform="translate(401,459)"/>
<path d="M0,0 L1,0 L1,112 L-2,111 L0,111 L0,4 L-60,4 L-58,3 L-58,1 Z " fill="#5A5B5B" transform="translate(153,337)"/>
<path d="M0,0 L1,0 L1,67 L0,67 L0,4 L-73,4 L-74,1 Z " fill="#696A6A" transform="translate(229,337)"/>
<path d="M0,0 L1,0 L1,112 L3,113 L-1,113 L-2,103 L-2,39 L-1,6 Z " fill="#646464" transform="translate(6,106)"/>
<path d="M0,0 L6,1 L7,23 L8,25 L14,25 L19,28 L21,34 L19,34 L19,36 L13,34 L13,33 L5,32 L1,28 L0,26 Z " fill="#E4B334" transform="translate(18,46)"/>
<path d="M0,0 L1,0 L1,97 L-2,97 L-2,1 Z " fill="#646464" transform="translate(80,7)"/>
<path d="M0,0 L6,0 L7,2 L11,4 L11,36 L9,37 L5,36 L6,32 L4,31 L4,9 L-1,7 L1,6 Z " fill="#E6B735" transform="translate(56,37)"/>
<path d="M0,0 L5,1 L4,13 L2,19 L-1,19 L-1,17 L-3,20 L-8,20 L-9,1 Z " fill="#E5E4BB" transform="translate(196,349)"/>
<path d="M0,0 L16,1 L16,2 L0,2 L0,74 L-1,74 L-1,3 L-66,3 L-67,1 Z " fill="#B7B8B8" transform="translate(79,338)"/>
<path d="M0,0 L1,0 L1,214 L0,214 Z " fill="#5F5F5F" transform="translate(403,5)"/>
<path d="M0,0 L2,0 L2,81 L48,81 L48,82 L-2,82 L0,81 Z " fill="#545454" transform="translate(305,460)"/>
<path d="M0,0 L2,1 L1,3 L-1,3 L-1,8 L-4,10 L-6,11 L-6,35 L0,37 L0,38 L-5,38 L-7,37 L-7,14 L-13,13 L-12,39 L-11,42 L-15,41 L-15,7 L-7,2 Z " fill="#CCA331" transform="translate(31,33)"/>
<path d="M0,0 L132,0 L132,1 L76,1 L75,3 L75,1 L3,1 L3,28 L2,28 L1,34 L0,34 Z " fill="#AAAAA7" transform="translate(4,5)"/>
<path d="M0,0 L2,0 L2,10 L0,28 L-1,28 L-1,11 L-50,11 L-50,8 L-1,8 L-1,1 Z " fill="#7E7E7E" transform="translate(230,533)"/>
<path d="M0,0 L1,0 L2,5 L2,89 L8,89 L8,91 L2,91 L1,96 L0,96 L0,91 L-2,91 L-2,89 L0,89 Z " fill="#BDBEBE" transform="translate(78,453)"/>
<path d="M0,0 L1,0 L1,117 L0,117 L-1,58 L-1,3 L-14,3 L-11,1 Z " fill="#AFB0B0" transform="translate(402,103)"/>
<path d="M0,0 L1,0 L4,18 L4,23 L7,23 L11,28 L14,30 L23,29 L21,33 L3,33 L2,26 L0,25 L-1,20 L-4,19 L-5,16 L-5,9 L-4,13 L-1,10 Z " fill="#BA6226" transform="translate(171,54)"/>
<path d="M0,0 L1,0 L1,62 L10,62 L10,64 L-1,65 L-8,64 L-8,62 L-2,62 L-2,35 L-1,6 Z " fill="#B7B7B7" transform="translate(231,543)"/>
<path d="M0,0 L1,0 L1,61 L29,61 L28,64 L-7,64 L-8,61 L-2,61 L-2,50 L-1,50 Z " fill="#878888" transform="translate(80,544)"/>
<path d="M0,0 L1,0 L2,14 L2,129 L1,172 L0,172 L-1,130 L0,128 L-3,127 L0,127 L0,14 L-2,13 L-1,12 Z " fill="#E6E7E6" transform="translate(79,92)"/>
<path d="M0,0 L1,0 L1,12 L72,12 L72,15 L1,15 L1,21 L0,21 Z " fill="#A4A6A5" transform="translate(5,91)"/>
<path d="M0,0 L1,0 L2,32 L2,117 L0,120 L-1,50 L-1,7 Z " fill="#D7D9D8" transform="translate(306,98)"/>
<path d="M0,0 L7,1 L7,3 L14,4 L14,8 L3,16 L-2,13 L-2,9 L-4,8 L-4,3 Z " fill="#E4E1B2" transform="translate(265,152)"/>
<path d="M0,0 L2,1 L2,86 L0,87 Z " fill="#999999" transform="translate(401,17)"/>
<path d="M0,0 L2,0 L0,12 L0,31 L2,38 L3,55 L5,63 L9,63 L10,60 L11,62 L5,75 L3,75 L1,58 L0,56 L-1,40 L-2,36 L-2,5 Z " fill="#D9BFAD" transform="translate(117,129)"/>
<path d="M0,0 L47,1 L49,3 L48,4 L-13,4 L-12,1 Z " fill="#7D7E7D" transform="translate(354,604)"/>
<path d="M0,0 L10,0 L9,18 L0,18 Z " fill="#F6F4C7" transform="translate(188,373)"/>
<path d="M0,0 L4,1 L17,9 L21,11 L21,12 L15,12 L16,18 L10,17 L3,12 L-2,12 L-3,10 L4,9 L4,5 L0,4 L1,3 L-2,1 Z " fill="#C89E32" transform="translate(41,25)"/>
<path d="M0,0 L72,0 L72,1 L1,1 L1,91 L4,92 L0,92 Z " fill="#787878" transform="translate(80,450)"/>
<path d="M0,0 L2,1 L4,5 L4,9 L8,11 L11,13 L11,15 L-14,15 L-12,10 L-4,7 L-1,7 Z " fill="#B75E23" transform="translate(206,72)"/>
<path d="M0,0 L24,0 L24,1 L1,1 L2,5 L1,22 L0,119 L-1,119 L-1,2 Z " fill="#818181" transform="translate(155,220)"/>
<path d="M0,0 L2,4 L4,9 L8,28 L8,33 L4,29 L-7,6 L-6,4 L-2,6 L-1,6 Z " fill="#D0C8C1" transform="translate(105,164)"/>
<path d="M0,0 L1,0 L1,39 L71,39 L71,40 L7,41 L7,42 L1,42 L1,49 L-2,48 L-2,35 L-1,33 Z " fill="#404042" transform="translate(6,299)"/>
<path d="M0,0 L1,0 L1,23 L0,24 L-9,25 L-29,25 L-47,23 L-52,11 L-52,9 L-49,8 L-49,14 L-46,15 L-46,22 L0,22 Z " fill="#784321" transform="translate(220,65)"/>
<path d="M0,0 L2,0 L2,2 L6,3 L7,5 L6,37 L-6,44 L-9,40 L-5,36 L-8,35 L-8,33 L-4,31 L-3,9 L-2,9 L-2,31 L1,32 L-1,33 L-1,36 L4,36 L4,4 L0,2 Z " fill="#AB8928" transform="translate(62,37)"/>
<path d="M0,0 L1,0 L1,118 L16,118 L16,120 L5,120 L1,119 L0,121 L-1,118 L-1,1 Z " fill="#E3E4E4" transform="translate(354,221)"/>
<path d="M0,0 L6,0 L6,1 L1,1 L1,61 L46,61 L46,51 L47,51 L47,62 L-18,62 L-18,61 L-2,61 L-2,55 L-1,55 Z " fill="#474847" transform="translate(355,543)"/>
<path d="M0,0 L5,2 L4,5 L1,6 L2,11 L-4,15 L-14,15 L-14,11 L-13,9 L-8,9 L-6,3 Z " fill="#D8A931" transform="translate(53,71)"/>
<path d="M0,0 L1,0 L1,146 L0,146 Z " fill="#747574" transform="translate(403,461)"/>
<path d="M0,0 L2,3 L7,5 L12,6 L13,7 L13,18 L9,20 L8,22 L1,8 Z " fill="#D8D8D8" transform="translate(89,145)"/>
<path d="M0,0 L4,1 L6,2 L5,4 L-58,3 L-68,2 L-68,1 Z " fill="#C7C7C7" transform="translate(73,218)"/>
<path d="M0,0 L10,0 L9,2 L8,17 L0,17 Z " fill="#F7F4C8" transform="translate(188,394)"/>
<path d="M0,0 L47,0 L47,91 L46,91 L46,1 L0,1 Z " fill="#545454" transform="translate(307,450)"/>
<path d="M0,0 L1,0 L1,117 L15,117 L15,118 L0,118 Z " fill="#5B5C5B" transform="translate(355,221)"/>
<path d="M0,0 L1,0 L1,117 L15,117 L15,118 L0,118 Z " fill="#5A5B5B" transform="translate(80,221)"/>
<path d="M0,0 L130,0 L130,1 L54,2 L0,1 Z " fill="#C7C7C7" transform="translate(176,5)"/>
<path d="M0,0 L3,0 L3,11 L45,11 L45,13 L1,13 L-2,12 Z " fill="#ACACAC" transform="translate(353,208)"/>
<path d="M0,0 L3,0 L2,36 L1,36 L0,73 L-1,73 L-1,16 Z " fill="#555654" transform="translate(5,67)"/>
<path d="M0,0 L1,0 L1,16 L-1,17 L1,18 L1,24 L-1,20 L-5,21 L-5,25 L-7,25 L-8,37 L-1,37 L-1,26 L0,26 L0,38 L-9,38 L-9,18 L-8,15 L0,15 Z " fill="#A7A58D" transform="translate(196,396)"/>
<path d="M0,0 L13,0 L13,1 L1,1 L1,108 L0,108 Z " fill="#5A5B5B" transform="translate(80,340)"/>
<path d="M0,0 L1,0 L1,114 L-1,113 L-1,41 Z " fill="#404042" transform="translate(78,225)"/>
<path d="M0,0 L1,0 L1,95 L0,95 L-1,17 L-2,12 L-2,4 Z " fill="#CCCECD" transform="translate(231,124)"/>
<path d="M0,0 L1,0 L1,116 L0,116 Z " fill="#696A6A" transform="translate(229,221)"/>
<path d="M0,0 L1,0 L1,116 L0,116 Z " fill="#5A5B5B" transform="translate(153,221)"/>
<path d="M0,0 L3,1 L3,7 L12,6 L37,7 L37,9 L-4,10 L-10,9 L-10,7 L0,7 Z " fill="#B9BBBB" transform="translate(305,598)"/>
<path d="M0,0 L4,0 L4,7 L-4,11 L-11,11 L-11,4 L-2,3 L-2,1 Z " fill="#28293E" transform="translate(269,315)"/>
<path d="M0,0 L1,0 L1,113 L0,113 Z " fill="#646464" transform="translate(80,106)"/>
<path d="M0,0 L1,0 L1,113 L0,113 Z " fill="#646464" transform="translate(78,106)"/>
<path d="M0,0 L1,0 L1,112 L0,112 Z " fill="#5C5D5D" transform="translate(353,225)"/>
<path d="M0,0 L6,0 L6,3 L-45,3 L-63,2 L-63,1 Z " fill="#B5B5B5" transform="translate(224,218)"/>
<path d="M0,0 L3,2 L3,49 L2,54 L1,54 L0,48 Z " fill="#CBCCCC" transform="translate(305,550)"/>
<path d="M0,0 L4,1 L1,1 L1,108 L0,108 Z " fill="#757675" transform="translate(355,340)"/>
<path d="M0,0 L1,0 L1,107 L0,107 Z M-1,107 Z " fill="#F0F1F0" transform="translate(354,342)"/>
<path d="M0,0 L1,0 L2,15 L3,19 L4,39 L4,50 L2,50 L0,44 L0,38 L-2,38 L-4,31 L-2,31 L-2,35 L0,34 Z " fill="#BD703D" transform="translate(114,150)"/>
<path d="M0,0 L1,0 L1,58 L0,58 L-2,44 L-1,6 Z " fill="#F2F2F2" transform="translate(79,543)"/>
<path d="M0,0 L20,0 L20,2 L17,3 L-27,3 L-27,1 Z " fill="#ABACAB" transform="translate(210,103)"/>
<path d="M0,0 L5,0 L6,6 L5,17 L-2,17 L-1,5 L1,5 Z " fill="#F7F5C7" transform="translate(190,416)"/>
<path d="M0,0 L31,0 L32,2 L32,10 L31,10 L31,3 L0,3 Z " fill="#5B5C5B" transform="translate(370,338)"/>
<path d="M0,0 L8,0 L11,1 L10,10 L8,39 L7,39 L6,34 L6,23 L7,21 L7,2 L3,1 L4,4 L3,6 L-2,7 Z " fill="#D7BEAC" transform="translate(97,121)"/>
<path d="M0,0 L4,0 L5,62 L12,62 L12,64 L10,65 L1,65 L-1,64 L-1,62 L3,62 L3,1 Z " fill="#575757" transform="translate(150,543)"/>
<path d="M0,0 L1,0 L2,92 L0,96 Z " fill="#C1C2C1" transform="translate(305,6)"/>
<path d="M0,0 L1,0 L1,98 L0,98 Z " fill="#646464" transform="translate(153,6)"/>
<path d="M0,0 L1,0 L1,96 L0,96 Z " fill="#696A6A" transform="translate(155,242)"/>
<path d="M0,0 L1,0 L1,83 L7,83 L7,84 L1,84 L0,86 L0,84 L-3,83 L0,83 Z " fill="#C2C2C2" transform="translate(154,136)"/>
<path d="M0,0 L1,0 L1,37 L-1,35 L-1,1 Z M-23,37 L0,37 L0,38 L-23,38 Z " fill="#C8CAC9" transform="translate(79,412)"/>
<path d="M0,0 L1,0 L1,89 L0,89 Z M-4,89 L0,90 Z " fill="#EAEAEA" transform="translate(154,453)"/>
<path d="M0,0 L1,0 L1,93 L0,93 Z " fill="#F0F1F0" transform="translate(354,449)"/>
<path d="M0,0 L6,2 L9,1 L8,5 L3,5 L2,10 L10,11 L7,14 L2,13 L-10,5 L-13,3 L-5,3 L-5,5 L-2,5 L-2,7 L0,7 L0,5 L2,5 Z " fill="#B79431" transform="translate(37,75)"/>
<path d="M0,0 L1,0 L1,5 L-1,7 L-2,13 L-3,13 L-4,25 L-6,25 L-6,33 L-7,40 L-9,37 L-8,24 L-6,16 L-4,4 Z " fill="#9E5E2B" transform="translate(173,28)"/>
<path d="M0,0 L1,0 L1,14 L6,13 L10,9 L9,13 L11,12 L12,7 L13,7 L12,17 L12,26 L11,26 L11,18 L1,18 L0,17 Z " fill="#B0AC92" transform="translate(187,355)"/>
<path d="M0,0 L1,0 L2,17 L-4,17 L-8,9 L-7,7 L-6,8 L-6,1 L-4,1 L-2,9 L-2,13 L0,13 L-1,9 L-1,2 Z " fill="#AD7958" transform="translate(118,187)"/>
<path d="M0,0 L17,0 L18,4 L16,8 L16,3 L4,3 L1,2 L0,12 L-1,13 L-2,22 L-4,20 L-3,12 L-1,1 Z " fill="#84451D" transform="translate(185,114)"/>
<path d="M0,0 L75,0 L75,1 L1,1 L1,9 L0,9 Z " fill="#C8CAC9" transform="translate(79,449)"/>
<path d="M0,0 L44,0 L44,1 L39,2 L0,2 Z " fill="#646464" transform="translate(81,104)"/>
<path d="M0,0 L1,0 L2,26 L1,29 L1,52 L3,54 L0,54 L0,70 L-1,70 L-1,26 Z " fill="#D7D7D3" transform="translate(5,13)"/>
<path d="M0,0 L1,0 L3,22 L3,31 L0,31 L-6,22 L0,24 L-1,17 Z " fill="#75411C" transform="translate(200,180)"/>
<path d="M0,0 L1,0 L1,19 L10,19 L10,9 L11,9 L11,22 L1,22 L1,40 L0,40 Z " fill="#99977F" transform="translate(187,372)"/>
<path d="M0,0 L9,1 L13,3 L12,8 L3,7 L3,5 L0,5 Z " fill="#2E2E47" transform="translate(188,317)"/>
<path d="M0,0 L1,0 L1,78 L0,78 Z " fill="#C1C2C1" transform="translate(230,141)"/>
<path d="M0,0 L1,0 L1,78 L0,78 Z " fill="#B5B5B5" transform="translate(229,140)"/>
<path d="M0,0 L17,0 L20,2 L19,5 L19,3 L-14,3 L-14,2 Z " fill="#A5A7A6" transform="translate(134,103)"/>
<path d="M0,0 L1,0 L1,28 L-2,27 L-2,4 Z " fill="#959690" transform="translate(7,38)"/>
<path d="M0,0 L31,0 L31,1 L15,1 L14,8 L13,4 L3,5 L3,1 Z " fill="#AC6130" transform="translate(105,121)"/>
<path d="M0,0 L7,0 L5,2 L8,3 L8,7 L2,9 L-2,10 L-4,8 L-1,1 Z " fill="#E1B132" transform="translate(37,27)"/>
<path d="M0,0 L4,2 L4,3 L-69,3 L-69,2 L0,2 Z " fill="#B5B5B5" transform="translate(150,218)"/>
<path d="M0,0 L1,0 L0,20 L-2,34 L1,33 L2,36 L-1,39 L-5,38 Z " fill="#161623" transform="translate(38,379)"/>
<path d="M0,0 L74,0 L74,1 L0,1 Z M-1,1 Z " fill="#C1C2C1" transform="translate(231,6)"/>
<path d="M0,0 L1,0 L1,74 L0,74 Z " fill="#B7B8B8" transform="translate(79,264)"/>
<path d="M0,0 L2,0 L1,5 L6,7 L3,10 L-5,15 L-7,15 L-8,17 L-7,11 L-4,11 L-3,6 L-1,6 L-2,4 L-7,5 L-2,1 Z " fill="#B5902E" transform="translate(33,30)"/>
<path d="M0,0 L74,0 L74,1 L0,1 Z " fill="#595958" transform="translate(156,6)"/>
<path d="M0,0 L40,0 L40,1 L20,1 L21,3 L21,11 L18,15 L18,1 L0,1 Z " fill="#C9C9C8" transform="translate(136,5)"/>
<path d="M0,0 L72,1 L72,2 L0,2 Z " fill="#545454" transform="translate(231,540)"/>
<path d="M0,0 L73,0 L73,1 L0,1 Z " fill="#545454" transform="translate(232,450)"/>
<path d="M0,0 L1,0 L1,72 L0,72 Z M-1,72 Z " fill="#C8CAC9" transform="translate(79,340)"/>
<path d="M0,0 L68,0 L68,2 L-1,2 Z " fill="#E9E9E9" transform="translate(82,218)"/>
<path d="M0,0 L5,1 L11,6 L8,7 L6,6 L6,4 L-1,4 L-4,6 L-5,11 L-2,12 L-4,15 L-10,10 L-9,7 Z " fill="#BDBC9D" transform="translate(266,149)"/>
<path d="M0,0 L73,0 L73,1 L0,1 Z " fill="#646464" transform="translate(80,6)"/>
<path d="M0,0 L72,0 L71,2 L0,1 Z " fill="#646464" transform="translate(7,6)"/>
<path d="M0,0 L9,0 L9,1 L1,1 L1,64 L0,64 Z " fill="#EAEAEA" transform="translate(154,542)"/>
<path d="M0,0 L71,0 L71,1 L0,1 Z " fill="#5A5B5B" transform="translate(80,448)"/>
<path d="M0,0 L33,0 L31,2 L28,3 L-1,3 L-4,1 Z " fill="#9B9D9C" transform="translate(360,103)"/>
<path d="M0,0 L5,1 L9,6 L6,6 L6,8 L3,8 L4,14 L4,25 L3,25 L0,4 Z " fill="#171724" transform="translate(315,232)"/>
<path d="M0,0 L1,0 L3,12 L3,22 L-2,23 L-4,20 L-4,17 L-1,15 Z " fill="#EEE7E1" transform="translate(102,148)"/>
<path d="M0,0 L1,0 L1,70 L0,70 Z " fill="#C1C2C1" transform="translate(305,148)"/>
<path d="M0,0 L0,3 L-2,11 L1,11 L2,9 L5,10 L3,15 L1,15 L0,28 L-1,28 L-4,4 Z " fill="#BA9875" transform="translate(250,39)"/>
<path d="M0,0 L46,0 L46,1 L1,1 L1,25 L0,25 Z " fill="#7B7C7B" transform="translate(355,6)"/>
<path d="M0,0 L8,0 L8,1 L1,1 L1,62 L0,62 Z " fill="#575757" transform="translate(155,543)"/>
<path d="M0,0 L1,3 L13,2 L35,3 L35,4 L14,5 L1,5 L1,19 L0,19 Z " fill="#949A95" transform="translate(307,101)"/>
<path d="M0,0 L5,1 L5,3 L7,3 L8,0 L15,0 L11,3 L1,8 L-6,4 L-6,3 L-1,3 L0,3 Z " fill="#C09A30" transform="translate(116,73)"/>
<path d="M0,0 L14,0 L17,1 L17,3 L-8,3 L-10,1 Z " fill="#909190" transform="translate(166,103)"/>
<path d="M0,0 L1,0 L1,64 L0,64 Z M-1,64 Z " fill="#B6B9B8" transform="translate(231,340)"/>
</svg>
