<?xml version="1.0" encoding="UTF-8"?>
<svg width="128" height="128" viewBox="0 0 128 128" class="block " xmlns="http://www.w3.org/2000/svg"><rect width="128" height="128" fill="#3B3E43"></rect><polygon points="0,0 128,0 128,32 32,32 32,128 0,128" fill="#D4CEB8"></polygon><polygon points="32,32 40,40 50,32 60,45 70,32 80,44 128,32 128,128 32,128" fill="#8B7D6C"></polygon><polygon points="32,32 44,40 32,50 48,60 32,70 42,80 32,128" fill="#8B7D6C"></polygon><rect x="48" y="48" width="80" height="80" fill="#8B7D6C"></rect><rect x="12" y="32" width="8" height="64" fill="#3B3E43"></rect><rect x="14" y="34" width="4" height="16" fill="#00E575"></rect><rect x="14" y="54" width="4" height="16" fill="#00E575"></rect><rect x="14" y="74" width="4" height="16" fill="#00E575"></rect><rect x="64" y="12" width="48" height="12" fill="#3B3E43"></rect><rect x="68" y="14" width="40" height="2" fill="#F98822"></rect><rect x="68" y="18" width="40" height="2" fill="#D4CEB8"></rect><path d="M 32,32 Q 40,50 36,70 Q 30,90 38,100" fill="none" stroke="#5B7B43" stroke-width="4" stroke-linecap="round"></path><path d="M 40,32 Q 50,45 48,60" fill="none" stroke="#5B7B43" stroke-width="3" stroke-linecap="round"></path><path d="M 32,50 Q 25,60 30,70" fill="none" stroke="#5B7B43" stroke-width="2" stroke-linecap="round"></path><path d="M 64,80 Q 80,100 70,120" fill="none" stroke="#5B7B43" stroke-width="3" stroke-linecap="round"></path></svg>