<?xml version="1.0" encoding="UTF-8"?>
<svg width="128" height="128" viewBox="0 0 128 128" class="block " xmlns="http://www.w3.org/2000/svg"><rect width="128" height="128" fill="#3B3E43"></rect><rect x="96" y="0" width="32" height="128" fill="#D4CEB8"></rect><polygon points="96,0 80,16 96,32 72,48 96,64 80,80 96,96 72,112 96,128 0,128 0,0" fill="#8B7D6C"></polygon><rect x="0" y="0" width="72" height="128" fill="#8B7D6C"></rect><rect x="108" y="16" width="8" height="96" fill="#3B3E43"></rect><rect x="110" y="20" width="4" height="24" fill="#00E575"></rect><rect x="110" y="52" width="4" height="24" fill="#00E575"></rect><rect x="110" y="84" width="4" height="24" fill="#00E575"></rect><path d="M 96,16 Q 83,25 96,48" fill="none" stroke="#5B7B43" stroke-width="3" stroke-linecap="round"></path><path d="M 96,64 Q 78,75 96,96" fill="none" stroke="#5B7B43" stroke-width="4" stroke-linecap="round"></path><circle cx="48" cy="48" r="24" fill="#3B3E43"></circle><circle cx="48" cy="48" r="16" fill="#D4CEB8"></circle><rect x="44" y="32" width="8" height="32" fill="#3B3E43"></rect><rect x="32" y="44" width="32" height="8" fill="#3B3E43"></rect><circle cx="48" cy="48" r="4" fill="#F98822"></circle></svg>