<?xml version="1.0" encoding="UTF-8"?>
<svg width="128" height="128" viewBox="0 0 128 128" class="block " xmlns="http://www.w3.org/2000/svg"><rect width="128" height="128" fill="#3B3E43"></rect><rect x="0" y="0" width="128" height="32" fill="#D4CEB8"></rect><polygon points="0,32 16,40 24,32 30,48 40,36 48,56 60,32 72,40 84,32 96,50 112,32 128,44 128,128 0,128" fill="#8B7D6C"></polygon><rect x="0" y="56" width="128" height="72" fill="#8B7D6C"></rect><polygon points="40,32 48,16 56,16 52,32 56,48 44,56 48,40 40,32" fill="#8B7D6C"></polygon><polygon points="44,32 52,16 60,16 56,32 60,48 50,54 52,42 44,32" fill="#3B3E43"></polygon><polygon points="48,20 54,18 52,28 46,26" fill="#00E575"></polygon><circle cx="58" cy="38" r="3" fill="#F98822"></circle><circle cx="48" cy="48" r="2" fill="#00E575"></circle><polygon points="104,0 100,12 112,24 116,20 104,8" fill="#8B7D6C"></polygon><path d="M 12,32 Q 20,20 28,32" fill="#5B7B43"></path><path d="M 72,32 Q 80,18 88,32" fill="#5B7B43"></path><path d="M 46,20 Q 55,25 50,32" fill="none" stroke="#5B7B43" stroke-width="2" stroke-linecap="round"></path><rect x="80" y="70" width="16" height="30" fill="#3B3E43"></rect><rect x="84" y="70" width="4" height="30" fill="#F98822"></rect><rect x="80" y="108" width="16" height="20" fill="#3B3E43"></rect><rect x="84" y="108" width="4" height="20" fill="#F98822"></rect><circle cx="86" cy="104" r="3" fill="#00E575"></circle><circle cx="80" cy="100" r="2" fill="#00E575"></circle></svg>