<?xml version="1.0" encoding="UTF-8"?>
<svg width="128" height="128" viewBox="0 0 128 128" class="block " xmlns="http://www.w3.org/2000/svg"><rect width="128" height="128" fill="#3B3E43"></rect><rect width="128" height="128" fill="#8B7D6C"></rect><rect x="32" y="0" width="64" height="128" fill="#3B3E43"></rect><rect x="40" y="16" width="48" height="96" fill="#D4CEB8"></rect><rect x="52" y="32" width="24" height="64" fill="#3B3E43"></rect><rect x="56" y="36" width="16" height="16" fill="#00E575"></rect><rect x="56" y="56" width="16" height="16" fill="#00E575"></rect><rect x="56" y="76" width="16" height="16" fill="#00E575"></rect><path d="M 16,0 Q 40,40 20,80 Q 10,100 24,128" fill="none" stroke="#5B7B43" stroke-width="6" stroke-linecap="round"></path><path d="M 112,0 Q 90,50 110,90 Q 120,110 96,128" fill="none" stroke="#5B7B43" stroke-width="5" stroke-linecap="round"></path><path d="M 40,0 Q 30,20 40,40" fill="none" stroke="#F98822" stroke-width="2" stroke-linecap="round"></path><path d="M 88,128 Q 100,100 88,80" fill="none" stroke="#F98822" stroke-width="2" stroke-linecap="round"></path></svg>