<?xml version="1.0" encoding="UTF-8"?>
<svg width="128" height="128" viewBox="0 0 128 128" class="block " xmlns="http://www.w3.org/2000/svg"><rect width="128" height="128" fill="#3B3E43"></rect><polygon points="0,0 128,0 128,128 96,128 96,32 0,32" fill="#D4CEB8"></polygon><polygon points="96,32 88,40 80,32 70,45 60,32 50,44 0,32 0,128 96,128" fill="#8B7D6C"></polygon><polygon points="96,32 84,40 96,50 80,60 96,70 86,80 96,128" fill="#8B7D6C"></polygon><rect x="0" y="48" width="80" height="80" fill="#8B7D6C"></rect><rect x="108" y="32" width="8" height="64" fill="#3B3E43"></rect><rect x="110" y="34" width="4" height="16" fill="#00E575"></rect><rect x="110" y="54" width="4" height="16" fill="#00E575"></rect><rect x="110" y="74" width="4" height="16" fill="#00E575"></rect><rect x="16" y="12" width="48" height="12" fill="#3B3E43"></rect><rect x="20" y="14" width="40" height="2" fill="#00E575"></rect><rect x="20" y="18" width="40" height="2" fill="#D4CEB8"></rect><path d="M 96,32 Q 88,50 92,70 Q 98,90 90,100" fill="none" stroke="#5B7B43" stroke-width="4" stroke-linecap="round"></path><path d="M 88,32 Q 78,45 80,60" fill="none" stroke="#5B7B43" stroke-width="3" stroke-linecap="round"></path><path d="M 96,50 Q 103,60 98,70" fill="none" stroke="#5B7B43" stroke-width="2" stroke-linecap="round"></path><rect x="32" y="70" width="32" height="32" fill="#3B3E43"></rect><rect x="36" y="74" width="24" height="24" fill="#D4CEB8"></rect><circle cx="48" cy="86" r="6" fill="#F98822"></circle><circle cx="48" cy="86" r="3" fill="#00E575"></circle></svg>