<?xml version="1.0" encoding="UTF-8"?>
<svg width="128" height="128" viewBox="0 0 128 128" class="block " xmlns="http://www.w3.org/2000/svg"><rect width="128" height="128" fill="#3B3E43"></rect><rect x="0" y="0" width="32" height="128" fill="#D4CEB8"></rect><polygon points="32,0 48,16 32,32 56,48 32,64 48,80 32,96 56,112 32,128 128,128 128,0" fill="#8B7D6C"></polygon><rect x="56" y="0" width="72" height="128" fill="#8B7D6C"></rect><rect x="12" y="16" width="8" height="96" fill="#3B3E43"></rect><rect x="14" y="20" width="4" height="24" fill="#00E575"></rect><rect x="14" y="52" width="4" height="24" fill="#00E575"></rect><rect x="14" y="84" width="4" height="24" fill="#00E575"></rect><path d="M 32,16 Q 45,25 32,48" fill="none" stroke="#5B7B43" stroke-width="3" stroke-linecap="round"></path><path d="M 32,64 Q 50,75 32,96" fill="none" stroke="#5B7B43" stroke-width="4" stroke-linecap="round"></path><path d="M 64,0 Q 70,30 60,60 Q 50,90 70,128" fill="none" stroke="#3B3E43" stroke-width="6"></path><path d="M 64,0 Q 70,30 60,60 Q 50,90 70,128" fill="none" stroke="#F98822" stroke-width="2" stroke-dasharray="4 4"></path></svg>