<?xml version="1.0" encoding="UTF-8"?>
<svg width="128" height="128" viewBox="0 0 128 128" class="block " xmlns="http://www.w3.org/2000/svg"><rect width="128" height="128" fill="#3B3E43"></rect><rect x="0" y="0" width="128" height="32" fill="#D4CEB8"></rect><polygon points="0,32 12,44 24,36 36,44 48,32 56,48 72,36 84,44 100,32 112,48 128,32 128,128 0,128" fill="#8B7D6C"></polygon><rect x="0" y="48" width="128" height="80" fill="#8B7D6C"></rect><rect x="0" y="32" width="128" height="6" fill="#3B3E43" opacity="0.5"></rect><rect x="16" y="0" width="32" height="32" fill="#3B3E43"></rect><rect x="20" y="4" width="24" height="6" fill="#00E575"></rect><rect x="20" y="14" width="24" height="6" fill="#00E575"></rect><rect x="20" y="24" width="24" height="6" fill="#00E575"></rect><path d="M 0,32 Q 8,24 16,32 Q 24,20 32,32" fill="#5B7B43"></path><path d="M 80,32 Q 88,20 96,32 Q 104,16 112,32 Q 120,24 128,32" fill="#5B7B43"></path><rect x="56" y="64" width="16" height="64" fill="#3B3E43"></rect><rect x="60" y="64" width="4" height="64" fill="#F98822"></rect><rect x="88" y="12" width="24" height="12" fill="#3B3E43"></rect><rect x="92" y="14" width="16" height="2" fill="#D4CEB8"></rect><rect x="92" y="18" width="16" height="2" fill="#D4CEB8"></rect><path d="M 112,48 Q 120,70 100,80 Q 90,90 96,105" fill="none" stroke="#5B7B43" stroke-width="3" stroke-linecap="round"></path><path d="M 24,44 Q 16,60 30,70" fill="none" stroke="#5B7B43" stroke-width="2" stroke-linecap="round"></path></svg>