<?xml version="1.0" encoding="UTF-8"?>
<svg width="128" height="128" viewBox="0 0 128 128" class="block " xmlns="http://www.w3.org/2000/svg"><path d="M 20,44 Q 25,60 20,70 Q 15,80 20,90" fill="none" stroke="#5B7B43" stroke-width="4" stroke-linecap="round"></path><path d="M 108,44 Q 100,55 105,75" fill="none" stroke="#5B7B43" stroke-width="4" stroke-linecap="round"></path><rect x="12" y="32" width="104" height="12" fill="#D4CEB8"></rect><rect x="12" y="44" width="104" height="4" fill="#8B7D6C"></rect><rect x="16" y="48" width="96" height="20" fill="#3B3E43"></rect><rect x="36" y="32" width="56" height="6" fill="#3B3E43"></rect><rect x="38" y="34" width="16" height="4" fill="#00E575"></rect><rect x="56" y="34" width="16" height="4" fill="#00E575"></rect><rect x="74" y="34" width="16" height="4" fill="#00E575"></rect><polygon points="12,48 16,48 16,68 28,68 24,76 12,68" fill="#D4CEB8"></polygon><polygon points="104,48 116,48 116,68 104,76 100,68" fill="#D4CEB8"></polygon><rect x="16" y="54" width="4" height="8" fill="#F98822"></rect><rect x="108" y="54" width="4" height="8" fill="#F98822"></rect><polygon points="32,68 96,68 88,88 40,88" fill="#8B7D6C"></polygon><rect x="44" y="68" width="40" height="16" fill="#3B3E43"></rect><rect x="48" y="72" width="32" height="4" fill="#F98822"></rect><rect x="52" y="76" width="24" height="4" fill="#00E575"></rect><rect x="56" y="80" width="16" height="4" fill="#D4CEB8"></rect><path d="M 12,28 Q 20,28 24,36 Q 16,40 12,36 Z" fill="#5B7B43"></path><path d="M 116,30 Q 108,28 104,36 Q 112,40 116,38 Z" fill="#5B7B43"></path><rect x="20" y="36" width="4" height="4" fill="#8B7D6C"></rect><rect x="104" y="36" width="4" height="4" fill="#8B7D6C"></rect></svg>