<?xml version="1.0" encoding="UTF-8"?>
<svg width="128" height="128" viewBox="0 0 128 128" class="block " xmlns="http://www.w3.org/2000/svg"><path d="M 10,40 Q 64,28 118,40 Q 64,52 10,40" fill="#8B7D6C"></path><path d="M 12,38 Q 64,26 116,38 Q 64,48 12,38" fill="#5B7B43" opacity="0.8"></path><path d="M 20,44 Q 40,60 64,50 Q 80,40 108,44" fill="none" stroke="#5B7B43" stroke-width="6" stroke-linecap="round"></path><path d="M 30,36 Q 50,56 70,36 Q 90,56 100,40" fill="none" stroke="#8B7D6C" stroke-width="4" stroke-linecap="round"></path><path d="M 40,48 Q 50,70 64,80 Q 75,90 70,110" fill="none" stroke="#5B7B43" stroke-width="4" stroke-linecap="round"></path><path d="M 80,46 Q 90,65 85,85 Q 95,100 80,120" fill="none" stroke="#8B7D6C" stroke-width="5" stroke-linecap="round"></path><polygon points="40,32 56,28 60,34 44,38" fill="#D4CEB8"></polygon><polygon points="80,36 96,40 92,46 76,42" fill="#3B3E43"></polygon><circle cx="50" cy="32" r="3" fill="#00E575"></circle><circle cx="84" cy="40" r="2" fill="#F98822"></circle><path d="M 50,42 Q 60,60 55,75" fill="none" stroke="#F98822" stroke-width="2" stroke-linecap="round"></path><circle cx="34" cy="36" r="4" fill="#00E575" opacity="0.8"></circle><circle cx="70" cy="50" r="3" fill="#00E575" opacity="0.8"></circle><circle cx="94" cy="42" r="4" fill="#00E575" opacity="0.8"></circle></svg>