<?xml version="1.0" encoding="UTF-8"?>
<svg width="128" height="128" viewBox="0 0 128 128" class="block " xmlns="http://www.w3.org/2000/svg"><rect x="0" y="32" width="128" height="12" fill="#D4CEB8"></rect><rect x="0" y="44" width="128" height="4" fill="#8B7D6C"></rect><rect x="0" y="48" width="128" height="16" fill="#3B3E43"></rect><rect x="16" y="32" width="96" height="6" fill="#3B3E43"></rect><g fill="#00E575"><rect x="20" y="34" width="12" height="4"></rect><rect x="36" y="34" width="12" height="4"></rect><rect x="52" y="34" width="12" height="4"></rect><rect x="68" y="34" width="12" height="4"></rect><rect x="84" y="34" width="12" height="4"></rect><rect x="100" y="34" width="12" height="4"></rect></g><polygon points="0,64 16,64 24,76 8,76" fill="#D4CEB8"></polygon><polygon points="16,64 32,64 40,76 24,76" fill="#8B7D6C"></polygon><polygon points="32,64 48,64 56,76 40,76" fill="#D4CEB8"></polygon><polygon points="48,64 64,64 72,76 56,76" fill="#8B7D6C"></polygon><polygon points="64,64 80,64 88,76 72,76" fill="#D4CEB8"></polygon><polygon points="80,64 96,64 104,76 88,76" fill="#8B7D6C"></polygon><polygon points="96,64 112,64 120,76 104,76" fill="#D4CEB8"></polygon><polygon points="112,64 128,64 136,76 120,76" fill="#8B7D6C"></polygon><path d="M 0,80 Q 64,96 128,80" fill="none" stroke="#F98822" stroke-width="2"></path><path d="M 0,86 Q 64,106 128,86" fill="none" stroke="#3B3E43" stroke-width="3"></path></svg>