<?xml version="1.0" encoding="UTF-8"?>
<svg width="128" height="128" viewBox="0 0 128 128" class="block " xmlns="http://www.w3.org/2000/svg"><rect x="16" y="32" width="96" height="6" fill="#D4CEB8"></rect><g fill="#3B3E43"><rect x="24" y="34" width="4" height="2"></rect><rect x="32" y="34" width="4" height="2"></rect><rect x="40" y="34" width="4" height="2"></rect><rect x="48" y="34" width="4" height="2"></rect><rect x="56" y="34" width="4" height="2"></rect><rect x="64" y="34" width="4" height="2"></rect><rect x="72" y="34" width="4" height="2"></rect><rect x="80" y="34" width="4" height="2"></rect><rect x="88" y="34" width="4" height="2"></rect><rect x="96" y="34" width="4" height="2"></rect></g><path d="M 20,38 L 40,64 L 60,38 L 80,64 L 100,38" fill="none" stroke="#D4CEB8" stroke-width="3"></path><path d="M 40,38 L 20,64 M 60,38 L 40,64 M 80,38 L 60,64 M 100,38 L 80,64" fill="none" stroke="#8B7D6C" stroke-width="2"></path><rect x="16" y="64" width="96" height="4" fill="#D4CEB8"></rect><rect x="32" y="68" width="16" height="8" fill="#3B3E43"></rect><rect x="34" y="70" width="12" height="4" fill="#00E575"></rect><rect x="80" y="68" width="16" height="8" fill="#3B3E43"></rect><rect x="82" y="70" width="12" height="4" fill="#00E575"></rect><path d="M 88,76 Q 80,90 92,110" fill="none" stroke="#F98822" stroke-width="2"></path><circle cx="20" cy="64" r="8" fill="#5B7B43"></circle><circle cx="108" cy="66" r="6" fill="#5B7B43"></circle><path d="M 16,66 Q 10,80 24,96" fill="none" stroke="#5B7B43" stroke-width="3" stroke-linecap="round"></path></svg>