<?xml version="1.0" encoding="UTF-8"?>
<svg width="128" height="128" viewBox="0 0 128 128" class="block " xmlns="http://www.w3.org/2000/svg"><path d="M 20,44 Q 25,60 20,70" fill="none" stroke="#5B7B43" stroke-width="4" stroke-linecap="round"></path><rect x="12" y="32" width="56" height="12" fill="#D4CEB8"></rect><polygon points="68,32 76,40 64,44" fill="#D4CEB8"></polygon><rect x="12" y="44" width="52" height="4" fill="#8B7D6C"></rect><rect x="16" y="48" width="52" height="20" fill="#3B3E43"></rect><rect x="36" y="32" width="20" height="6" fill="#3B3E43"></rect><rect x="38" y="34" width="16" height="4" fill="#00E575"></rect><polygon points="12,48 16,48 16,68 28,68 24,76 12,68" fill="#D4CEB8"></polygon><rect x="16" y="54" width="4" height="8" fill="#F98822"></rect><polygon points="32,68 64,68 60,76 40,84" fill="#8B7D6C"></polygon><rect x="44" y="68" width="16" height="12" fill="#3B3E43"></rect><rect x="48" y="72" width="12" height="4" fill="#F98822"></rect><rect x="52" y="76" width="8" height="4" fill="#00E575"></rect><path d="M 12,28 Q 20,28 24,36 Q 16,40 12,36 Z" fill="#5B7B43"></path><path d="M 68,36 Q 76,44 72,56" fill="none" stroke="#5B7B43" stroke-width="3" stroke-linecap="round"></path><path d="M 64,44 Q 60,55 64,65" fill="none" stroke="#5B7B43" stroke-width="3" stroke-linecap="round"></path><polygon points="88,36 104,32 112,44 96,48" fill="#D4CEB8"></polygon><polygon points="96,48 112,44 108,56 92,60" fill="#3B3E43"></polygon><polygon points="96,52 104,50 100,60" fill="#8B7D6C"></polygon><polygon points="94,38 102,36 106,42 98,44" fill="#3B3E43"></polygon><polygon points="95,39 101,37 104,41 98,43" fill="#00E575"></polygon><circle cx="78" cy="52" r="4" fill="#00E575"></circle><circle cx="86" cy="62" r="2" fill="#00E575"></circle><circle cx="74" cy="66" r="2" fill="#F98822"></circle><rect x="20" y="36" width="4" height="4" fill="#8B7D6C"></rect></svg>