<?xml version="1.0" encoding="UTF-8"?>
<svg width="128" height="128" viewBox="0 0 128 128" class="block " xmlns="http://www.w3.org/2000/svg"><path d="M 20,44 Q 25,70 15,90 Q 20,110 10,128" fill="none" stroke="#5B7B43" stroke-width="5" stroke-linecap="round"></path><path d="M 108,44 Q 100,65 110,85 Q 105,105 115,120" fill="none" stroke="#5B7B43" stroke-width="4" stroke-linecap="round"></path><path d="M 50,64 Q 60,80 50,90 Q 55,100 45,110" fill="none" stroke="#5B7B43" stroke-width="3" stroke-linecap="round" opacity="0.8"></path><rect x="12" y="32" width="104" height="12" fill="#D4CEB8"></rect><rect x="12" y="44" width="104" height="4" fill="#8B7D6C"></rect><rect x="16" y="48" width="96" height="20" fill="#3B3E43"></rect><path d="M 8,36 Q 24,18 40,32 Q 56,18 72,32 Q 88,20 104,32 Q 114,24 120,38" fill="#5B7B43"></path><path d="M 12,36 Q 30,24 48,36 Q 60,26 80,36 Q 100,28 116,40" fill="#5B7B43" opacity="0.6"></path><circle cx="32" cy="28" r="3" fill="#00E575"></circle><circle cx="76" cy="30" r="4" fill="#F98822"></circle><circle cx="96" cy="26" r="2" fill="#00E575"></circle><rect x="30" y="52" width="16" height="8" fill="#D4CEB8"></rect><rect x="32" y="54" width="12" height="4" fill="#00E575"></rect><rect x="80" y="52" width="20" height="12" fill="#8B7D6C"></rect><polygon points="16,68 24,80 32,68" fill="#5B7B43"></polygon><polygon points="40,68 44,76 48,68" fill="#5B7B43"></polygon><polygon points="80,68 88,88 96,68" fill="#5B7B43"></polygon></svg>