<?xml version="1.0" encoding="UTF-8"?>
<svg width="128" height="128" viewBox="0 0 128 128" class="block " xmlns="http://www.w3.org/2000/svg"><path d="M 30,44 Q 40,70 45,90 Q 50,110 40,128" fill="none" stroke="#5B7B43" stroke-width="4" stroke-linecap="round"></path><path d="M 98,44 Q 88,70 83,90 Q 78,110 88,128" fill="none" stroke="#5B7B43" stroke-width="4" stroke-linecap="round"></path><rect x="12" y="32" width="104" height="12" fill="#D4CEB8"></rect><rect x="12" y="44" width="104" height="4" fill="#8B7D6C"></rect><rect x="24" y="48" width="80" height="48" fill="#3B3E43"></rect><polygon points="24,96 40,104 88,104 104,96" fill="#8B7D6C"></polygon><circle cx="64" cy="72" r="16" fill="#D4CEB8"></circle><circle cx="64" cy="72" r="12" fill="#00E575"></circle><circle cx="64" cy="72" r="6" fill="#FFFFFF"></circle><rect x="32" y="56" width="8" height="32" fill="#D4CEB8"></rect><rect x="88" y="56" width="8" height="32" fill="#D4CEB8"></rect><path d="M 44,72 Q 64,52 84,72" fill="none" stroke="#F98822" stroke-width="2"></path><path d="M 44,72 Q 64,92 84,72" fill="none" stroke="#F98822" stroke-width="2"></path><polygon points="12,48 16,48 16,68 28,68 24,76 12,68" fill="#D4CEB8"></polygon><polygon points="104,48 116,48 116,68 104,76 100,68" fill="#D4CEB8"></polygon><path d="M 12,28 Q 20,28 24,36 Q 16,40 12,36 Z" fill="#5B7B43"></path><path d="M 116,30 Q 108,28 104,36 Q 112,40 116,38 Z" fill="#5B7B43"></path></svg>