<?xml version="1.0" encoding="UTF-8"?>
<svg viewBox="0 0 128 128" width="100%" height="100%" xmlns="http://www.w3.org/2000/svg"><svg viewBox="0 0 128 128" width="100%" height="100%" xmlns="http://www.w3.org/2000/svg"><g id="heavy_arm_left_front"><polygon points="85,35 105,35 100,85 80,85" fill="#3B3E43"></polygon><polygon points="80,25 110,25 105,55 85,55" fill="#D4CEB8"></polygon><polygon points="85,30 100,30 95,65 80,65" fill="#22252a"></polygon></g><g id="heavy_leg_left_front"><polygon points="66,85 86,85 81,120 71,120" fill="#3B3E43"></polygon><polygon points="70,85 82,85 78,115 74,115" fill="#D4CEB8"></polygon></g><g id="heavy_body_front"><polygon points="35,30 93,30 85,85 43,85" fill="#3B3E43"></polygon><polygon points="25,25 103,25 90,55 38,55" fill="#D4CEB8"></polygon><polygon points="50,40 78,40 70,75 58,75" fill="#22252a"></polygon><polygon points="58,45 70,45 66,55 62,55" fill="#F98822"></polygon></g><g id="heavy_head_front"><polygon points="45,5 83,5 78,20 50,20" fill="#3B3E43"></polygon><polygon points="40,0 88,0 83,15 45,15" fill="#D4CEB8"></polygon><polygon points="50,8 78,8 74,15 54,15" fill="#22252a"></polygon><polygon points="55,10 73,10 70,13 58,13" fill="#00E575"></polygon></g><g id="heavy_leg_right_front"><polygon points="42,85 62,85 57,120 47,120" fill="#3B3E43"></polygon><polygon points="46,85 58,85 54,115 50,115" fill="#D4CEB8"></polygon></g><g id="heavy_arm_right_front"><polygon points="23,35 43,35 48,85 28,85" fill="#3B3E43"></polygon><polygon points="18,25 48,25 43,55 23,55" fill="#D4CEB8"></polygon><polygon points="28,30 43,30 48,65 33,65" fill="#22252a"></polygon></g></svg></svg>