<svg width="1104" height="414" viewBox="0 0 1104 414" fill="none" xmlns="http://www.w3.org/2000/svg">
<path d="M7.40571 2.19431C9.66095 0.97526 12.4648 0.24381 15.8171 0H16.0914H16.2743H16.5486H16.8229H17.0971H17.3714H17.6457H110.354C115.718 0 119.863 1.21905 122.789 3.65714L124.16 4.93717C126.598 7.74097 127.878 11.7029 128 16.8229V20.3886C127.695 9.47814 122.088 3.90095 111.177 3.65714H110.354H17.6457H16.9143C8.50286 3.84 3.23047 7.16193 1.09714 13.6229C0.426664 15.5734 0.0609524 17.8286 0 20.3886V17.6458V17.1886V16.7315C0 15.6343 0.0914314 14.5981 0.274289 13.6229L0.457143 12.8L0.54857 11.9771L0.639997 11.7943C1.00571 10.0876 1.55429 8.56383 2.28571 7.22288L3.65714 5.3029L5.30286 3.65714L7.40571 2.19431Z" fill="#93A3A3"/>
<path d="M0 20.3887C0.0609524 17.8287 0.426664 15.5734 1.09714 13.623C3.23047 7.16201 8.50286 3.84008 16.9143 3.65723H17.6457H110.354H111.177C122.088 3.90104 127.695 9.47822 128 20.3887V35.3829C127.817 41.0515 124.77 43.8858 118.857 43.8858H73.1429C70.8876 43.8858 69.059 43.4896 67.6571 42.6972C65.28 41.2953 64.061 38.7354 64 35.0173C63.8781 40.9297 60.8305 43.8858 54.8571 43.8858H9.14286C3.23048 43.8858 0.182857 41.0515 0 35.3829V20.3887Z" fill="#869595"/>
<path d="M128 35.3827V44.4342C127.817 50.1637 124.77 53.0285 118.857 53.0285H73.1429C67.1695 53.0285 64.1219 50.0723 64 44.1599C63.8781 50.0723 60.8305 53.0285 54.8571 53.0285H40.2286H14.6286H9.14286C3.23048 53.0285 0.182857 50.1637 0 44.4342V35.3827C0.182857 41.0513 3.23048 43.8856 9.14286 43.8856H54.8571C60.8305 43.8856 63.8781 40.9295 64 35.0171C64.061 38.7352 65.28 41.2951 67.6571 42.697C69.059 43.4894 70.8876 43.8856 73.1429 43.8856H118.857C124.77 43.8856 127.817 41.0513 128 35.3827ZM18.3771 67.657H25.4171C29.1962 67.657 31.0857 69.5161 31.0857 73.2342V80.2742C31.0857 84.0533 29.1962 85.9428 25.4171 85.9428H18.3771C14.659 85.9428 12.8 84.0533 12.8 80.2742V73.2342C12.8 69.5161 14.659 67.657 18.3771 67.657ZM84.1143 83.9314C84.1143 79.1771 86.4914 76.7999 91.2457 76.7999H104.32C109.135 76.7999 111.543 79.1771 111.543 83.9314V97.097C111.543 101.851 109.135 104.228 104.32 104.228H91.2457C86.4914 104.228 84.1143 101.851 84.1143 97.097V83.9314Z" fill="#A1B1B1"/>
<path d="M40.2286 53.0288V56.5945C40.2286 61.5317 37.7295 64.0002 32.7314 64.0002H22.0343C17.0971 64.0002 14.6286 61.5317 14.6286 56.5945V53.0288H40.2286ZM62.9029 91.3374H74.3314C78.4152 91.3374 80.4571 93.4097 80.4571 97.5545V108.892C80.4571 113.037 78.4152 115.109 74.3314 115.109H62.9029C58.7581 115.109 56.6857 113.037 56.6857 108.892V97.5545C56.6857 93.4097 58.7581 91.3374 62.9029 91.3374Z" fill="#BBCBCC"/>
<path d="M62.9029 91.3368C58.7581 91.3368 56.6857 93.4091 56.6857 97.5539V108.891C56.6857 113.036 58.7581 115.108 62.9029 115.108H74.3314C78.4152 115.108 80.4571 113.036 80.4571 108.891V97.5539C80.4571 93.4091 78.4152 91.3368 74.3314 91.3368H62.9029ZM128 44.4339V111.268V112.457L127.817 114.285C127.39 117.394 126.415 120.015 124.891 122.148L122.606 124.525C119.68 126.841 115.596 128 110.354 128H17.6457C12.4038 128 8.32 126.841 5.39429 124.525L3.2 122.24C1.18857 119.497 0.121905 115.84 0 111.268V44.4339C0.182857 50.1634 3.23048 53.0282 9.14286 53.0282H14.6286V56.5939C14.6286 61.5311 17.0971 63.9996 22.0343 63.9996H32.7314C37.7295 63.9996 40.2286 61.5311 40.2286 56.5939V53.0282H54.8571C60.8305 53.0282 63.8781 50.072 64 44.1597C64.1219 50.072 67.1695 53.0282 73.1429 53.0282H118.857C124.77 53.0282 127.817 50.1634 128 44.4339ZM18.3771 67.6568C14.659 67.6568 12.8 69.5158 12.8 73.2339V80.274C12.8 84.053 14.659 85.9425 18.3771 85.9425H25.4171C29.1962 85.9425 31.0857 84.053 31.0857 80.274V73.2339C31.0857 69.5158 29.1962 67.6568 25.4171 67.6568H18.3771ZM84.1143 83.9311V97.0967C84.1143 101.851 86.4914 104.228 91.2457 104.228H104.32C109.135 104.228 111.543 101.851 111.543 97.0967V83.9311C111.543 79.1768 109.135 76.7996 104.32 76.7996H91.2457C86.4914 76.7996 84.1143 79.1768 84.1143 83.9311Z" fill="#ACC0C1"/>
<path d="M7.40572 2.19385L5.30287 3.65668L3.65715 5.30244C4.63239 4.02244 5.88191 2.98623 7.40572 2.19385Z" fill="#CFDADA"/>
<path d="M145.406 2.19431C147.661 0.97526 150.465 0.24381 153.817 0H154.091H154.274H154.549H154.823H155.097H155.371H155.646H266V3.65714H155.646H154.914C146.503 3.84 141.23 7.16193 139.097 13.6229C138.427 15.5734 138.061 17.8286 138 20.3886V17.6458V17.1886V16.7315C138 15.6343 138.091 14.5981 138.274 13.6229L138.457 12.8L138.549 11.9771L138.64 11.7943C139.006 10.0876 139.554 8.56383 140.286 7.22288L141.657 5.3029L143.303 3.65714L145.406 2.19431Z" fill="#93A3A3"/>
<path d="M138 20.3887C138.061 17.8287 138.427 15.5734 139.097 13.623C141.23 7.16201 146.503 3.84008 154.914 3.65723H155.646H266V35.3829C265.817 41.0515 262.77 43.8858 256.857 43.8858H211.143C208.888 43.8858 207.059 43.4896 205.657 42.6972C203.28 41.2953 202.061 38.7354 202 35.0173C201.878 40.9297 198.83 43.8858 192.857 43.8858H147.143C141.23 43.8858 138.183 41.0515 138 35.3829V20.3887Z" fill="#869595"/>
<path d="M266 35.3827V44.4342C265.817 50.1637 262.77 53.0285 256.857 53.0285H211.143C205.17 53.0285 202.122 50.0723 202 44.1599C201.878 50.0723 198.83 53.0285 192.857 53.0285H178.229H152.629H147.143C141.23 53.0285 138.183 50.1637 138 44.4342V35.3827C138.183 41.0513 141.23 43.8856 147.143 43.8856H192.857C198.83 43.8856 201.878 40.9295 202 35.0171C202.061 38.7352 203.28 41.2951 205.657 42.697C207.059 43.4894 208.888 43.8856 211.143 43.8856H256.857C262.77 43.8856 265.817 41.0513 266 35.3827ZM229.246 76.7999H242.32C247.135 76.7999 249.543 79.1771 249.543 83.9314V97.097C249.543 101.851 247.135 104.228 242.32 104.228H229.246C224.491 104.228 222.114 101.851 222.114 97.097V83.9314C222.114 79.1771 224.491 76.7999 229.246 76.7999ZM156.377 67.657H163.417C167.196 67.657 169.086 69.5161 169.086 73.2342V80.2742C169.086 84.0533 167.196 85.9428 163.417 85.9428H156.377C152.659 85.9428 150.8 84.0533 150.8 80.2742V73.2342C150.8 69.5161 152.659 67.657 156.377 67.657Z" fill="#A1B1B1"/>
<path d="M156.377 67.6568C152.659 67.6568 150.8 69.5158 150.8 73.2339V80.274C150.8 84.053 152.659 85.9425 156.377 85.9425H163.417C167.196 85.9425 169.086 84.053 169.086 80.274V73.2339C169.086 69.5158 167.196 67.6568 163.417 67.6568H156.377ZM266 44.4339V111.268V112.457V128H155.646C150.404 128 146.32 126.841 143.394 124.525L141.2 122.24C139.189 119.497 138.122 115.84 138 111.268V44.4339C138.183 50.1634 141.23 53.0282 147.143 53.0282H152.629V56.5939C152.629 61.5311 155.097 63.9996 160.034 63.9996H170.731C175.73 63.9996 178.229 61.5311 178.229 56.5939V53.0282H192.857C198.83 53.0282 201.878 50.072 202 44.1597C202.122 50.072 205.17 53.0282 211.143 53.0282H256.857C262.77 53.0282 265.817 50.1634 266 44.4339ZM229.246 76.7996C224.491 76.7996 222.114 79.1768 222.114 83.9311V97.0967C222.114 101.851 224.491 104.228 229.246 104.228H242.32C247.135 104.228 249.543 101.851 249.543 97.0967V83.9311C249.543 79.1768 247.135 76.7996 242.32 76.7996H229.246ZM200.903 91.3368C196.758 91.3368 194.686 93.4091 194.686 97.5539V108.891C194.686 113.036 196.758 115.108 200.903 115.108H212.331C216.415 115.108 218.457 113.036 218.457 108.891V97.5539C218.457 93.4091 216.415 91.3368 212.331 91.3368H200.903Z" fill="#ACC0C1"/>
<path d="M200.903 91.3374H212.331C216.415 91.3374 218.457 93.4097 218.457 97.5545V108.892C218.457 113.037 216.415 115.109 212.331 115.109H200.903C196.758 115.109 194.686 113.037 194.686 108.892V97.5545C194.686 93.4097 196.758 91.3374 200.903 91.3374ZM178.229 53.0288V56.5945C178.229 61.5317 175.73 64.0002 170.731 64.0002H160.034C155.097 64.0002 152.629 61.5317 152.629 56.5945V53.0288H178.229Z" fill="#BBCBCC"/>
<path d="M145.406 2.19385L143.303 3.65668L141.657 5.30244C142.632 4.02244 143.882 2.98623 145.406 2.19385Z" fill="#CFDADA"/>
<path d="M276 35.3827C276.183 41.0513 279.23 43.8856 285.143 43.8856H330.857C336.83 43.8856 339.878 40.9295 340 35.0171C340.061 38.7352 341.28 41.2951 343.657 42.697C345.059 43.4894 346.888 43.8856 349.143 43.8856H394.857C400.77 43.8856 403.817 41.0513 404 35.3827V44.4342C403.817 50.1637 400.77 53.0285 394.857 53.0285H349.143C343.17 53.0285 340.122 50.0723 340 44.1599C339.878 50.0723 336.83 53.0285 330.857 53.0285H316.229H290.629H285.143C279.23 53.0285 276.183 50.1637 276 44.4342V35.3827ZM380.32 76.7999C385.135 76.7999 387.543 79.1771 387.543 83.9314V97.097C387.543 101.851 385.135 104.228 380.32 104.228H367.246C362.491 104.228 360.114 101.851 360.114 97.097V83.9314C360.114 79.1771 362.491 76.7999 367.246 76.7999H380.32ZM294.377 67.657H301.417C305.196 67.657 307.086 69.5161 307.086 73.2342V80.2742C307.086 84.0533 305.196 85.9428 301.417 85.9428H294.377C290.659 85.9428 288.8 84.0533 288.8 80.2742V73.2342C288.8 69.5161 290.659 67.657 294.377 67.657Z" fill="#A1B1B1"/>
<path d="M294.377 67.6568C290.659 67.6568 288.8 69.5158 288.8 73.2339V80.274C288.8 84.053 290.659 85.9425 294.377 85.9425H301.417C305.196 85.9425 307.086 84.053 307.086 80.274V73.2339C307.086 69.5158 305.196 67.6568 301.417 67.6568H294.377ZM276 44.4339C276.183 50.1634 279.23 53.0282 285.143 53.0282H290.629V56.5939C290.629 61.5311 293.097 63.9996 298.034 63.9996H308.731C313.73 63.9996 316.229 61.5311 316.229 56.5939V53.0282H330.857C336.83 53.0282 339.878 50.072 340 44.1597C340.122 50.072 343.17 53.0282 349.143 53.0282H394.857C400.77 53.0282 403.817 50.1634 404 44.4339V111.268V112.457V128H276V44.4339ZM380.32 76.7996H367.246C362.491 76.7996 360.114 79.1768 360.114 83.9311V97.0967C360.114 101.851 362.491 104.228 367.246 104.228H380.32C385.135 104.228 387.543 101.851 387.543 97.0967V83.9311C387.543 79.1768 385.135 76.7996 380.32 76.7996ZM338.903 91.3368C334.758 91.3368 332.686 93.4091 332.686 97.5539V108.891C332.686 113.036 334.758 115.108 338.903 115.108H350.331C354.415 115.108 356.457 113.036 356.457 108.891V97.5539C356.457 93.4091 354.415 91.3368 350.331 91.3368H338.903Z" fill="#ACC0C1"/>
<path d="M404 35.3829C403.817 41.0515 400.77 43.8858 394.857 43.8858H349.143C346.888 43.8858 345.059 43.4896 343.657 42.6972C341.28 41.2953 340.061 38.7354 340 35.0173C339.878 40.9297 336.83 43.8858 330.857 43.8858H285.143C279.23 43.8858 276.183 41.0515 276 35.3829V17.6458V17.1887V3.65723H404V35.3829Z" fill="#869595"/>
<path d="M404 3.65714H276V0H404V3.65714Z" fill="#93A3A3"/>
<path d="M290.629 53.0288H316.229V56.5945C316.229 61.5317 313.73 64.0002 308.731 64.0002H298.034C293.097 64.0002 290.629 61.5317 290.629 56.5945V53.0288ZM338.903 91.3374H350.331C354.415 91.3374 356.457 93.4097 356.457 97.5545V108.892C356.457 113.037 354.415 115.109 350.331 115.109H338.903C334.758 115.109 332.686 113.037 332.686 108.892V97.5545C332.686 93.4097 334.758 91.3374 338.903 91.3374Z" fill="#BBCBCC"/>
<path d="M414 3.65714V0H524.354L528.286 0.27433H528.469C531.882 0.761949 534.655 1.88952 536.789 3.65714C538.8 5.36381 540.232 7.64952 541.086 10.5143C541.634 12.3429 541.939 14.4457 542 16.8229V20.3886C541.695 9.47814 536.088 3.90095 525.177 3.65714H431.646H430.914H414Z" fill="#93A3A3"/>
<path d="M542 35.3827V44.4342C541.817 50.1637 538.77 53.0285 532.857 53.0285H487.143C481.17 53.0285 478.122 50.0723 478 44.1599C477.878 50.0723 474.83 53.0285 468.857 53.0285H454.229H428.629H423.143C417.23 53.0285 414.183 50.1637 414 44.4342V35.3827C414.183 41.0513 417.23 43.8856 423.143 43.8856H468.857C474.83 43.8856 477.878 40.9295 478 35.0171C478.061 38.7352 479.28 41.2951 481.657 42.697C483.059 43.4894 484.888 43.8856 487.143 43.8856H532.857C538.77 43.8856 541.817 41.0513 542 35.3827ZM505.246 76.7999H518.32C523.135 76.7999 525.543 79.1771 525.543 83.9314V97.097C525.543 101.851 523.135 104.228 518.32 104.228H505.246C500.491 104.228 498.114 101.851 498.114 97.097V83.9314C498.114 79.1771 500.491 76.7999 505.246 76.7999ZM432.377 67.657H439.417C443.196 67.657 445.086 69.5161 445.086 73.2342V80.2742C445.086 84.0533 443.196 85.9428 439.417 85.9428H432.377C428.659 85.9428 426.8 84.0533 426.8 80.2742V73.2342C426.8 69.5161 428.659 67.657 432.377 67.657Z" fill="#A1B1B1"/>
<path d="M414 3.65723H430.914H431.646H525.177C536.088 3.90104 541.695 9.47822 542 20.3887V35.3829C541.817 41.0515 538.77 43.8858 532.857 43.8858H487.143C484.888 43.8858 483.059 43.4896 481.657 42.6972C479.28 41.2953 478.061 38.7354 478 35.0173C477.878 40.9297 474.83 43.8858 468.857 43.8858H423.143C417.23 43.8858 414.183 41.0515 414 35.3829V17.6458V17.1887V3.65723Z" fill="#869595"/>
<path d="M542 44.4339V111.268V112.457L541.817 114.285C541.39 117.394 540.415 120.015 538.891 122.148L536.606 124.525C533.68 126.841 529.596 128 524.354 128H414V44.4339C414.183 50.1634 417.23 53.0282 423.143 53.0282H428.629V56.5939C428.629 61.5311 431.097 63.9996 436.034 63.9996H446.731C451.73 63.9996 454.229 61.5311 454.229 56.5939V53.0282H468.857C474.83 53.0282 477.878 50.072 478 44.1597C478.122 50.072 481.17 53.0282 487.143 53.0282H532.857C538.77 53.0282 541.817 50.1634 542 44.4339ZM505.246 76.7996C500.491 76.7996 498.114 79.1768 498.114 83.9311V97.0967C498.114 101.851 500.491 104.228 505.246 104.228H518.32C523.135 104.228 525.543 101.851 525.543 97.0967V83.9311C525.543 79.1768 523.135 76.7996 518.32 76.7996H505.246ZM432.377 67.6568C428.659 67.6568 426.8 69.5158 426.8 73.2339V80.274C426.8 84.053 428.659 85.9425 432.377 85.9425H439.417C443.196 85.9425 445.086 84.053 445.086 80.274V73.2339C445.086 69.5158 443.196 67.6568 439.417 67.6568H432.377ZM476.903 91.3368C473.794 91.3368 471.844 92.5254 471.051 94.9025L470.686 97.5539V108.891C470.686 113.036 472.758 115.108 476.903 115.108H488.331C492.415 115.108 494.457 113.036 494.457 108.891V97.5539L494.091 94.9025C493.36 92.5254 491.44 91.3368 488.331 91.3368H476.903Z" fill="#ACC0C1"/>
<path d="M476.903 91.3374H488.331C491.44 91.3374 493.36 92.526 494.091 94.9031L494.457 97.5545V108.892C494.457 113.037 492.415 115.109 488.331 115.109H476.903C472.758 115.109 470.686 113.037 470.686 108.892V97.5545L471.051 94.9031C471.844 92.526 473.794 91.3374 476.903 91.3374ZM454.229 53.0288V56.5945C454.229 61.5317 451.73 64.0002 446.731 64.0002H436.034C431.097 64.0002 428.629 61.5317 428.629 56.5945V53.0288H454.229Z" fill="#BBCBCC"/>
<path d="M559.406 2.1208C561.661 0.942589 564.465 0.235642 567.817 0H568.091H568.274H568.549H568.823H569.097H569.371H569.646H662.354C667.718 0 671.863 1.17821 674.789 3.53463L676.16 4.77177C678.598 7.48165 679.878 11.3108 680 16.2593V19.7056C679.695 9.16063 674.088 3.77027 663.177 3.53463H662.354H569.646H568.914C560.503 3.71136 555.23 6.92201 553.097 13.1665C552.427 15.0517 552.061 17.2314 552 19.7056V17.0546V16.6128V16.171C552 15.1106 552.091 14.1091 552.274 13.1665L552.457 12.3712L552.549 11.5759L552.64 11.3992C553.006 9.74971 553.554 8.27695 554.286 6.98092L555.657 5.12526L557.303 3.53463L559.406 2.1208Z" fill="#93A3A3"/>
<path d="M552 19.7052C552.061 17.2309 552.427 15.0512 553.097 13.1661C555.23 6.92155 560.503 3.71091 568.914 3.53418H569.646H662.354H663.177C674.088 3.76982 679.695 9.16018 680 19.7052V34.1971C679.817 39.6757 676.77 42.4151 670.857 42.4151H625.143C622.888 42.4151 621.059 42.0321 619.657 41.2663C617.28 39.9114 616.061 37.4372 616 33.8437C615.878 39.558 612.83 42.4151 606.857 42.4151H561.143C555.23 42.4151 552.183 39.6757 552 34.1971V19.7052Z" fill="#869595"/>
<path d="M680 34.1976V42.9458C679.817 48.4834 676.77 51.2522 670.857 51.2522H625.143C619.17 51.2522 616.122 48.3951 616 42.6808C615.878 48.3951 612.83 51.2522 606.857 51.2522H592.229H566.629H561.143C555.23 51.2522 552.183 48.4834 552 42.9458V34.1976C552.183 39.6763 555.23 42.4157 561.143 42.4157H606.857C612.83 42.4157 615.878 39.5586 616 33.8442C616.061 37.4378 617.28 39.9119 619.657 41.2669C621.059 42.0327 622.888 42.4157 625.143 42.4157H670.857C676.77 42.4157 679.817 39.6763 680 34.1976ZM568.731 82.9756L566.72 80.5013L564.8 78.0271V77.5853V70.7811C564.8 67.1875 566.659 65.3908 570.377 65.3908H577.417C581.196 65.3908 583.086 67.1875 583.086 70.7811V77.5853C583.086 81.2377 581.196 83.0639 577.417 83.0639H570.377L568.731 82.9756ZM636.114 93.8445V81.1199C636.114 76.5249 638.491 74.2273 643.246 74.2273H656.32C661.135 74.2273 663.543 76.5249 663.543 81.1199V93.8445C663.543 98.4395 661.135 100.737 656.32 100.737H643.246C638.491 100.737 636.114 98.4395 636.114 93.8445Z" fill="#A1B1B1"/>
<path d="M614.446 111.252C612.556 111.193 611.154 110.693 610.24 109.75C609.204 108.749 608.686 107.246 608.686 105.244V94.286C608.686 90.2801 610.758 88.2772 614.903 88.2772H626.331C630.415 88.2772 632.457 90.2801 632.457 94.286V105.244C632.457 109.249 630.415 111.252 626.331 111.252H614.903H614.446ZM592.229 51.252V54.6982C592.229 59.47 589.729 61.8558 584.731 61.8558H574.034C569.097 61.8558 566.629 59.47 566.629 54.6982V51.252H592.229Z" fill="#BBCBCC"/>
<path d="M592.229 51.2521H606.857C612.83 51.2521 615.878 48.395 616 42.6807C616.122 48.395 619.17 51.2521 625.143 51.2521H670.857C676.77 51.2521 679.817 48.4833 680 42.9457V107.541V108.69L679.817 110.457C679.39 113.462 678.415 115.995 676.891 118.057L674.606 120.354C673.265 121.414 671.68 122.21 669.851 122.74C659.307 121.621 649.493 120.119 640.411 118.233H640.229L632.549 116.466H632.274L614.446 111.252H614.903H626.331C630.415 111.252 632.457 109.25 632.457 105.244V94.2862C632.457 90.2803 630.415 88.2774 626.331 88.2774H614.903C610.758 88.2774 608.686 90.2803 608.686 94.2862V105.244C608.686 107.247 609.204 108.749 610.24 109.75L607.771 108.778L607.497 108.69C590.918 102.092 577.996 93.5204 568.731 82.9754L570.377 83.0638H577.417C581.196 83.0638 583.086 81.2376 583.086 77.5851V70.7809C583.086 67.1874 581.196 65.3906 577.417 65.3906H570.377C566.659 65.3906 564.8 67.1874 564.8 70.7809V77.5851V78.027C561.57 73.4909 558.918 68.6602 556.846 63.535L556.754 63.4466C554.316 57.261 552.731 50.6924 552 43.741V42.9457C552.183 48.4833 555.23 51.2521 561.143 51.2521H566.629V54.6984C566.629 59.4701 569.097 61.856 574.034 61.856H584.731C589.73 61.856 592.229 59.4701 592.229 54.6984V51.2521ZM636.114 93.8443C636.114 98.4394 638.491 100.737 643.246 100.737H656.32C661.135 100.737 663.543 98.4394 663.543 93.8443V81.1198C663.543 76.5247 661.135 74.2272 656.32 74.2272H643.246C638.491 74.2272 636.114 76.5247 636.114 81.1198V93.8443Z" fill="#ACC0C1"/>
<path d="M559.406 2.11963L557.303 3.53346L555.657 5.12409C556.632 3.88697 557.882 2.88547 559.406 2.11963Z" fill="#CFDADA"/>
<path d="M690 17.6458V17.1886V0H690.183V3.65714V17.6458H690L690.183 18.7429V32.2743V39.5886L704.608 54.0343V56.5943C704.608 61.5315 707.073 64 712.003 64H714.559L719.398 68.8458C718.485 68.0534 717.146 67.6571 715.381 67.6571H708.351C704.638 67.6571 702.782 69.5162 702.782 73.2343V80.2743C702.782 84.0534 704.638 85.9429 708.351 85.9429H715.381C719.155 85.9429 721.041 84.0534 721.041 80.2743V73.2343C721.041 71.5276 720.676 70.2476 719.946 69.3943L746.696 96.1828L746.605 97.5542V108.892C746.605 113.036 748.674 115.108 752.813 115.108H764.225L765.504 115.017L778.468 128H690V17.6458Z" fill="#ACC0C1"/>
<path d="M690.183 3.65714V0L714.012 24.0458L716.477 26.5143L719.49 29.44L818 128H814.348L690.183 3.65714Z" fill="#93A3A3"/>
<path d="M690.183 3.65723L814.348 128H785.772L690.183 32.2744V18.7429V17.6458V3.65723Z" fill="#869595"/>
<path d="M746.696 96.1822L765.504 115.017L764.225 115.108H752.813C748.674 115.108 746.605 113.036 746.605 108.891V97.5537L746.696 96.1822ZM714.559 63.9994H712.003C707.073 63.9994 704.608 61.5309 704.608 56.5937V54.0337L714.559 63.9994Z" fill="#BBCBCC"/>
<path d="M714.559 63.9996L704.608 54.0339L690.183 39.5882V32.2739L785.772 128H778.468L765.504 115.017L746.696 96.1824L719.946 69.3939C720.676 70.2472 721.042 71.5272 721.042 73.2339V80.2739C721.042 84.053 719.155 85.9425 715.381 85.9425H708.351C704.638 85.9425 702.782 84.053 702.782 80.2739V73.2339C702.782 69.5158 704.638 67.6567 708.351 67.6567H715.381C717.146 67.6567 718.485 68.053 719.398 68.8454L714.559 63.9996Z" fill="#A1B1B1"/>
<path d="M690 17.6455H690.183V18.7426L690 17.6455Z" fill="#93DB24"/>
<path d="M904.051 91.5194L911.994 83.4738V83.931V97.0965C911.994 101.851 914.368 104.228 919.115 104.228H932.171C936.979 104.228 939.383 101.851 939.383 97.0965V83.931C939.383 79.1767 936.979 76.7995 932.171 76.7995H919.115H918.659L955.817 39.5884V111.268V112.456V127.999H867.532L884.787 110.719C885.335 113.645 887.344 115.108 890.813 115.108H902.225C906.303 115.108 908.342 113.036 908.342 108.891V97.5537C908.342 94.0794 906.912 92.068 904.051 91.5194Z" fill="#ACC0C1"/>
<path d="M904.051 91.5192L884.787 110.719L867.532 127.999H860.228L955.817 32.2739V39.5882L918.659 76.7993H919.115H932.171C936.979 76.7993 939.383 79.1765 939.383 83.9308V97.0963C939.383 101.851 936.979 104.228 932.171 104.228H919.115C914.368 104.228 911.994 101.851 911.994 97.0963V83.9308V83.4736L904.051 91.5192Z" fill="#A1B1B1"/>
<path d="M831.652 127.999H828L926.51 29.4398L929.523 26.5141L931.988 24.0456L955.817 0V3.65712L831.652 127.999Z" fill="#93A3A3"/>
<path d="M904.051 91.519C906.912 92.0676 908.342 94.079 908.342 97.5533V108.89C908.342 113.035 906.303 115.107 902.225 115.107H890.813C887.344 115.107 885.335 113.645 884.787 110.719L904.051 91.519Z" fill="#BBCBCC"/>
<path d="M955.817 32.2742L860.228 127.999H831.652L955.817 3.65723V17.6458V18.7429V32.2742Z" fill="#869595"/>
<path d="M955.817 17.6455H956L955.817 18.7426V17.6455Z" fill="#93DB24"/>
<path d="M966 20.48V17.7372V17.28V16.8229C966 15.7257 966.092 14.6895 966.275 13.7143L966.457 12.8914L966.549 12.0685L966.64 11.8857C967.372 8.41143 968.926 5.69903 971.303 3.74855C974.168 1.2495 978.282 0 983.646 0H1076.35L1080.29 0.27433H1080.47C1083.88 0.761949 1086.66 1.91998 1088.79 3.74855C1090.8 5.45522 1092.23 7.74093 1093.09 10.6057C1093.63 12.4343 1093.94 14.5371 1094 16.9143V20.48C1093.7 9.56955 1088.09 3.99236 1077.18 3.74855H983.646H982.915C974.503 3.93141 969.231 7.25333 967.097 13.7143C966.427 15.6648 966.061 17.92 966 20.48Z" fill="#93A3A3"/>
<path d="M966 20.4795C966.061 17.9195 966.427 15.6643 967.097 13.7138C969.231 7.25283 974.503 3.9309 982.915 3.74805H983.646H1077.18C1088.09 3.99186 1093.7 9.56904 1094 20.4795V35.4738C1093.82 41.2034 1090.77 44.068 1084.86 44.068H1039.14C1036.89 44.068 1035.06 43.6719 1033.66 42.8795C1031.28 41.4776 1030.06 38.8871 1030 35.1081C1029.88 41.0814 1026.83 44.068 1020.86 44.068H975.143C969.231 44.068 966.183 41.2034 966 35.4738V20.4795Z" fill="#869595"/>
<path d="M1094 35.4736V44.6165C1093.88 49.1879 1091.93 51.9308 1088.15 52.8451L1084.86 53.2107H1039.14C1033.17 53.2107 1030.12 50.2546 1030 44.3422C1029.88 49.645 1027.44 52.5707 1022.69 53.1193L1020.86 53.2107H1006.23H980.629H975.143L971.852 52.8451C968.073 51.9308 966.122 49.1879 966 44.6165V35.4736C966.183 41.2032 969.231 44.0678 975.143 44.0678H1020.86C1026.83 44.0678 1029.88 41.0812 1030 35.1079C1030.06 38.887 1031.28 41.4774 1033.66 42.8793C1035.06 43.6717 1036.89 44.0678 1039.14 44.0678H1084.86C1090.77 44.0678 1093.82 41.2032 1094 35.4736ZM997.086 73.1422H978.8V72.7764C979.044 69.485 980.903 67.8393 984.377 67.8393H991.417C995.075 67.8393 996.964 69.6069 997.086 73.1422Z" fill="#A1B1B1"/>
<path d="M997.086 73.1428C996.964 69.6075 995.075 67.8399 991.417 67.8399H984.377C980.903 67.8399 979.044 69.4856 978.8 72.777C975.814 72.2285 973.345 71.1923 971.395 69.6684L969.2 67.3827C967.189 64.6399 966.122 60.9827 966 56.4113V44.6171C966.122 49.1885 968.073 51.9314 971.852 52.8457L975.143 53.2113H980.629V56.777C980.629 61.7142 983.097 64.1827 988.035 64.1827H998.732C1003.73 64.1827 1006.23 61.7142 1006.23 56.777V53.2113H1020.86L1022.69 53.1199C1027.44 52.5713 1029.88 49.6456 1030 44.3428C1030.12 50.2552 1033.17 53.2113 1039.14 53.2113H1084.86L1088.15 52.8457C1091.93 51.9314 1093.88 49.1885 1094 44.6171V56.4113V57.5999L1093.82 59.4285C1093.39 62.5371 1092.42 65.158 1090.89 67.2913L1088.61 69.6684C1085.68 71.9846 1081.6 73.1428 1076.35 73.1428H997.086Z" fill="#ACC0C1"/>
<path d="M1006.23 53.2109V56.7767C1006.23 61.7138 1003.73 64.1824 998.732 64.1824H988.034C983.097 64.1824 980.629 61.7138 980.629 56.7767V53.2109H1006.23Z" fill="#BBCBCC"/>
<path d="M128 173.474C127.817 179.203 124.77 182.068 118.857 182.068H73.1429C70.8876 182.068 69.059 181.672 67.6571 180.88C65.28 179.478 64.061 176.887 64 173.108C63.8781 179.081 60.8305 182.068 54.8571 182.068H9.14286C3.23048 182.068 0.182857 179.203 0 173.474V158.48C0.0609524 155.92 0.426622 153.664 1.0971 151.714C3.23043 145.253 8.50286 141.931 16.9143 141.748H17.6458H128V173.474Z" fill="#869595"/>
<path d="M128 173.474V182.617C127.878 187.188 125.928 189.931 122.149 190.845L118.857 191.211H73.1429C67.1695 191.211 64.1219 188.255 64 182.342C63.8781 187.645 61.44 190.571 56.6857 191.119L54.8571 191.211H40.2286H14.6286H9.14286L5.85145 190.845C2.0724 189.931 0.121905 187.188 0 182.617V173.474C0.182857 179.203 3.23048 182.068 9.14286 182.068H54.8571C60.8305 182.068 63.8781 179.081 64 173.108C64.061 176.887 65.28 179.477 67.6571 180.879C69.059 181.672 70.8876 182.068 73.1429 182.068H118.857C124.77 182.068 127.817 179.203 128 173.474ZM12.8 210.776C13.0438 207.485 14.9028 205.839 18.3771 205.839H25.4172C29.0743 205.839 30.9638 207.607 31.0857 211.142H12.8V210.776Z" fill="#A1B1B1"/>
<path d="M12.8 210.777C9.81333 210.228 7.34478 209.192 5.39431 207.668L3.2 205.383C1.18857 202.64 0.121905 198.983 0 194.411V182.617C0.121905 187.189 2.0724 189.931 5.85145 190.846L9.14286 191.211H14.6286V194.777C14.6286 199.714 17.0971 202.183 22.0343 202.183H32.7315C37.7296 202.183 40.2286 199.714 40.2286 194.777V191.211H54.8571L56.6857 191.12C61.44 190.571 63.8781 187.646 64 182.343C64.1219 188.255 67.1695 191.211 73.1429 191.211H118.857L122.149 190.846C125.928 189.931 127.878 187.189 128 182.617V211.143H31.0857C30.9638 207.608 29.0743 205.84 25.4172 205.84H18.3771C14.9028 205.84 13.0438 207.486 12.8 210.777Z" fill="#ACC0C1"/>
<path d="M14.6286 191.211H40.2286V194.777C40.2286 199.714 37.7296 202.182 32.7315 202.182H22.0343C17.0971 202.182 14.6286 199.714 14.6286 194.777V191.211Z" fill="#BBCBCC"/>
<path d="M128 141.749H17.6458H16.9143C8.50286 141.931 3.23043 145.253 1.0971 151.714C0.426622 153.665 0.0609524 155.92 0 158.48V155.737V155.28V154.823C0 153.726 0.0914732 152.69 0.27433 151.714L0.457143 150.891L0.548549 150.069L0.639955 149.886C1.37138 146.411 2.92576 143.699 5.3029 141.749C8.16766 139.25 12.2819 138 17.6458 138H128V141.749Z" fill="#93A3A3"/>
<path d="M138.046 148.971C138.107 145.985 139.173 143.425 141.246 141.291C143.44 139.097 146.092 138 149.2 138C152.309 138 154.93 139.097 157.063 141.291C159.196 143.425 160.294 145.985 160.354 148.971H159.714C159.166 147.509 158.282 146.168 157.063 144.949C154.93 142.754 152.309 141.657 149.2 141.657C146.092 141.657 143.44 142.754 141.246 144.949C140.088 146.168 139.234 147.509 138.686 148.971H138.046Z" fill="#CFDADA"/>
<path d="M160.354 148.971C175.714 165.855 191.989 171.249 209.177 165.154C226 159.181 242.64 167.013 259.097 188.651V192.308L257.634 190.48C241.665 170.244 225.512 163.021 209.177 168.811C191.989 174.906 175.714 169.512 160.354 152.628V148.971Z" fill="#FEE481"/>
<path d="M259.097 192.308C244.469 191.516 229.078 197.154 212.926 209.223C193.482 223.79 175.958 226.107 160.354 216.171V152.628C175.714 169.512 191.989 174.906 209.177 168.811C225.512 163.021 241.665 170.244 257.634 190.48L259.097 192.308Z" fill="#FFCC00"/>
<path d="M138.046 148.972H138.686C139.234 147.509 140.088 146.168 141.246 144.949C143.44 142.754 146.092 141.657 149.2 141.657C152.309 141.657 154.93 142.754 157.063 144.949C158.282 146.168 159.166 147.509 159.714 148.972H160.354V152.629V216.172V266H138.046V148.972Z" fill="#ACC0C1"/>
<path d="M279.657 143.303L281.303 141.657L283.406 140.194C285.661 138.975 288.465 138.244 291.817 138H292.091H292.274H292.549H292.823H293.097H293.371H293.646H386.354C391.718 138 395.863 139.219 398.789 141.657L400.16 142.937C402.598 145.741 403.878 149.703 404 154.823V158.389C403.695 147.478 398.088 141.901 387.177 141.657H386.354H293.646H292.914C284.503 141.84 279.23 145.162 277.097 151.623C276.427 153.573 276.061 155.829 276 158.389V155.646V155.189V154.731C276 153.634 276.091 152.598 276.274 151.623L276.457 150.8L276.549 149.977L276.64 149.794C277.006 148.088 277.554 146.564 278.286 145.223L279.657 143.303Z" fill="#93A3A3"/>
<path d="M279.657 143.303C280.632 142.023 281.882 140.986 283.406 140.194L281.303 141.657L279.657 143.303Z" fill="#CFDADA"/>
<path d="M404 158.389V173.383C403.817 179.051 400.77 181.886 394.857 181.886H349.143C346.888 181.886 345.059 181.49 343.657 180.697C341.28 179.295 340.061 176.735 340 173.017C339.878 178.93 336.83 181.886 330.857 181.886H285.143C279.23 181.886 276.183 179.051 276 173.383V158.389C276.061 155.829 276.427 153.573 277.097 151.623C279.23 145.162 284.503 141.84 292.914 141.657H293.646H386.354H387.177C398.088 141.901 403.695 147.478 404 158.389Z" fill="#869595"/>
<path d="M404 173.383V182.434C403.817 188.164 400.77 191.028 394.857 191.028H349.143C343.17 191.028 340.122 188.072 340 182.16C339.878 188.072 336.83 191.028 330.857 191.028H316.229H293.097C289.501 188.712 285.783 186.457 281.943 184.263L276 180.971V173.383C276.183 179.051 279.23 181.886 285.143 181.886H330.857C336.83 181.886 339.878 178.929 340 173.017C340.061 176.735 341.28 179.295 343.657 180.697C345.059 181.489 346.888 181.886 349.143 181.886H394.857C400.77 181.886 403.817 179.051 404 173.383ZM367.246 214.8H380.32C385.135 214.8 387.543 217.177 387.543 221.931V235.097C387.543 239.851 385.135 242.228 380.32 242.228H367.246C362.491 242.228 360.114 239.851 360.114 235.097V221.931C360.114 217.177 362.491 214.8 367.246 214.8Z" fill="#A1B1B1"/>
<path d="M367.246 214.8C362.491 214.8 360.114 217.177 360.114 221.931V235.097C360.114 239.851 362.491 242.228 367.246 242.228H380.32C385.135 242.228 387.543 239.851 387.543 235.097V221.931C387.543 217.177 385.135 214.8 380.32 214.8H367.246ZM404 182.434V249.268V250.457L403.817 252.285C403.39 255.394 402.415 258.015 400.891 260.148L398.606 262.525C395.68 264.841 391.596 266 386.354 266H361.029L358.103 260.24L357.829 259.782L353.714 252.468C355.543 251.554 356.457 249.695 356.457 246.891V235.554C356.457 231.409 354.415 229.337 350.331 229.337H338.903L337.349 229.428L331.68 223.028C324.731 215.531 317.051 208.522 308.64 202H308.731C313.729 202 316.229 199.531 316.229 194.594V191.028H330.857C336.83 191.028 339.878 188.072 340 182.16C340.122 188.072 343.169 191.028 349.143 191.028H394.857C400.769 191.028 403.817 188.164 404 182.434Z" fill="#ACC0C1"/>
<path d="M353.714 252.468C348.899 244.362 343.444 236.682 337.349 229.428L338.903 229.337H350.331C354.415 229.337 356.457 231.409 356.457 235.554V246.891C356.457 249.695 355.543 251.554 353.714 252.468ZM308.64 202C303.825 198.221 298.766 194.624 293.463 191.211H293.371L293.097 191.028H316.229V194.594C316.229 199.531 313.729 202 308.731 202H308.64Z" fill="#BBCBCC"/>
<path d="M414 155.646V155.189V138H542V249.269V250.457V266H414V155.646ZM487.234 169.086C483.516 169.086 481.657 170.945 481.657 174.663V181.703C481.657 185.482 483.516 187.371 487.234 187.371H494.274C498.053 187.371 499.943 185.482 499.943 181.703V174.663C499.943 170.945 498.053 169.086 494.274 169.086H487.234ZM446.731 176.4H436.034C431.097 176.4 428.629 178.869 428.629 183.806V194.594C428.629 199.531 431.097 202 436.034 202H446.731C451.73 202 454.229 199.531 454.229 194.594V183.806C454.229 178.869 451.73 176.4 446.731 176.4ZM432.377 205.657C428.659 205.657 426.8 207.516 426.8 211.234V218.274C426.8 222.053 428.659 223.943 432.377 223.943H439.417C443.196 223.943 445.086 222.053 445.086 218.274V211.234C445.086 207.516 443.196 205.657 439.417 205.657H432.377ZM488.331 253.108C492.415 253.108 494.457 251.036 494.457 246.892V235.554C494.457 231.409 492.415 229.337 488.331 229.337H476.903C472.758 229.337 470.686 231.409 470.686 235.554V246.892C470.686 251.036 472.758 253.108 476.903 253.108H488.331ZM505.246 214.8C500.491 214.8 498.114 217.177 498.114 221.931V235.097C498.114 239.851 500.491 242.229 505.246 242.229H518.32C523.135 242.229 525.543 239.851 525.543 235.097V221.931C525.543 217.177 523.135 214.8 518.32 214.8H505.246Z" fill="#ACC0C1"/>
<path d="M505.246 214.8H518.32C523.135 214.8 525.543 217.177 525.543 221.932V235.097C525.543 239.852 523.135 242.229 518.32 242.229H505.246C500.491 242.229 498.114 239.852 498.114 235.097V221.932C498.114 217.177 500.491 214.8 505.246 214.8ZM487.234 169.086H494.274C498.053 169.086 499.943 170.945 499.943 174.663V181.703C499.943 185.482 498.053 187.372 494.274 187.372H487.234C483.516 187.372 481.657 185.482 481.657 181.703V174.663C481.657 170.945 483.516 169.086 487.234 169.086ZM432.377 205.657H439.417C443.196 205.657 445.086 207.517 445.086 211.235V218.275C445.086 222.054 443.196 223.943 439.417 223.943H432.377C428.659 223.943 426.8 222.054 426.8 218.275V211.235C426.8 207.517 428.659 205.657 432.377 205.657Z" fill="#A1B1B1"/>
<path d="M446.731 176.4C451.73 176.4 454.229 178.869 454.229 183.806V194.594C454.229 199.531 451.73 202 446.731 202H436.034C431.097 202 428.629 199.531 428.629 194.594V183.806C428.629 178.869 431.097 176.4 436.034 176.4H446.731ZM488.331 253.108H476.903C472.758 253.108 470.686 251.036 470.686 246.891V235.554C470.686 231.409 472.758 229.337 476.903 229.337H488.331C492.415 229.337 494.457 231.409 494.457 235.554V246.891C494.457 251.036 492.415 253.108 488.331 253.108Z" fill="#BBCBCC"/>
<path d="M552 158.389C552.061 155.829 552.427 153.573 553.097 151.623C555.23 145.162 560.503 141.84 568.914 141.657H569.646H662.354H663.177C674.088 141.901 679.695 147.478 680 158.389V173.383C679.817 179.051 676.77 181.886 670.857 181.886H625.143C622.888 181.886 621.059 181.49 619.657 180.697C617.28 179.295 616.061 176.735 616 173.017C615.878 178.93 612.83 181.886 606.857 181.886H561.143C555.23 181.886 552.183 179.051 552 173.383V158.389Z" fill="#869595"/>
<path d="M552 158.389V155.646V155.189V154.731C552 153.634 552.091 152.598 552.274 151.623L552.457 150.8L552.549 149.977L552.64 149.794C553.006 148.088 553.554 146.564 554.286 145.223L555.657 143.303L557.303 141.657L558.857 140.56L559.406 140.194C561.661 138.975 564.465 138.244 567.817 138H568.091H568.274H568.549H568.823H569.097H569.371H569.646H662.354C667.718 138 671.863 139.219 674.789 141.657L676.16 142.937C678.598 145.741 679.878 149.703 680 154.823V158.389C679.695 147.478 674.088 141.901 663.177 141.657H662.354H569.646H568.914C560.503 141.84 555.23 145.162 553.097 151.623C552.427 153.573 552.061 155.829 552 158.389Z" fill="#93A3A3"/>
<path d="M662.903 191.028L662.629 191.211C648 200.659 635.261 211.264 624.411 223.028H624.32L618.743 229.337H614.903C610.758 229.337 608.686 231.409 608.686 235.554V242.503C604.724 248.171 601.158 254.053 597.989 260.148L597.897 260.24L594.971 266H569.646C564.404 266 560.32 264.841 557.394 262.525L555.2 260.24C553.189 257.497 552.122 253.84 552 249.268V182.434C552.183 188.164 555.23 191.028 561.143 191.028H566.629V194.594C566.629 199.531 569.097 202 574.034 202H584.731C589.73 202 592.229 199.531 592.229 194.594V191.028H606.857C612.83 191.028 615.878 188.072 616 182.16C616.122 188.072 619.17 191.028 625.143 191.028H662.903ZM564.8 218.274C564.8 222.053 566.659 223.942 570.377 223.942H577.417C581.196 223.942 583.086 222.053 583.086 218.274V211.234C583.086 207.516 581.196 205.657 577.417 205.657H570.377C566.659 205.657 564.8 207.516 564.8 211.234V218.274Z" fill="#ACC0C1"/>
<path d="M564.8 218.274V211.234C564.8 207.516 566.659 205.657 570.377 205.657H577.417C581.196 205.657 583.086 207.516 583.086 211.234V218.274C583.086 222.053 581.196 223.943 577.417 223.943H570.377C566.659 223.943 564.8 222.053 564.8 218.274ZM680 173.383V180.971L674.057 184.263C670.217 186.457 666.499 188.712 662.903 191.028H625.143C619.17 191.028 616.122 188.072 616 182.16C615.878 188.072 612.83 191.028 606.857 191.028H592.229H566.629H561.143C555.23 191.028 552.183 188.164 552 182.434V173.383C552.183 179.051 555.23 181.886 561.143 181.886H606.857C612.83 181.886 615.878 178.929 616 173.017C616.061 176.735 617.28 179.295 619.657 180.697C621.059 181.489 622.888 181.886 625.143 181.886H670.857C676.77 181.886 679.817 179.051 680 173.383Z" fill="#A1B1B1"/>
<path d="M558.857 140.56L557.303 141.657L555.657 143.303C556.51 142.206 557.577 141.291 558.857 140.56Z" fill="#CFDADA"/>
<path d="M618.743 229.337C615.147 233.543 611.794 237.932 608.686 242.503V235.554C608.686 231.41 610.758 229.337 614.903 229.337H618.743ZM592.229 191.029V194.594C592.229 199.532 589.73 202 584.731 202H574.034C569.097 202 566.629 199.532 566.629 194.594V191.029H592.229Z" fill="#BBCBCC"/>
<path d="M690 158.389V155.646V155.189C690 153.909 690.091 152.72 690.274 151.623L690.457 150.8L690.549 149.977L690.64 149.794C692.347 141.931 698.015 138 707.646 138H800.354C812.118 138 818 143.882 818 155.646V158.389C817.695 147.234 811.813 141.657 800.354 141.657H707.646C698.808 141.657 693.291 144.979 691.097 151.623C690.427 153.573 690.061 155.829 690 158.389Z" fill="#CFDADA"/>
<path d="M690 158.389C690.061 155.829 690.427 153.573 691.097 151.623C693.291 144.979 698.808 141.657 707.646 141.657H800.354C811.813 141.657 817.695 147.234 818 158.389V249.269V250.457L817.817 252.286C817.39 255.394 816.415 258.015 814.891 260.149L812.606 262.526C809.68 264.842 805.596 266 800.354 266H707.646C702.404 266 698.32 264.842 695.394 262.526L693.2 260.24C691.189 257.497 690.122 253.84 690 249.269V158.389ZM770.274 169.086H763.234C759.516 169.086 757.657 170.945 757.657 174.663V181.703C757.657 185.482 759.516 187.372 763.234 187.372H770.274C774.053 187.372 775.943 185.482 775.943 181.703V174.663C775.943 170.945 774.053 169.086 770.274 169.086ZM722.731 176.4H712.034C707.097 176.4 704.629 178.869 704.629 183.806V194.594C704.629 199.531 707.097 202 712.034 202H722.731C727.73 202 730.229 199.531 730.229 194.594V183.806C730.229 178.869 727.73 176.4 722.731 176.4ZM715.417 205.657H708.377C704.659 205.657 702.8 207.516 702.8 211.234V218.274C702.8 222.053 704.659 223.943 708.377 223.943H715.417C719.196 223.943 721.086 222.053 721.086 218.274V211.234C721.086 207.516 719.196 205.657 715.417 205.657ZM774.114 235.097C774.114 239.851 776.491 242.229 781.246 242.229H794.32C799.135 242.229 801.543 239.851 801.543 235.097V221.932C801.543 217.177 799.135 214.8 794.32 214.8H781.246C776.491 214.8 774.114 217.177 774.114 221.932V235.097ZM764.331 229.337H752.903C748.758 229.337 746.686 231.41 746.686 235.554V246.892C746.686 251.036 748.758 253.109 752.903 253.109H764.331C768.415 253.109 770.457 251.036 770.457 246.892V235.554C770.457 231.41 768.415 229.337 764.331 229.337Z" fill="#ACC0C1"/>
<path d="M770.274 169.086C774.053 169.086 775.943 170.945 775.943 174.663V181.703C775.943 185.482 774.053 187.372 770.274 187.372H763.234C759.516 187.372 757.657 185.482 757.657 181.703V174.663C757.657 170.945 759.516 169.086 763.234 169.086H770.274ZM774.114 235.097V221.932C774.114 217.177 776.491 214.8 781.246 214.8H794.32C799.135 214.8 801.543 217.177 801.543 221.932V235.097C801.543 239.852 799.135 242.229 794.32 242.229H781.246C776.491 242.229 774.114 239.852 774.114 235.097ZM715.417 205.657C719.196 205.657 721.086 207.517 721.086 211.235V218.275C721.086 222.054 719.196 223.943 715.417 223.943H708.377C704.659 223.943 702.8 222.054 702.8 218.275V211.235C702.8 207.517 704.659 205.657 708.377 205.657H715.417Z" fill="#A1B1B1"/>
<path d="M722.731 176.4C727.73 176.4 730.229 178.869 730.229 183.806V194.594C730.229 199.531 727.73 202 722.731 202H712.034C707.097 202 704.629 199.531 704.629 194.594V183.806C704.629 178.869 707.097 176.4 712.034 176.4H722.731ZM764.331 229.337C768.415 229.337 770.457 231.409 770.457 235.554V246.891C770.457 251.036 768.415 253.108 764.331 253.108H752.903C748.758 253.108 746.686 251.036 746.686 246.891V235.554C746.686 231.409 748.758 229.337 752.903 229.337H764.331Z" fill="#BBCBCC"/>
<path d="M834.857 140.58L835.406 140.212C837.661 138.983 840.465 138.246 843.817 138H844.091H844.274H844.549H844.823H845.097H845.371H845.646H938.354C943.718 138 947.863 139.229 950.789 141.686L952.16 142.976C954.598 145.802 955.878 149.795 956 154.956V158.55C955.695 147.553 950.088 141.932 939.177 141.686H938.354H845.646H844.914C836.503 141.87 831.23 145.219 829.097 151.731C828.427 153.697 828.061 155.97 828 158.55V155.786V155.325V154.864C828 153.758 828.091 152.714 828.274 151.731L828.457 150.901L828.549 150.072L828.64 149.888C829.006 148.167 829.554 146.632 830.286 145.28L831.657 143.345L833.303 141.686L834.857 140.58Z" fill="#93A3A3"/>
<path d="M834.857 140.581L833.303 141.686L831.657 143.345C832.51 142.239 833.577 141.318 834.857 140.581Z" fill="#CFDADA"/>
<path d="M828 158.55C828.061 155.969 828.427 153.696 829.097 151.73C831.23 145.218 836.503 141.87 844.914 141.686H845.646H938.354H939.177C950.088 141.931 955.695 147.553 956 158.55V173.663C955.817 179.376 952.77 182.233 946.857 182.233H901.143C898.888 182.233 897.059 181.833 895.657 181.035C893.28 179.622 892.061 177.042 892 173.294C891.878 179.253 888.83 182.233 882.857 182.233H837.143C831.23 182.233 828.183 179.376 828 173.663V158.55Z" fill="#869595"/>
<path d="M956 173.663V182.786C955.817 188.561 952.77 191.449 946.857 191.449H901.143C895.17 191.449 892.122 188.469 892 182.51C891.878 188.469 888.83 191.449 882.857 191.449H868.229H842.629H837.143C831.23 191.449 828.183 188.561 828 182.786V173.663C828.183 179.376 831.23 182.233 837.143 182.233H882.857C888.83 182.233 891.878 179.254 892 173.294C892.061 177.042 893.28 179.622 895.657 181.035C897.059 181.834 898.888 182.233 901.143 182.233H946.857C952.77 182.233 955.817 179.376 956 173.663ZM939.543 224.163C933.63 231.228 926.225 237.494 917.326 242.962C913.851 242.348 912.114 239.982 912.114 235.866V222.596C912.114 217.804 914.491 215.408 919.246 215.408H932.32C937.135 215.408 939.543 217.804 939.543 222.596V224.163ZM846.377 206.193H853.417C857.196 206.193 859.086 208.067 859.086 211.814V218.91C859.086 222.719 857.196 224.624 853.417 224.624H846.377C842.659 224.624 840.8 222.719 840.8 218.91V211.814C840.8 208.067 842.659 206.193 846.377 206.193Z" fill="#A1B1B1"/>
<path d="M846.377 206.193C842.659 206.193 840.8 208.067 840.8 211.814V218.91C840.8 222.719 842.659 224.624 846.377 224.624H853.417C857.196 224.624 859.086 222.719 859.086 218.91V211.814C859.086 208.067 857.196 206.193 853.417 206.193H846.377ZM956 182.786V183.616C955.269 190.865 953.684 197.715 951.246 204.166L951.154 204.258C948.716 210.647 945.425 216.545 941.28 221.951L939.543 224.163V222.596C939.543 217.804 937.135 215.408 932.32 215.408H919.246C914.491 215.408 912.114 217.804 912.114 222.596V235.866C912.114 239.982 913.851 242.348 917.326 242.962L908.457 247.754V236.327C908.457 232.149 906.415 230.061 902.331 230.061H890.903C886.758 230.061 884.686 232.149 884.686 236.327V247.754C884.686 251.932 886.758 254.02 890.903 254.02H893.554C888.008 256.048 882.065 257.86 875.726 259.457H875.451L867.771 261.3H867.589L838.24 266C836.35 265.447 834.735 264.618 833.394 263.512L831.2 261.208C829.189 258.444 828.122 254.758 828 250.15V182.786C828.183 188.561 831.23 191.449 837.143 191.449H842.629V195.042C842.629 200.019 845.097 202.507 850.034 202.507H860.731C865.73 202.507 868.229 200.019 868.229 195.042V191.449H882.857C888.83 191.449 891.878 188.469 892 182.51C892.122 188.469 895.17 191.449 901.143 191.449H946.857C952.77 191.449 955.817 188.561 956 182.786Z" fill="#ACC0C1"/>
<path d="M908.457 247.754L900.503 251.348L900.229 251.44L893.554 254.02H890.903C886.758 254.02 884.686 251.931 884.686 247.754V236.327C884.686 232.149 886.758 230.06 890.903 230.06H902.331C906.415 230.06 908.457 232.149 908.457 236.327V247.754ZM868.229 191.448V195.042C868.229 200.018 865.729 202.507 860.731 202.507H850.034C845.097 202.507 842.629 200.018 842.629 195.042V191.448H868.229Z" fill="#BBCBCC"/>
<path d="M1094 141.657L1090.34 138H1094V141.657Z" fill="#93A3A3"/>
<path d="M1094 141.657V170.274L1061.73 138H1090.34L1094 141.657Z" fill="#869595"/>
<path d="M1061.73 138L1094 170.274V177.589L1054.41 138H1061.73ZM1039.23 169.086H1046.27C1050.05 169.086 1051.94 170.945 1051.94 174.663V181.703C1051.94 185.482 1050.05 187.371 1046.27 187.371H1039.23C1035.52 187.371 1033.66 185.482 1033.66 181.703V174.663C1033.66 170.945 1035.52 169.086 1039.23 169.086ZM1057.25 242.229C1052.49 242.229 1050.11 239.851 1050.11 235.097V221.931C1050.11 217.177 1052.49 214.8 1057.25 214.8H1070.32C1075.14 214.8 1077.54 217.177 1077.54 221.931V235.097C1077.54 239.851 1075.14 242.229 1070.32 242.229H1057.25ZM984.377 205.657H991.417C995.196 205.657 997.086 207.516 997.086 211.234V218.274C997.086 222.053 995.196 223.943 991.417 223.943H984.377C980.659 223.943 978.8 222.053 978.8 218.274V211.234C978.8 207.516 980.659 205.657 984.377 205.657Z" fill="#A1B1B1"/>
<path d="M984.377 205.657C980.659 205.657 978.8 207.516 978.8 211.234V218.274C978.8 222.053 980.659 223.943 984.377 223.943H991.417C995.196 223.943 997.086 222.053 997.086 218.274V211.234C997.086 207.516 995.196 205.657 991.417 205.657H984.377ZM1094 177.589V249.269V250.457V266H966V155.646V155.189V138H1054.41L1094 177.589ZM1039.23 169.086C1035.52 169.086 1033.66 170.945 1033.66 174.663V181.703C1033.66 185.482 1035.52 187.371 1039.23 187.371H1046.27C1050.05 187.371 1051.94 185.482 1051.94 181.703V174.663C1051.94 170.945 1050.05 169.086 1046.27 169.086H1039.23ZM998.731 176.4H988.034C983.097 176.4 980.629 178.869 980.629 183.806V194.594C980.629 199.531 983.097 202 988.034 202H998.731C1003.73 202 1006.23 199.531 1006.23 194.594V183.806C1006.23 178.869 1003.73 176.4 998.731 176.4ZM1057.25 242.229H1070.32C1075.14 242.229 1077.54 239.851 1077.54 235.097V221.931C1077.54 217.177 1075.14 214.8 1070.32 214.8H1057.25C1052.49 214.8 1050.11 217.177 1050.11 221.931V235.097C1050.11 239.851 1052.49 242.229 1057.25 242.229ZM1040.33 229.337H1028.9C1024.76 229.337 1022.69 231.409 1022.69 235.554V246.892C1022.69 251.036 1024.76 253.108 1028.9 253.108H1040.33C1044.42 253.108 1046.46 251.036 1046.46 246.892V235.554C1046.46 231.409 1044.42 229.337 1040.33 229.337Z" fill="#ACC0C1"/>
<path d="M1040.33 229.337C1044.42 229.337 1046.46 231.409 1046.46 235.554V246.891C1046.46 251.036 1044.42 253.108 1040.33 253.108H1028.9C1024.76 253.108 1022.69 251.036 1022.69 246.891V235.554C1022.69 231.409 1024.76 229.337 1028.9 229.337H1040.33ZM998.731 176.4C1003.73 176.4 1006.23 178.869 1006.23 183.806V194.594C1006.23 199.531 1003.73 202 998.731 202H988.034C983.097 202 980.629 199.531 980.629 194.594V183.806C980.629 178.869 983.097 176.4 988.034 176.4H998.731Z" fill="#BBCBCC"/>
<path d="M0.182816 279.657V276H3.83996L0.182816 279.657Z" fill="#93A3A3"/>
<path d="M0.182816 279.657L3.83996 276H32.4571L0.182816 308.274V279.657Z" fill="#869595"/>
<path d="M0.182813 279.657V308.274V315.589L39.7714 276H128V387.269V388.457V404H0V293.646V293.189V276H0.182813V279.657ZM73.2343 307.086C69.5162 307.086 67.6571 308.945 67.6571 312.663V319.703C67.6571 323.482 69.5162 325.371 73.2343 325.371H80.2743C84.0534 325.371 85.9429 323.482 85.9429 319.703V312.663C85.9429 308.945 84.0534 307.086 80.2743 307.086H73.2343ZM32.7315 314.4H22.0343C17.0971 314.4 14.6286 316.869 14.6286 321.806V332.594C14.6286 337.531 17.0971 340 22.0343 340H32.7315C37.7296 340 40.2286 337.531 40.2286 332.594V321.806C40.2286 316.869 37.7296 314.4 32.7315 314.4ZM25.4172 343.657H18.3771C14.659 343.657 12.8 345.516 12.8 349.234V356.274C12.8 360.053 14.659 361.943 18.3771 361.943H25.4172C29.1962 361.943 31.0857 360.053 31.0857 356.274V349.234C31.0857 345.516 29.1962 343.657 25.4172 343.657ZM91.2458 380.229H104.32C109.135 380.229 111.543 377.851 111.543 373.097V359.931C111.543 355.177 109.135 352.8 104.32 352.8H91.2458C86.4915 352.8 84.1143 355.177 84.1143 359.931V373.097C84.1143 377.851 86.4915 380.229 91.2458 380.229ZM56.6857 373.554V384.892C56.6857 389.036 58.7581 391.108 62.9029 391.108H74.3315C78.4153 391.108 80.4571 389.036 80.4571 384.892V373.554C80.4571 369.409 78.4153 367.337 74.3315 367.337H62.9029C58.7581 367.337 56.6857 369.409 56.6857 373.554Z" fill="#ACC0C1"/>
<path d="M39.7714 276L0.182816 315.589V308.274L32.4571 276H39.7714ZM73.2343 307.086H80.2743C84.0534 307.086 85.9429 308.945 85.9429 312.663V319.703C85.9429 323.482 84.0534 325.371 80.2743 325.371H73.2343C69.5162 325.371 67.6571 323.482 67.6571 319.703V312.663C67.6571 308.945 69.5162 307.086 73.2343 307.086ZM91.2458 380.229C86.4915 380.229 84.1143 377.851 84.1143 373.097V359.931C84.1143 355.177 86.4915 352.8 91.2458 352.8H104.32C109.135 352.8 111.543 355.177 111.543 359.931V373.097C111.543 377.851 109.135 380.229 104.32 380.229H91.2458ZM25.4172 343.657C29.1962 343.657 31.0857 345.516 31.0857 349.234V356.274C31.0857 360.053 29.1962 361.943 25.4172 361.943H18.3771C14.659 361.943 12.8 360.053 12.8 356.274V349.234C12.8 345.516 14.659 343.657 18.3771 343.657H25.4172Z" fill="#A1B1B1"/>
<path d="M32.7315 314.4C37.7296 314.4 40.2286 316.869 40.2286 321.806V332.594C40.2286 337.531 37.7296 340 32.7315 340H22.0343C17.0971 340 14.6286 337.531 14.6286 332.594V321.806C14.6286 316.869 17.0971 314.4 22.0343 314.4H32.7315ZM56.6857 373.554C56.6857 369.409 58.7581 367.337 62.9029 367.337H74.3315C78.4153 367.337 80.4571 369.409 80.4571 373.554V384.891C80.4571 389.036 78.4153 391.108 74.3315 391.108H62.9029C58.7581 391.108 56.6857 389.036 56.6857 384.891V373.554Z" fill="#BBCBCC"/>
<path d="M138 279.749V276H266V279.749H138Z" fill="#93A3A3"/>
<path d="M138 279.748H266V311.474C265.817 317.203 262.77 320.068 256.857 320.068H211.143C208.888 320.068 207.059 319.672 205.657 318.879C203.28 317.477 202.061 314.887 202 311.108C201.878 317.081 198.83 320.068 192.857 320.068H147.143C141.23 320.068 138.183 317.203 138 311.474V293.736V293.279V279.748Z" fill="#869595"/>
<path d="M266 311.474V320.617C265.817 326.346 262.77 329.211 256.857 329.211H211.143C205.17 329.211 202.122 326.255 202 320.342C201.878 326.255 198.83 329.211 192.857 329.211H178.229H152.629H147.143C141.23 329.211 138.183 326.346 138 320.617V311.474C138.183 317.203 141.23 320.068 147.143 320.068H192.857C198.83 320.068 201.878 317.081 202 311.108C202.061 314.887 203.28 317.477 205.657 318.879C207.059 319.672 208.888 320.068 211.143 320.068H256.857C262.77 320.068 265.817 317.203 266 311.474ZM169.086 349.142H150.8C150.922 345.607 152.781 343.839 156.377 343.839H163.417C167.074 343.839 168.964 345.607 169.086 349.142Z" fill="#A1B1B1"/>
<path d="M169.086 349.143C168.964 345.608 167.074 343.84 163.417 343.84H156.377C152.781 343.84 150.922 345.608 150.8 349.143H138V320.617C138.183 326.347 141.23 329.211 147.143 329.211H152.629V332.777C152.629 337.714 155.097 340.183 160.034 340.183H170.731C175.73 340.183 178.229 337.714 178.229 332.777V329.211H192.857C198.83 329.211 201.878 326.255 202 320.343C202.122 326.255 205.17 329.211 211.143 329.211H256.857C262.77 329.211 265.817 326.347 266 320.617V349.143H169.086Z" fill="#ACC0C1"/>
<path d="M178.229 329.211V332.777C178.229 337.714 175.73 340.182 170.731 340.182H160.034C155.097 340.182 152.629 337.714 152.629 332.777V329.211H178.229Z" fill="#BBCBCC"/>
<path d="M276 279.748H292.914H293.646H387.177C398.088 279.992 403.695 285.569 404 296.479V311.474C403.817 317.203 400.77 320.068 394.857 320.068H349.143C346.888 320.068 345.059 319.672 343.657 318.879C341.28 317.477 340.061 314.887 340 311.108C339.878 317.081 336.83 320.068 330.857 320.068H285.143C279.23 320.068 276.183 317.203 276 311.474V279.748Z" fill="#869595"/>
<path d="M276 279.749V276H386.354L390.286 276.274H390.469C393.882 276.762 396.655 277.92 398.789 279.749C400.8 281.455 402.232 283.741 403.086 286.606C403.634 288.434 403.939 290.537 404 292.914V296.48C403.695 285.569 398.088 279.992 387.177 279.749H293.646H292.914H276Z" fill="#93A3A3"/>
<path d="M316.229 329.211H330.857L332.686 329.12C337.44 328.571 339.878 325.646 340 320.343C340.122 326.255 343.17 329.211 349.143 329.211H394.857L398.149 328.846C401.928 327.931 403.878 325.189 404 320.617V332.411V333.6L403.817 335.428C403.391 338.537 402.415 341.158 400.891 343.291L398.606 345.668C395.68 347.985 391.596 349.143 386.354 349.143H307.086C306.964 345.608 305.074 343.84 301.417 343.84H294.377C290.903 343.84 289.044 345.486 288.8 348.777V349.143H276V320.617C276.122 325.189 278.072 327.931 281.851 328.846L285.143 329.211H290.629V332.777C290.629 337.714 293.097 340.183 298.034 340.183H308.731C313.73 340.183 316.229 337.714 316.229 332.777V329.211Z" fill="#ACC0C1"/>
<path d="M316.229 329.211H290.629H285.143L281.851 328.845C278.072 327.931 276.122 325.188 276 320.617V311.474C276.183 317.203 279.23 320.068 285.143 320.068H330.857C336.83 320.068 339.878 317.081 340 311.108C340.061 314.887 341.28 317.477 343.657 318.879C345.059 319.672 346.888 320.068 349.143 320.068H394.857C400.77 320.068 403.817 317.203 404 311.474V320.617C403.878 325.188 401.928 327.931 398.149 328.845L394.857 329.211H349.143C343.17 329.211 340.122 326.255 340 320.342C339.878 325.645 337.44 328.571 332.686 329.12L330.857 329.211H316.229ZM288.8 349.142V348.777C289.044 345.485 290.903 343.839 294.377 343.839H301.417C305.074 343.839 306.964 345.607 307.086 349.142H288.8Z" fill="#A1B1B1"/>
<path d="M316.229 329.211V332.777C316.229 337.714 313.73 340.182 308.732 340.182H298.034C293.097 340.182 290.629 337.714 290.629 332.777V329.211H316.229Z" fill="#BBCBCC"/>
<path d="M414.046 286.971C414.107 283.985 415.174 281.425 417.246 279.292C419.44 277.097 422.092 276 425.2 276C428.309 276 430.93 277.097 433.063 279.292C435.196 281.425 436.294 283.985 436.354 286.971H435.714C435.166 285.509 434.282 284.168 433.063 282.949C430.93 280.754 428.309 279.657 425.2 279.657C422.092 279.657 419.44 280.754 417.246 282.949C416.088 284.168 415.234 285.509 414.686 286.971H414.046Z" fill="#CFDADA"/>
<path d="M414.046 286.972H414.686C415.234 285.509 416.088 284.168 417.246 282.949C419.44 280.754 422.092 279.657 425.2 279.657C428.309 279.657 430.93 280.754 433.063 282.949C434.282 284.168 435.166 285.509 435.714 286.972H436.354V290.629V354.172V404H414.046V286.972Z" fill="#ACC0C1"/>
<path d="M436.354 286.971C451.958 277.036 469.482 279.352 488.926 293.92C505.078 305.989 520.469 311.627 535.097 310.834V314.491L533.634 314.583C519.432 314.888 504.53 309.219 488.926 297.577C469.482 283.01 451.958 280.693 436.354 290.629V286.971Z" fill="#FEE481"/>
<path d="M535.097 314.492L533.634 316.32C517.665 336.556 501.512 343.779 485.177 337.989C467.989 331.893 451.714 337.288 436.354 354.171V290.629C451.958 280.693 469.482 283.01 488.926 297.577C504.53 309.219 519.432 314.888 533.634 314.583L535.097 314.492Z" fill="#FFCC00"/>
</svg>
