<?xml version="1.0" encoding="UTF-8"?>
<!DOCTYPE svg PUBLIC "-//W3C//DTD SVG 1.1//EN" "http://www.w3.org/Graphics/SVG/1.1/DTD/svg11.dtd">
<!-- Creator: CorelDRAW 2026 (Versión OEM) -->
<svg xmlns="http://www.w3.org/2000/svg" xml:space="preserve" width="2198px" height="404px" version="1.1" style="shape-rendering:geometricPrecision; text-rendering:geometricPrecision; image-rendering:optimizeQuality; fill-rule:evenodd; clip-rule:evenodd"
viewBox="0 0 2198 404.48"
 xmlns:xlink="http://www.w3.org/1999/xlink"
 xmlns:xodm="http://www.corel.com/coreldraw/odm/2003">
 <defs>
  <style type="text/css">
   <![CDATA[
    .fil3 {fill:#ACA77B;fill-rule:nonzero}
    .fil9 {fill:#FAC42C;fill-rule:nonzero}
    .fil0 {fill:#FAC42C;fill-rule:nonzero}
    .fil19 {fill:#FBDC79;fill-rule:nonzero}
    .fil4 {fill:#AE5637;fill-rule:nonzero}
    .fil18 {fill:#7B4030;fill-rule:nonzero}
    .fil20 {fill:#7B4030;fill-rule:nonzero}
    .fil11 {fill:#545032;fill-rule:nonzero}
    .fil2 {fill:#545032;fill-rule:nonzero}
    .fil10 {fill:#73834A;fill-rule:nonzero}
    .fil1 {fill:#73834A;fill-rule:nonzero}
    .fil16 {fill:#42423F;fill-rule:nonzero}
    .fil15 {fill:#465252;fill-rule:nonzero}
    .fil13 {fill:#27463F;fill-rule:nonzero}
    .fil7 {fill:#27463F;fill-rule:nonzero}
    .fil12 {fill:#135F5F;fill-rule:nonzero}
    .fil5 {fill:#135F5F;fill-rule:nonzero}
    .fil17 {fill:#0E5747;fill-rule:nonzero}
    .fil8 {fill:#93DB24;fill-rule:nonzero}
    .fil6 {fill:#CFDADA;fill-rule:nonzero}
    .fil14 {fill:#FEE481;fill-rule:nonzero}
   ]]>
  </style>
 </defs>
 <g id="Capa_x0020_1">
  <metadata id="CorelCorpID_0Corel-Layer"/>
  <path class="fil0" d="M559.41 2.68c2.25,-1.22 5.06,-1.96 8.41,-2.2l0.27 0 0.18 0 0.28 0 0.27 0 0.28 0 0.27 0 0.28 0 92.7 0c5.37,0 9.51,1.22 12.44,3.66l1.37 1.28c2.44,2.8 3.72,6.76 3.84,11.88l0 3.57c-0.31,-10.91 -5.91,-16.49 -16.82,-16.73l-0.83 0 -92.7 0 -0.74 0c-8.41,0.18 -13.68,3.5 -15.81,9.96 -0.67,1.95 -1.04,4.21 -1.1,6.77l0 -2.74 0 -0.46 0 -0.46c0,-1.1 0.09,-2.13 0.27,-3.11l0.19 -0.82 0.09 -0.82 0.09 -0.18c0.37,-1.71 0.91,-3.24 1.65,-4.58l1.37 -1.92 1.64 -1.64 2.11 -1.46z"/>
  <path class="fil1" d="M552 20.87c0.06,-2.56 0.43,-4.82 1.1,-6.77 2.13,-6.46 7.4,-9.78 15.81,-9.96l0.74 0 92.7 0 0.83 0c10.91,0.24 16.51,5.82 16.82,16.73l0 14.99c-0.18,5.67 -3.23,8.51 -9.14,8.51l-45.72 0c-2.25,0 -4.08,-0.4 -5.48,-1.19 -2.38,-1.4 -3.6,-3.96 -3.66,-7.68 -0.12,5.91 -3.17,8.87 -9.14,8.87l-45.72 0c-5.91,0 -8.96,-2.84 -9.14,-8.51l0 -14.99z"/>
  <path class="fil2" d="M636.11 84.41c0,-4.75 2.38,-7.13 7.14,-7.13l13.07 0c4.81,0 7.22,2.38 7.22,7.13l0 13.17c0,4.75 -2.41,7.13 -7.22,7.13l-13.07 0c-4.76,0 -7.14,-2.38 -7.14,-7.13l0 -13.17z"/>
  <path class="fil3" d="M570.38 68.14l7.04 0c3.78,0 5.67,1.86 5.67,5.57l0 7.04c0,3.78 -1.89,5.67 -5.67,5.67l-7.04 0c-3.72,0 -5.58,-1.89 -5.58,-5.67l0 -7.04c0,-3.71 1.86,-5.57 5.58,-5.57z"/>
  <path class="fil2" d="M680 35.86l0 9.05c-0.18,5.73 -3.23,8.6 -9.14,8.6l-45.72 0c-5.97,0 -9.02,-2.96 -9.14,-8.87 -0.12,5.91 -3.17,8.87 -9.14,8.87l-14.63 0 -25.6 0 -5.49 0c-5.91,0 -8.96,-2.87 -9.14,-8.6l0 -9.05c0.18,5.67 3.23,8.51 9.14,8.51l45.72 0c5.97,0 9.02,-2.96 9.14,-8.87 0.06,3.71 1.28,6.28 3.66,7.68 1.4,0.79 3.23,1.19 5.48,1.19l45.72 0c5.91,0 8.96,-2.84 9.14,-8.51z"/>
  <path class="fil4" d="M614.9 91.82l11.43 0c4.09,0 6.13,2.07 6.13,6.21l0 11.34c0,4.15 -2.04,6.22 -6.13,6.22l-11.43 0c-4.14,0 -6.21,-2.07 -6.21,-6.22l0 -11.34c0,-4.14 2.07,-6.21 6.21,-6.21z"/>
  <path class="fil4" d="M592.23 53.51l0 3.56c0,4.94 -2.5,7.41 -7.5,7.41l-10.7 0c-4.93,0 -7.4,-2.47 -7.4,-7.41l0 -3.56 25.6 0z"/>
  <path class="fil5" d="M614.9 91.82c-4.14,0 -6.21,2.07 -6.21,6.21l0 11.34c0,4.15 2.07,6.22 6.21,6.22l11.43 0c4.09,0 6.13,-2.07 6.13,-6.22l0 -11.34c0,-4.14 -2.04,-6.21 -6.13,-6.21l-11.43 0zm65.1 -46.91l0 66.84 0 1.19 -0.18 1.83c-0.43,3.1 -1.41,5.72 -2.93,7.86l-2.28 2.38c-2.93,2.31 -7.01,3.47 -12.26,3.47l-92.7 0c-5.25,0 -9.33,-1.16 -12.26,-3.47l-2.19 -2.29c-2.01,-2.74 -3.08,-6.4 -3.2,-10.97l0 -66.84c0.18,5.73 3.23,8.6 9.14,8.6l5.49 0 0 3.56c0,4.94 2.47,7.41 7.4,7.41l10.7 0c5,0 7.5,-2.47 7.5,-7.41l0 -3.56 14.63 0c5.97,0 9.02,-2.96 9.14,-8.87 0.12,5.91 3.17,8.87 9.14,8.87l45.72 0c5.91,0 8.96,-2.87 9.14,-8.6zm-109.62 23.23c-3.72,0 -5.58,1.86 -5.58,5.57l0 7.04c0,3.78 1.86,5.67 5.58,5.67l7.04 0c3.78,0 5.67,-1.89 5.67,-5.67l0 -7.04c0,-3.71 -1.89,-5.57 -5.67,-5.57l-7.04 0zm65.73 16.27l0 13.17c0,4.75 2.38,7.13 7.14,7.13l13.07 0c4.81,0 7.22,-2.38 7.22,-7.13l0 -13.17c0,-4.75 -2.41,-7.13 -7.22,-7.13l-13.07 0c-4.76,0 -7.14,2.38 -7.14,7.13z"/>
  <path class="fil6" d="M559.41 2.67l-2.11 1.47 -1.64 1.64c0.97,-1.28 2.22,-2.31 3.75,-3.11z"/>
  <path class="fil0" d="M835.41 2.67c2.25,-1.21 5.06,-1.95 8.41,-2.19l0.27 0 0.18 0 0.28 0 0.27 0 0.28 0 0.27 0 0.28 0 110.35 0 0 3.66 -110.35 0 -0.74 0c-8.41,0.18 -13.68,3.5 -15.81,9.96 -0.67,1.95 -1.04,4.21 -1.1,6.77l0 -2.74 0 -0.46 0 -0.46c0,-1.1 0.09,-2.13 0.27,-3.11l0.19 -0.82 0.09 -0.82 0.09 -0.19c0.37,-1.7 0.91,-3.23 1.65,-4.57l1.37 -1.92 1.64 -1.64 2.11 -1.47z"/>
  <path class="fil1" d="M828 20.87c0.06,-2.56 0.43,-4.82 1.1,-6.77 2.13,-6.46 7.4,-9.78 15.81,-9.96l0.74 0 110.35 0 0 31.72c-0.18,5.67 -3.23,8.5 -9.14,8.5l-45.72 0c-2.25,0 -4.08,-0.39 -5.48,-1.18 -2.38,-1.41 -3.6,-3.97 -3.66,-7.68 -0.12,5.91 -3.17,8.86 -9.14,8.86l-45.72 0c-5.91,0 -8.96,-2.83 -9.14,-8.5l0 -14.99z"/>
  <path class="fil2" d="M956 35.86l0 9.05c-0.18,5.73 -3.23,8.6 -9.14,8.6l-45.72 0c-5.97,0 -9.02,-2.96 -9.14,-8.87 -0.12,5.91 -3.17,8.87 -9.14,8.87l-14.63 0 -25.6 0 -5.49 0c-5.91,0 -8.96,-2.87 -9.14,-8.6l0 -9.05c0.18,5.67 3.23,8.5 9.14,8.5l45.72 0c5.97,0 9.02,-2.95 9.14,-8.86 0.06,3.71 1.28,6.27 3.66,7.68 1.4,0.79 3.23,1.18 5.48,1.18l45.72 0c5.91,0 8.96,-2.83 9.14,-8.5zm-36.75 41.42l13.07 0c4.81,0 7.22,2.38 7.22,7.13l0 13.17c0,4.75 -2.41,7.13 -7.22,7.13l-13.07 0c-4.76,0 -7.14,-2.38 -7.14,-7.13l0 -13.17c0,-4.75 2.38,-7.13 7.14,-7.13zm-72.87 -9.14l7.04 0c3.78,0 5.67,1.86 5.67,5.57l0 7.04c0,3.78 -1.89,5.67 -5.67,5.67l-7.04 0c-3.72,0 -5.58,-1.89 -5.58,-5.67l0 -7.04c0,-3.71 1.86,-5.57 5.58,-5.57z"/>
  <path class="fil5" d="M846.38 68.14c-3.72,0 -5.58,1.85 -5.58,5.57l0 7.04c0,3.78 1.86,5.67 5.58,5.67l7.04 0c3.78,0 5.67,-1.89 5.67,-5.67l0 -7.04c0,-3.72 -1.89,-5.57 -5.67,-5.57l-7.04 0zm109.62 -23.23l0 66.84 0 1.19 0 15.54 -110.35 0c-5.25,0 -9.33,-1.16 -12.26,-3.48l-2.19 -2.28c-2.01,-2.74 -3.08,-6.4 -3.2,-10.97l0 -66.84c0.18,5.73 3.23,8.6 9.14,8.6l5.49 0 0 3.56c0,4.94 2.47,7.41 7.4,7.41l10.7 0c5,0 7.5,-2.47 7.5,-7.41l0 -3.56 14.63 0c5.97,0 9.02,-2.96 9.14,-8.87 0.12,5.91 3.17,8.87 9.14,8.87l45.72 0c5.91,0 8.96,-2.87 9.14,-8.6zm-36.75 32.37c-4.76,0 -7.14,2.38 -7.14,7.13l0 13.17c0,4.75 2.38,7.13 7.14,7.13l13.07 0c4.81,0 7.22,-2.38 7.22,-7.13l0 -13.17c0,-4.75 -2.41,-7.13 -7.22,-7.13l-13.07 0zm-28.35 14.54c-4.14,0 -6.21,2.07 -6.21,6.21l0 11.34c0,4.14 2.07,6.22 6.21,6.22l11.43 0c4.08,0 6.13,-2.08 6.13,-6.22l0 -11.34c0,-4.14 -2.05,-6.21 -6.13,-6.21l-11.43 0z"/>
  <path class="fil7" d="M890.9 91.82l11.43 0c4.08,0 6.13,2.07 6.13,6.21l0 11.34c0,4.15 -2.05,6.22 -6.13,6.22l-11.43 0c-4.14,0 -6.21,-2.07 -6.21,-6.22l0 -11.34c0,-4.14 2.07,-6.21 6.21,-6.21zm-22.67 -38.31l0 3.56c0,4.94 -2.5,7.41 -7.5,7.41l-10.7 0c-4.93,0 -7.4,-2.47 -7.4,-7.41l0 -3.56 25.6 0z"/>
  <path class="fil6" d="M835.41 2.67l-2.11 1.47 -1.64 1.64c0.97,-1.28 2.22,-2.31 3.75,-3.11z"/>
  <path class="fil2" d="M1104 35.86c0.18,5.67 3.23,8.5 9.14,8.5l45.72 0c5.97,0 9.02,-2.95 9.14,-8.86 0.06,3.71 1.28,6.27 3.66,7.68 1.4,0.79 3.23,1.18 5.48,1.18l45.72 0c5.91,0 8.96,-2.83 9.14,-8.5l0 9.05c-0.18,5.73 -3.23,8.6 -9.14,8.6l-45.72 0c-5.97,0 -9.02,-2.96 -9.14,-8.87 -0.12,5.91 -3.17,8.87 -9.14,8.87l-14.63 0 -25.6 0 -5.49 0c-5.91,0 -8.96,-2.87 -9.14,-8.6l0 -9.05zm104.32 41.42c4.82,0 7.22,2.38 7.22,7.13l0 13.17c0,4.75 -2.4,7.13 -7.22,7.13l-13.07 0c-4.76,0 -7.13,-2.38 -7.13,-7.13l0 -13.17c0,-4.75 2.37,-7.13 7.13,-7.13l13.07 0zm-85.94 -9.14l7.04 0c3.78,0 5.67,1.86 5.67,5.57l0 7.04c0,3.78 -1.89,5.67 -5.67,5.67l-7.04 0c-3.72,0 -5.58,-1.89 -5.58,-5.67l0 -7.04c0,-3.71 1.86,-5.57 5.58,-5.57z"/>
  <path class="fil5" d="M1122.38 68.14c-3.72,0 -5.58,1.85 -5.58,5.57l0 7.04c0,3.78 1.86,5.67 5.58,5.67l7.04 0c3.78,0 5.67,-1.89 5.67,-5.67l0 -7.04c0,-3.72 -1.89,-5.57 -5.67,-5.57l-7.04 0zm-18.38 -23.23c0.18,5.73 3.23,8.6 9.14,8.6l5.49 0 0 3.56c0,4.94 2.47,7.41 7.41,7.41l10.69 0c5,0 7.5,-2.47 7.5,-7.41l0 -3.56 14.63 0c5.97,0 9.02,-2.96 9.14,-8.87 0.12,5.91 3.17,8.87 9.14,8.87l45.72 0c5.91,0 8.96,-2.87 9.14,-8.6l0 66.84 0 1.19 0 15.54 -128 0 0 -83.57zm104.32 32.37l-13.07 0c-4.76,0 -7.13,2.38 -7.13,7.13l0 13.17c0,4.75 2.37,7.13 7.13,7.13l13.07 0c4.82,0 7.22,-2.38 7.22,-7.13l0 -13.17c0,-4.75 -2.4,-7.13 -7.22,-7.13zm-41.42 14.54c-4.14,0 -6.21,2.07 -6.21,6.21l0 11.34c0,4.14 2.07,6.22 6.21,6.22l11.43 0c4.09,0 6.13,-2.08 6.13,-6.22l0 -11.34c0,-4.14 -2.04,-6.21 -6.13,-6.21l-11.43 0z"/>
  <path class="fil1" d="M1232 35.86c-0.18,5.67 -3.23,8.5 -9.14,8.5l-45.72 0c-2.25,0 -4.08,-0.39 -5.48,-1.18 -2.38,-1.41 -3.6,-3.97 -3.66,-7.68 -0.12,5.91 -3.17,8.86 -9.14,8.86l-45.72 0c-5.91,0 -8.96,-2.83 -9.14,-8.5l0 -17.73 0 -0.46 0 -13.53 128 0 0 31.72z"/>
  <polygon class="fil0" points="1232,4.14 1104,4.14 1104,0.48 1232,0.48 "/>
  <path class="fil7" d="M1118.63 53.51l25.6 0 0 3.56c0,4.94 -2.5,7.41 -7.5,7.41l-10.69 0c-4.94,0 -7.41,-2.47 -7.41,-7.41l0 -3.56zm48.27 38.31l11.43 0c4.09,0 6.13,2.07 6.13,6.21l0 11.34c0,4.15 -2.04,6.22 -6.13,6.22l-11.43 0c-4.14,0 -6.21,-2.07 -6.21,-6.22l0 -11.34c0,-4.14 2.07,-6.21 6.21,-6.21z"/>
  <path class="fil0" d="M1242 4.14l0 -3.66 110.35 0 3.94 0.27 0.18 0c3.41,0.49 6.19,1.62 8.32,3.39 2.01,1.7 3.44,3.99 4.3,6.85 0.54,1.83 0.85,3.93 0.91,6.31l0 3.57c-0.31,-10.91 -5.91,-16.49 -16.82,-16.73l-93.53 0 -0.74 0 -16.91 0z"/>
  <path class="fil2" d="M1370 35.86l0 9.05c-0.18,5.73 -3.23,8.6 -9.14,8.6l-45.72 0c-5.97,0 -9.02,-2.96 -9.14,-8.87 -0.12,5.91 -3.17,8.87 -9.14,8.87l-14.63 0 -25.6 0 -5.49 0c-5.91,0 -8.96,-2.87 -9.14,-8.6l0 -9.05c0.18,5.67 3.23,8.5 9.14,8.5l45.72 0c5.97,0 9.02,-2.95 9.14,-8.86 0.06,3.71 1.28,6.27 3.66,7.68 1.4,0.79 3.23,1.18 5.48,1.18l45.72 0c5.91,0 8.96,-2.83 9.14,-8.5zm-36.75 41.42l13.07 0c4.81,0 7.22,2.38 7.22,7.13l0 13.17c0,4.75 -2.41,7.13 -7.22,7.13l-13.07 0c-4.76,0 -7.14,-2.38 -7.14,-7.13l0 -13.17c0,-4.75 2.38,-7.13 7.14,-7.13zm-72.87 -9.14l7.04 0c3.78,0 5.67,1.86 5.67,5.57l0 7.04c0,3.78 -1.89,5.67 -5.67,5.67l-7.04 0c-3.72,0 -5.58,-1.89 -5.58,-5.67l0 -7.04c0,-3.71 1.86,-5.57 5.58,-5.57z"/>
  <path class="fil1" d="M1242 4.14l16.91 0 0.74 0 93.53 0c10.91,0.24 16.51,5.82 16.82,16.73l0 14.99c-0.18,5.67 -3.23,8.5 -9.14,8.5l-45.72 0c-2.25,0 -4.08,-0.39 -5.48,-1.18 -2.38,-1.41 -3.6,-3.97 -3.66,-7.68 -0.12,5.91 -3.17,8.86 -9.14,8.86l-45.72 0c-5.91,0 -8.96,-2.83 -9.14,-8.5l0 -17.73 0 -0.46 0 -13.53z"/>
  <path class="fil5" d="M1370 44.91l0 66.84 0 1.19 -0.18 1.82c-0.43,3.11 -1.4,5.73 -2.93,7.87l-2.28 2.37c-2.93,2.32 -7.01,3.48 -12.26,3.48l-110.35 0 0 -83.57c0.18,5.73 3.23,8.6 9.14,8.6l5.49 0 0 3.56c0,4.94 2.47,7.41 7.4,7.41l10.7 0c5,0 7.5,-2.47 7.5,-7.41l0 -3.56 14.63 0c5.97,0 9.02,-2.96 9.14,-8.87 0.12,5.91 3.17,8.87 9.14,8.87l45.72 0c5.91,0 8.96,-2.87 9.14,-8.6zm-36.75 32.37c-4.76,0 -7.14,2.38 -7.14,7.13l0 13.17c0,4.75 2.38,7.13 7.14,7.13l13.07 0c4.81,0 7.22,-2.38 7.22,-7.13l0 -13.17c0,-4.75 -2.41,-7.13 -7.22,-7.13l-13.07 0zm-72.87 -9.14c-3.72,0 -5.58,1.85 -5.58,5.57l0 7.04c0,3.78 1.86,5.67 5.58,5.67l7.04 0c3.78,0 5.67,-1.89 5.67,-5.67l0 -7.04c0,-3.72 -1.89,-5.57 -5.67,-5.57l-7.04 0zm44.52 23.68c-3.11,0 -5.06,1.18 -5.85,3.56l-0.36 2.65 0 11.34c0,4.14 2.07,6.22 6.21,6.22l11.43 0c4.09,0 6.13,-2.08 6.13,-6.22l0 -11.34 -0.37 -2.65c-0.73,-2.38 -2.65,-3.56 -5.76,-3.56l-11.43 0z"/>
  <path class="fil7" d="M1304.9 91.82l11.43 0c3.11,0 5.03,1.18 5.76,3.56l0.37 2.65 0 11.34c0,4.15 -2.04,6.22 -6.13,6.22l-11.43 0c-4.14,0 -6.21,-2.07 -6.21,-6.22l0 -11.34 0.36 -2.65c0.79,-2.38 2.74,-3.56 5.85,-3.56zm-22.67 -38.31l0 3.56c0,4.94 -2.5,7.41 -7.5,7.41l-10.7 0c-4.93,0 -7.4,-2.47 -7.4,-7.41l0 -3.56 25.6 0z"/>
  <path class="fil0" d="M1387.41 2.6c2.25,-1.18 5.05,-1.88 8.41,-2.12l0.27 0 0.18 0 0.28 0 0.27 0 0.28 0 0.27 0 0.28 0 92.7 0c5.37,0 9.51,1.18 12.44,3.53l1.37 1.24c2.44,2.71 3.72,6.54 3.84,11.49l0 3.45c-0.31,-10.55 -5.91,-15.94 -16.82,-16.18l-0.83 0 -92.7 0 -0.74 0c-8.41,0.18 -13.68,3.39 -15.81,9.64 -0.67,1.88 -1.04,4.06 -1.1,6.54l0 -2.66 0 -0.44 0 -0.44c0,-1.06 0.09,-2.06 0.27,-3l0.19 -0.8 0.09 -0.79 0.09 -0.18c0.37,-1.65 0.91,-3.12 1.65,-4.42l1.37 -1.85 1.64 -1.6 2.11 -1.41z"/>
  <path class="fil1" d="M1380 20.19c0.06,-2.48 0.43,-4.66 1.1,-6.54 2.13,-6.25 7.4,-9.46 15.81,-9.64l0.74 0 92.7 0 0.83 0c10.91,0.24 16.51,5.63 16.82,16.18l0 14.49c-0.18,5.48 -3.23,8.22 -9.14,8.22l-45.72 0c-2.25,0 -4.08,-0.39 -5.48,-1.15 -2.38,-1.36 -3.6,-3.83 -3.66,-7.43 -0.12,5.72 -3.17,8.58 -9.14,8.58l-45.72 0c-5.91,0 -8.96,-2.74 -9.14,-8.22l0 -14.49z"/>
  <path class="fil2" d="M1508 34.68l0 8.75c-0.18,5.53 -3.23,8.3 -9.14,8.3l-45.72 0c-5.97,0 -9.02,-2.85 -9.14,-8.57 -0.12,5.72 -3.17,8.57 -9.14,8.57l-14.63 0 -25.6 0 -5.49 0c-5.91,0 -8.96,-2.77 -9.14,-8.3l0 -8.75c0.18,5.48 3.23,8.22 9.14,8.22l45.72 0c5.97,0 9.02,-2.86 9.14,-8.58 0.06,3.6 1.28,6.07 3.66,7.43 1.4,0.76 3.23,1.15 5.48,1.15l45.72 0c5.91,0 8.96,-2.74 9.14,-8.22zm-111.27 48.78l-2.01 -2.48 -1.92 -2.47 0 -0.45 0 -6.8c0,-3.59 1.86,-5.39 5.58,-5.39l7.04 0c3.78,0 5.67,1.8 5.67,5.39l0 6.8c0,3.66 -1.89,5.48 -5.67,5.48l-7.04 0 -1.65 -0.08zm67.38 10.86l0 -12.72c0,-4.6 2.38,-6.89 7.14,-6.89l13.07 0c4.81,0 7.22,2.29 7.22,6.89l0 12.72c0,4.6 -2.41,6.9 -7.22,6.9l-13.07 0c-4.76,0 -7.14,-2.3 -7.14,-6.9z"/>
  <path class="fil7" d="M1442.45 111.73c-1.89,-0.06 -3.3,-0.56 -4.21,-1.5 -1.04,-1 -1.55,-2.5 -1.55,-4.51l0 -10.95c0,-4.01 2.07,-6.01 6.21,-6.01l11.43 0c4.09,0 6.13,2 6.13,6.01l0 10.95c0,4.01 -2.04,6.01 -6.13,6.01l-11.43 0 -0.45 0zm-22.22 -60l0 3.45c0,4.77 -2.5,7.16 -7.5,7.16l-10.7 0c-4.93,0 -7.4,-2.39 -7.4,-7.16l0 -3.45 25.6 0z"/>
  <path class="fil5" d="M1420.23 51.73l14.63 0c5.97,0 9.02,-2.85 9.14,-8.57 0.12,5.72 3.17,8.57 9.14,8.57l45.72 0c5.91,0 8.96,-2.77 9.14,-8.3l0 64.59 0 1.15 -0.18 1.77c-0.43,3 -1.4,5.53 -2.93,7.6l-2.28 2.29c-1.35,1.06 -2.93,1.86 -4.76,2.39 -10.54,-1.12 -20.36,-2.62 -29.44,-4.51l-0.18 0 -7.68 -1.76 -0.28 0 -17.82 -5.22 0.45 0 11.43 0c4.09,0 6.13,-2 6.13,-6.01l0 -10.95c0,-4.01 -2.04,-6.01 -6.13,-6.01l-11.43 0c-4.14,0 -6.21,2 -6.21,6.01l0 10.95c0,2.01 0.51,3.51 1.55,4.51l-2.47 -0.97 -0.27 -0.09c-16.58,-6.6 -29.5,-15.17 -38.77,-25.71l1.65 0.08 7.04 0c3.78,0 5.67,-1.82 5.67,-5.48l0 -6.8c0,-3.59 -1.89,-5.39 -5.67,-5.39l-7.04 0c-3.72,0 -5.58,1.8 -5.58,5.39l0 6.8 0 0.45c-3.23,-4.54 -5.88,-9.37 -7.95,-14.5l-0.1 -0.08c-2.43,-6.19 -4.02,-12.76 -4.75,-19.71l0 -0.79c0.18,5.53 3.23,8.3 9.14,8.3l5.49 0 0 3.45c0,4.77 2.47,7.16 7.4,7.16l10.7 0c5,0 7.5,-2.39 7.5,-7.16l0 -3.45zm43.88 42.59c0,4.6 2.38,6.9 7.14,6.9l13.07 0c4.81,0 7.22,-2.3 7.22,-6.9l0 -12.72c0,-4.6 -2.41,-6.89 -7.22,-6.89l-13.07 0c-4.76,0 -7.14,2.29 -7.14,6.89l0 12.72z"/>
  <path class="fil6" d="M1387.41 2.6l-2.11 1.41 -1.64 1.59c0.97,-1.23 2.22,-2.24 3.75,-3z"/>
  <path class="fil5" d="M1518 18.13l0 -0.46 0 -17.19 0.18 0 0 3.66 0 13.99 -0.18 0 0.18 1.09 0 13.53 0 7.32 14.43 14.44 0 2.56c0,4.94 2.46,7.41 7.39,7.41l2.56 0 4.84 4.84c-0.91,-0.79 -2.25,-1.18 -4.02,-1.18l-7.03 0c-3.71,0 -5.57,1.86 -5.57,5.57l0 7.04c0,3.78 1.86,5.67 5.57,5.67l7.03 0c3.77,0 5.66,-1.89 5.66,-5.67l0 -7.04c0,-1.7 -0.36,-2.98 -1.09,-3.84l26.75 26.79 -0.1 1.37 0 11.34c0,4.14 2.07,6.22 6.21,6.22l11.41 0 1.28 -0.09 12.97 12.98 -88.47 0 0 -110.35z"/>
  <polygon class="fil0" points="1518.18,4.14 1518.18,0.48 1542.01,24.53 1544.48,26.99 1547.49,29.92 1646,128.48 1642.35,128.48 "/>
  <polygon class="fil1" points="1518.18,4.14 1642.35,128.48 1613.77,128.48 1518.18,32.75 1518.18,19.22 1518.18,18.13 "/>
  <path class="fil7" d="M1574.7 96.66l18.8 18.84 -1.28 0.09 -11.41 0c-4.14,0 -6.21,-2.08 -6.21,-6.22l0 -11.34 0.1 -1.37zm-32.14 -32.18l-2.56 0c-4.93,0 -7.39,-2.47 -7.39,-7.41l0 -2.56 9.95 9.97z"/>
  <path class="fil2" d="M1542.56 64.48l-9.95 -9.97 -14.43 -14.44 0 -7.32 95.59 95.73 -7.3 0 -12.97 -12.98 -18.8 -18.84 -26.75 -26.79c0.73,0.86 1.09,2.14 1.09,3.84l0 7.04c0,3.78 -1.89,5.67 -5.66,5.67l-7.03 0c-3.71,0 -5.57,-1.89 -5.57,-5.67l0 -7.04c0,-3.72 1.86,-5.57 5.57,-5.57l7.03 0c1.77,0 3.11,0.39 4.02,1.18l-4.84 -4.84z"/>
  <polygon class="fil8" points="1518,18.13 1518.18,18.13 1518.18,19.22 "/>
  <path class="fil5" d="M1732.23 92l7.95 -8.05 0 0.46 0 13.17c0,4.75 2.37,7.13 7.12,7.13l13.05 0c4.81,0 7.22,-2.38 7.22,-7.13l0 -13.17c0,-4.75 -2.41,-7.13 -7.22,-7.13l-13.05 0 -0.46 0 37.16 -37.21 0 71.68 0 1.19 0 15.54 -88.28 0 17.25 -17.28c0.55,2.92 2.56,4.39 6.03,4.39l11.41 0c4.08,0 6.12,-2.07 6.12,-6.22l0 -11.34c0,-3.47 -1.43,-5.48 -4.3,-6.03z"/>
  <path class="fil2" d="M1732.23 92l-19.26 19.2 -17.25 17.28 -7.31 0 95.59 -95.73 0 7.32 -37.16 37.21 0.46 0 13.05 0c4.81,0 7.22,2.38 7.22,7.13l0 13.17c0,4.75 -2.41,7.13 -7.22,7.13l-13.05 0c-4.75,0 -7.12,-2.38 -7.12,-7.13l0 -13.17 0 -0.46 -7.95 8.05z"/>
  <polygon class="fil0" points="1659.84,128.48 1656.18,128.48 1754.69,29.92 1757.71,26.99 1760.17,24.52 1784,0.48 1784,4.14 "/>
  <path class="fil7" d="M1732.23 92c2.87,0.55 4.3,2.56 4.3,6.03l0 11.34c0,4.14 -2.04,6.22 -6.12,6.22l-11.41 0c-3.47,0 -5.48,-1.47 -6.03,-4.39l19.26 -19.2z"/>
  <polygon class="fil1" points="1784,32.75 1688.41,128.48 1659.84,128.48 1784,4.14 1784,18.13 1784,19.22 "/>
  <polygon class="fil8" points="1784,18.13 1784.18,18.13 1784,19.22 "/>
  <path class="fil9" d="M414 20.96l0 -2.74 0 -0.46 0 -0.46c0,-1.09 0.09,-2.13 0.28,-3.11l0.18 -0.82 0.09 -0.82 0.09 -0.19c0.73,-3.47 2.29,-6.18 4.67,-8.13 2.86,-2.5 6.97,-3.75 12.34,-3.75l92.7 0 3.94 0.27 0.18 0c3.41,0.49 6.19,1.65 8.32,3.48 2.01,1.71 3.44,3.99 4.3,6.86 0.54,1.82 0.85,3.93 0.91,6.3l0 3.57c-0.3,-10.91 -5.91,-16.49 -16.82,-16.73l-93.53 0 -0.73 0c-8.42,0.18 -13.69,3.5 -15.82,9.96 -0.67,1.95 -1.04,4.21 -1.1,6.77z"/>
  <path class="fil10" d="M414 20.96c0.06,-2.56 0.43,-4.82 1.1,-6.77 2.13,-6.46 7.4,-9.78 15.82,-9.96l0.73 0 93.53 0c10.91,0.24 16.52,5.82 16.82,16.73l0 14.99c-0.18,5.73 -3.23,8.6 -9.14,8.6l-45.72 0c-2.25,0 -4.08,-0.4 -5.48,-1.19 -2.38,-1.4 -3.6,-3.99 -3.66,-7.77 -0.12,5.97 -3.17,8.96 -9.14,8.96l-45.71 0c-5.92,0 -8.96,-2.87 -9.15,-8.6l0 -14.99z"/>
  <path class="fil11" d="M542 35.95l0 9.15c-0.12,4.57 -2.07,7.31 -5.85,8.23l-3.29 0.36 -45.72 0c-5.97,0 -9.02,-2.96 -9.14,-8.87 -0.12,5.3 -2.56,8.23 -7.31,8.78l-1.83 0.09 -14.63 0 -25.6 0 -5.48 0 -3.3 -0.36c-3.77,-0.92 -5.73,-3.66 -5.85,-8.23l0 -9.15c0.19,5.73 3.23,8.6 9.15,8.6l45.71 0c5.97,0 9.02,-2.99 9.14,-8.96 0.06,3.78 1.28,6.37 3.66,7.77 1.4,0.79 3.23,1.19 5.48,1.19l45.72 0c5.91,0 8.96,-2.87 9.14,-8.6zm-96.91 37.67l-18.29 0 0 -0.36c0.25,-3.3 2.11,-4.94 5.58,-4.94l7.04 0c3.66,0 5.55,1.77 5.67,5.3z"/>
  <path class="fil12" d="M445.09 73.62c-0.12,-3.53 -2.01,-5.3 -5.67,-5.3l-7.04 0c-3.47,0 -5.33,1.65 -5.58,4.94 -2.98,-0.55 -5.45,-1.59 -7.4,-3.11l-2.2 -2.29c-2.01,-2.74 -3.08,-6.4 -3.2,-10.97l0 -11.79c0.12,4.57 2.08,7.31 5.85,8.23l3.3 0.36 5.48 0 0 3.57c0,4.93 2.47,7.4 7.41,7.4l10.69 0c5,0 7.5,-2.47 7.5,-7.4l0 -3.57 14.63 0 1.83 -0.09c4.75,-0.55 7.19,-3.48 7.31,-8.78 0.12,5.92 3.17,8.87 9.14,8.87l45.72 0 3.29 -0.36c3.78,-0.92 5.73,-3.66 5.85,-8.23l0 11.79 0 1.19 -0.18 1.83c-0.43,3.11 -1.4,5.73 -2.93,7.86l-2.28 2.38c-2.93,2.32 -7.01,3.47 -12.26,3.47l-79.26 0z"/>
  <path class="fil13" d="M454.23 53.69l0 3.57c0,4.93 -2.5,7.4 -7.5,7.4l-10.69 0c-4.94,0 -7.41,-2.47 -7.41,-7.4l0 -3.57 25.6 0z"/>
  <path class="fil10" d="M129 35.47c-0.18,5.73 -3.23,8.6 -9.14,8.6l-45.72 0c-2.25,0 -4.08,-0.4 -5.48,-1.19 -2.38,-1.4 -3.6,-3.99 -3.66,-7.77 -0.12,5.97 -3.17,8.96 -9.14,8.96l-45.72 0c-5.91,0 -8.96,-2.87 -9.14,-8.6l0 -14.99c0.06,-2.56 0.43,-4.82 1.1,-6.77 2.13,-6.46 7.4,-9.78 15.81,-9.96l0.74 0 110.35 0 0 31.72z"/>
  <path class="fil11" d="M129 35.47l0 9.15c-0.12,4.57 -2.07,7.31 -5.85,8.23l-3.29 0.36 -45.72 0c-5.97,0 -9.02,-2.95 -9.14,-8.87 -0.12,5.31 -2.56,8.23 -7.31,8.78l-1.83 0.09 -14.63 0 -25.6 0 -5.49 0 -3.29 -0.36c-3.78,-0.92 -5.73,-3.66 -5.85,-8.23l0 -9.15c0.18,5.73 3.23,8.6 9.14,8.6l45.72 0c5.97,0 9.02,-2.99 9.14,-8.96 0.06,3.78 1.28,6.37 3.66,7.77 1.4,0.79 3.23,1.19 5.48,1.19l45.72 0c5.91,0 8.96,-2.87 9.14,-8.6zm-115.2 37.31c0.24,-3.29 2.1,-4.94 5.58,-4.94l7.04 0c3.66,0 5.55,1.77 5.67,5.3l-18.29 0 0 -0.36z"/>
  <path class="fil12" d="M13.8 72.78c-2.99,-0.55 -5.45,-1.59 -7.4,-3.11l-2.2 -2.29c-2.01,-2.74 -3.08,-6.4 -3.2,-10.97l0 -11.79c0.12,4.57 2.07,7.31 5.85,8.23l3.29 0.36 5.49 0 0 3.57c0,4.93 2.47,7.4 7.41,7.4l10.69 0c5,0 7.5,-2.47 7.5,-7.4l0 -3.57 14.63 0 1.83 -0.09c4.75,-0.55 7.19,-3.47 7.31,-8.78 0.12,5.92 3.17,8.87 9.14,8.87l45.72 0 3.29 -0.36c3.78,-0.92 5.73,-3.66 5.85,-8.23l0 28.52 -96.91 0c-0.12,-3.53 -2.01,-5.3 -5.67,-5.3l-7.04 0c-3.48,0 -5.34,1.65 -5.58,4.94z"/>
  <path class="fil13" d="M15.63 53.21l25.6 0 0 3.57c0,4.93 -2.5,7.4 -7.5,7.4l-10.69 0c-4.94,0 -7.41,-2.47 -7.41,-7.4l0 -3.57z"/>
  <path class="fil9" d="M129 3.75l-110.35 0 -0.74 0c-8.41,0.18 -13.68,3.5 -15.81,9.96 -0.67,1.95 -1.04,4.21 -1.1,6.77l0 -2.74 0 -0.46 0 -0.46c0,-1.09 0.09,-2.13 0.28,-3.11l0.18 -0.82 0.09 -0.82 0.09 -0.18c0.73,-3.48 2.29,-6.19 4.66,-8.14 2.87,-2.5 6.98,-3.75 12.35,-3.75l110.35 0 0 3.75z"/>
  <path class="fil1" d="M1932 11.45c0.06,-2.99 1.13,-5.55 3.2,-7.68 2.19,-2.19 4.85,-3.29 7.95,-3.29 3.11,0 5.73,1.1 7.87,3.29 2.13,2.13 3.23,4.69 3.29,7.68l-0.64 0c-0.55,-1.46 -1.43,-2.8 -2.65,-4.02 -2.14,-2.2 -4.76,-3.29 -7.87,-3.29 -3.1,0 -5.76,1.09 -7.95,3.29 -1.16,1.22 -2.01,2.56 -2.56,4.02l-0.64 0z"/>
  <path class="fil14" d="M1954.31 11.45c15.36,16.88 31.63,22.28 48.82,16.18 16.82,-5.97 33.46,1.86 49.92,23.5l0 3.66 -1.46 -1.83c-15.97,-20.24 -32.12,-27.46 -48.46,-21.67 -17.19,6.1 -33.46,0.7 -48.82,-16.18l0 -3.66z"/>
  <path class="fil4" d="M2053.05 54.79c-14.63,-0.79 -30.02,4.84 -46.17,16.91 -19.44,14.57 -36.97,16.89 -52.57,6.95l0 -63.54c15.36,16.88 31.63,22.28 48.82,16.18 16.34,-5.79 32.49,1.43 48.46,21.67l1.46 1.83z"/>
  <path class="fil2" d="M1932 11.45l0.64 0c0.55,-1.46 1.4,-2.8 2.56,-4.02 2.19,-2.2 4.85,-3.29 7.95,-3.29 3.11,0 5.73,1.09 7.87,3.29 1.22,1.22 2.1,2.56 2.65,4.02l0.64 0 0 3.66 0 63.54 0 49.83 -22.31 0 0 -117.03z"/>
  <path class="fil0" d="M2073.66 5.78l1.64 -1.64 2.11 -1.47c2.25,-1.22 5.06,-1.95 8.41,-2.19l0.27 0 0.18 0 0.28 0 0.27 0 0.28 0 0.27 0 0.28 0 92.7 0c5.37,0 9.51,1.22 12.44,3.66l1.37 1.28c2.44,2.8 3.72,6.76 3.84,11.88l0 3.57c-0.3,-10.91 -5.91,-16.49 -16.82,-16.73l-0.83 0 -92.7 0 -0.73 0c-8.42,0.18 -13.69,3.5 -15.82,9.96 -0.67,1.95 -1.04,4.21 -1.1,6.77l0 -2.74 0 -0.46 0 -0.46c0,-1.1 0.09,-2.13 0.27,-3.11l0.19 -0.82 0.09 -0.82 0.09 -0.19c0.37,-1.7 0.91,-3.23 1.65,-4.57l1.37 -1.92z"/>
  <path class="fil6" d="M2073.66 5.78c0.97,-1.28 2.22,-2.31 3.75,-3.11l-2.11 1.47 -1.64 1.64z"/>
  <path class="fil1" d="M2198 20.87l0 14.99c-0.18,5.67 -3.23,8.51 -9.14,8.51l-45.72 0c-2.25,0 -4.08,-0.4 -5.48,-1.19 -2.38,-1.41 -3.6,-3.97 -3.66,-7.68 -0.12,5.91 -3.17,8.87 -9.14,8.87l-45.72 0c-5.91,0 -8.96,-2.84 -9.14,-8.51l0 -14.99c0.06,-2.56 0.43,-4.82 1.1,-6.77 2.13,-6.46 7.4,-9.78 15.82,-9.96l0.73 0 92.7 0 0.83 0c10.91,0.24 16.52,5.82 16.82,16.73z"/>
  <path class="fil2" d="M2198 35.86l0 9.05c-0.18,5.73 -3.23,8.6 -9.14,8.6l-45.72 0c-5.97,0 -9.02,-2.96 -9.14,-8.87 -0.12,5.91 -3.17,8.87 -9.14,8.87l-14.63 0 -23.13 0c-3.6,-2.32 -7.32,-4.57 -11.16,-6.77l-5.94 -3.29 0 -7.59c0.18,5.67 3.23,8.51 9.14,8.51l45.72 0c5.97,0 9.02,-2.96 9.14,-8.87 0.06,3.71 1.28,6.27 3.66,7.68 1.4,0.79 3.23,1.19 5.48,1.19l45.72 0c5.91,0 8.96,-2.84 9.14,-8.51zm-36.75 41.42l13.07 0c4.82,0 7.22,2.38 7.22,7.13l0 13.17c0,4.75 -2.4,7.13 -7.22,7.13l-13.07 0c-4.76,0 -7.14,-2.38 -7.14,-7.13l0 -13.17c0,-4.75 2.38,-7.13 7.14,-7.13z"/>
  <path class="fil5" d="M2161.25 77.28c-4.76,0 -7.14,2.38 -7.14,7.13l0 13.17c0,4.75 2.38,7.13 7.14,7.13l13.07 0c4.82,0 7.22,-2.38 7.22,-7.13l0 -13.17c0,-4.75 -2.4,-7.13 -7.22,-7.13l-13.07 0zm36.75 -32.37l0 66.84 0 1.19 -0.18 1.82c-0.43,3.11 -1.41,5.73 -2.93,7.87l-2.28 2.37c-2.93,2.32 -7.01,3.48 -12.26,3.48l-25.32 0 -2.93 -5.76 -0.27 -0.46 -4.12 -7.31c1.83,-0.92 2.75,-2.78 2.75,-5.58l0 -11.34c0,-4.14 -2.05,-6.21 -6.13,-6.21l-11.43 0 -1.55 0.09 -5.67 -6.4c-6.95,-7.5 -14.63,-14.51 -23.04,-21.03l0.09 0c5,0 7.5,-2.47 7.5,-7.41l0 -3.56 14.63 0c5.97,0 9.02,-2.96 9.14,-8.87 0.12,5.91 3.17,8.87 9.14,8.87l45.72 0c5.91,0 8.96,-2.87 9.14,-8.6z"/>
  <path class="fil7" d="M2147.71 114.95c-4.81,-8.11 -10.27,-15.79 -16.36,-23.04l1.55 -0.09 11.43 0c4.08,0 6.13,2.07 6.13,6.21l0 11.34c0,2.8 -0.92,4.66 -2.75,5.58zm-45.07 -50.47c-4.81,-3.78 -9.87,-7.38 -15.18,-10.79l-0.09 0 -0.27 -0.18 23.13 0 0 3.56c0,4.94 -2.5,7.41 -7.5,7.41l-0.09 0z"/>
  <path class="fil5" d="M0 156.13l0 -0.46 0 -17.19 128 0 0 111.27 0 1.19 0 15.54 -128 0 0 -110.35zm73.23 13.43c-3.72,0 -5.57,1.86 -5.57,5.58l0 7.04c0,3.78 1.85,5.67 5.57,5.67l7.04 0c3.78,0 5.67,-1.89 5.67,-5.67l0 -7.04c0,-3.72 -1.89,-5.58 -5.67,-5.58l-7.04 0zm-40.5 7.32l-10.7 0c-4.93,0 -7.4,2.47 -7.4,7.4l0 10.79c0,4.94 2.47,7.41 7.4,7.41l10.7 0c5,0 7.5,-2.47 7.5,-7.41l0 -10.79c0,-4.93 -2.5,-7.4 -7.5,-7.4zm-14.35 29.26c-3.72,0 -5.58,1.85 -5.58,5.57l0 7.04c0,3.78 1.86,5.67 5.58,5.67l7.04 0c3.78,0 5.67,-1.89 5.67,-5.67l0 -7.04c0,-3.72 -1.89,-5.57 -5.67,-5.57l-7.04 0zm55.95 47.45c4.08,0 6.13,-2.08 6.13,-6.22l0 -11.34c0,-4.14 -2.05,-6.21 -6.13,-6.21l-11.43 0c-4.14,0 -6.21,2.07 -6.21,6.21l0 11.34c0,4.14 2.07,6.22 6.21,6.22l11.43 0zm16.91 -38.31c-4.75,0 -7.13,2.38 -7.13,7.13l0 13.17c0,4.75 2.38,7.13 7.13,7.13l13.08 0c4.81,0 7.22,-2.38 7.22,-7.13l0 -13.17c0,-4.75 -2.41,-7.13 -7.22,-7.13l-13.08 0z"/>
  <path class="fil2" d="M91.24 215.28l13.08 0c4.81,0 7.22,2.38 7.22,7.13l0 13.17c0,4.75 -2.41,7.13 -7.22,7.13l-13.08 0c-4.75,0 -7.13,-2.38 -7.13,-7.13l0 -13.17c0,-4.75 2.38,-7.13 7.13,-7.13zm-18.01 -45.72l7.04 0c3.78,0 5.67,1.86 5.67,5.58l0 7.04c0,3.78 -1.89,5.67 -5.67,5.67l-7.04 0c-3.72,0 -5.57,-1.89 -5.57,-5.67l0 -7.04c0,-3.72 1.85,-5.58 5.57,-5.58zm-54.85 36.58l7.04 0c3.78,0 5.67,1.86 5.67,5.57l0 7.04c0,3.78 -1.89,5.67 -5.67,5.67l-7.04 0c-3.72,0 -5.58,-1.89 -5.58,-5.67l0 -7.04c0,-3.71 1.86,-5.57 5.58,-5.57z"/>
  <path class="fil7" d="M32.73 176.88c5,0 7.5,2.47 7.5,7.4l0 10.79c0,4.94 -2.5,7.41 -7.5,7.41l-10.7 0c-4.93,0 -7.4,-2.47 -7.4,-7.41l0 -10.79c0,-4.93 2.47,-7.4 7.4,-7.4l10.7 0zm41.6 76.71l-11.43 0c-4.14,0 -6.21,-2.08 -6.21,-6.22l0 -11.34c0,-4.14 2.07,-6.21 6.21,-6.21l11.43 0c4.08,0 6.13,2.07 6.13,6.21l0 11.34c0,4.14 -2.05,6.22 -6.13,6.22z"/>
  <path class="fil1" d="M138 158.87c0.06,-2.56 0.43,-4.82 1.1,-6.77 2.13,-6.46 7.4,-9.78 15.81,-9.96l0.74 0 92.7 0 0.83 0c10.91,0.24 16.51,5.82 16.82,16.73l0 14.99c-0.18,5.67 -3.23,8.51 -9.14,8.51l-45.72 0c-2.25,0 -4.08,-0.4 -5.48,-1.19 -2.38,-1.4 -3.6,-3.97 -3.66,-7.68 -0.12,5.91 -3.17,8.87 -9.14,8.87l-45.72 0c-5.91,0 -8.96,-2.84 -9.14,-8.51l0 -14.99z"/>
  <path class="fil0" d="M138 158.87l0 -2.74 0 -0.46 0 -0.46c0,-1.1 0.09,-2.13 0.28,-3.11l0.18 -0.82 0.09 -0.82 0.09 -0.19c0.37,-1.7 0.91,-3.23 1.65,-4.57l1.37 -1.92 1.64 -1.64 1.56 -1.1 0.55 -0.37c2.25,-1.21 5.06,-1.95 8.41,-2.19l0.27 0 0.18 0 0.28 0 0.27 0 0.28 0 0.27 0 0.28 0 92.7 0c5.37,0 9.51,1.22 12.44,3.66l1.37 1.28c2.44,2.8 3.72,6.76 3.84,11.88l0 3.57c-0.31,-10.91 -5.91,-16.49 -16.82,-16.73l-0.83 0 -92.7 0 -0.74 0c-8.41,0.18 -13.68,3.5 -15.81,9.96 -0.67,1.95 -1.04,4.21 -1.1,6.77z"/>
  <path class="fil5" d="M248.9 191.51l-0.27 0.18c-14.63,9.45 -27.37,20.05 -38.22,31.82l-0.09 0 -5.58 6.31 -3.84 0c-4.14,0 -6.21,2.07 -6.21,6.21l0 6.95c-3.97,5.67 -7.53,11.55 -10.7,17.65l-0.09 0.09 -2.93 5.76 -25.32 0c-5.24,0 -9.33,-1.16 -12.25,-3.47l-2.2 -2.29c-2.01,-2.74 -3.08,-6.4 -3.2,-10.97l0 -66.84c0.18,5.73 3.23,8.6 9.14,8.6l5.49 0 0 3.56c0,4.94 2.47,7.41 7.4,7.41l10.7 0c5,0 7.5,-2.47 7.5,-7.41l0 -3.56 14.63 0c5.97,0 9.02,-2.96 9.14,-8.87 0.12,5.91 3.17,8.87 9.14,8.87l37.76 0zm-98.1 27.24c0,3.78 1.86,5.67 5.58,5.67l7.04 0c3.78,0 5.67,-1.89 5.67,-5.67l0 -7.04c0,-3.71 -1.89,-5.57 -5.67,-5.57l-7.04 0c-3.72,0 -5.58,1.86 -5.58,5.57l0 7.04z"/>
  <path class="fil2" d="M150.8 218.75l0 -7.04c0,-3.71 1.86,-5.57 5.58,-5.57l7.04 0c3.78,0 5.67,1.86 5.67,5.57l0 7.04c0,3.78 -1.89,5.67 -5.67,5.67l-7.04 0c-3.72,0 -5.58,-1.89 -5.58,-5.67zm115.2 -44.89l0 7.59 -5.94 3.29c-3.84,2.2 -7.56,4.45 -11.16,6.77l-37.76 0c-5.97,0 -9.02,-2.96 -9.14,-8.87 -0.12,5.91 -3.17,8.87 -9.14,8.87l-14.63 0 -25.6 0 -5.49 0c-5.91,0 -8.96,-2.87 -9.14,-8.6l0 -9.05c0.18,5.67 3.23,8.51 9.14,8.51l45.72 0c5.97,0 9.02,-2.96 9.14,-8.87 0.06,3.71 1.28,6.28 3.66,7.68 1.4,0.79 3.23,1.19 5.48,1.19l45.72 0c5.91,0 8.96,-2.84 9.14,-8.51z"/>
  <path class="fil6" d="M144.86 141.04l-1.56 1.1 -1.64 1.64c0.85,-1.09 1.92,-2.01 3.2,-2.74z"/>
  <path class="fil7" d="M204.74 229.82c-3.59,4.2 -6.95,8.59 -10.05,13.16l0 -6.95c0,-4.14 2.07,-6.21 6.21,-6.21l3.84 0zm-26.51 -38.31l0 3.56c0,4.94 -2.5,7.41 -7.5,7.41l-10.7 0c-4.93,0 -7.4,-2.47 -7.4,-7.41l0 -3.56 25.6 0z"/>
  <path class="fil0" d="M276 158.87l0 -2.74 0 -0.46c0,-1.28 0.09,-2.47 0.27,-3.57l0.19 -0.82 0.09 -0.82 0.09 -0.19c1.71,-7.86 7.37,-11.79 17.01,-11.79l92.7 0c11.77,0 17.65,5.88 17.65,17.65l0 2.74c-0.31,-11.16 -6.19,-16.73 -17.65,-16.73l-92.7 0c-8.84,0 -14.36,3.32 -16.55,9.96 -0.67,1.95 -1.04,4.21 -1.1,6.77z"/>
  <path class="fil5" d="M276 158.87c0.06,-2.56 0.43,-4.82 1.1,-6.77 2.19,-6.64 7.71,-9.96 16.55,-9.96l92.7 0c11.46,0 17.34,5.57 17.65,16.73l0 90.88 0 1.19 -0.18 1.83c-0.43,3.1 -1.41,5.72 -2.93,7.86l-2.28 2.38c-2.93,2.31 -7.01,3.47 -12.26,3.47l-92.7 0c-5.25,0 -9.33,-1.16 -12.26,-3.47l-2.19 -2.29c-2.01,-2.74 -3.08,-6.4 -3.2,-10.97l0 -90.88zm80.27 10.7l-7.04 0c-3.72,0 -5.57,1.86 -5.57,5.57l0 7.04c0,3.78 1.85,5.67 5.57,5.67l7.04 0c3.78,0 5.67,-1.89 5.67,-5.67l0 -7.04c0,-3.71 -1.89,-5.57 -5.67,-5.57zm-47.54 7.31l-10.7 0c-4.93,0 -7.4,2.47 -7.4,7.41l0 10.78c0,4.94 2.47,7.41 7.4,7.41l10.7 0c5,0 7.5,-2.47 7.5,-7.41l0 -10.78c0,-4.94 -2.5,-7.41 -7.5,-7.41zm-7.31 29.26l-7.04 0c-3.72,0 -5.58,1.86 -5.58,5.57l0 7.04c0,3.78 1.86,5.67 5.58,5.67l7.04 0c3.78,0 5.67,-1.89 5.67,-5.67l0 -7.04c0,-3.71 -1.89,-5.57 -5.67,-5.57zm58.69 29.44c0,4.75 2.38,7.13 7.13,7.13l13.08 0c4.81,0 7.22,-2.38 7.22,-7.13l0 -13.17c0,-4.75 -2.41,-7.13 -7.22,-7.13l-13.08 0c-4.75,0 -7.13,2.38 -7.13,7.13l0 13.17zm-9.78 -5.76l-11.43 0c-4.14,0 -6.21,2.07 -6.21,6.21l0 11.34c0,4.15 2.07,6.22 6.21,6.22l11.43 0c4.08,0 6.13,-2.07 6.13,-6.22l0 -11.34c0,-4.14 -2.05,-6.21 -6.13,-6.21z"/>
  <path class="fil2" d="M356.27 169.57c3.78,0 5.67,1.86 5.67,5.57l0 7.04c0,3.78 -1.89,5.67 -5.67,5.67l-7.04 0c-3.72,0 -5.57,-1.89 -5.57,-5.67l0 -7.04c0,-3.71 1.85,-5.57 5.57,-5.57l7.04 0zm3.84 66.01l0 -13.17c0,-4.75 2.38,-7.13 7.13,-7.13l13.08 0c4.81,0 7.22,2.38 7.22,7.13l0 13.17c0,4.75 -2.41,7.13 -7.22,7.13l-13.08 0c-4.75,0 -7.13,-2.38 -7.13,-7.13zm-58.69 -29.44c3.78,0 5.67,1.86 5.67,5.57l0 7.05c0,3.77 -1.89,5.66 -5.67,5.66l-7.04 0c-3.72,0 -5.58,-1.89 -5.58,-5.66l0 -7.05c0,-3.71 1.86,-5.57 5.58,-5.57l7.04 0z"/>
  <path class="fil7" d="M308.73 176.88c5,0 7.5,2.47 7.5,7.41l0 10.78c0,4.94 -2.5,7.41 -7.5,7.41l-10.7 0c-4.93,0 -7.4,-2.47 -7.4,-7.41l0 -10.78c0,-4.94 2.47,-7.41 7.4,-7.41l10.7 0zm41.6 52.94c4.08,0 6.13,2.07 6.13,6.21l0 11.34c0,4.15 -2.05,6.22 -6.13,6.22l-11.43 0c-4.14,0 -6.21,-2.07 -6.21,-6.22l0 -11.34c0,-4.14 2.07,-6.21 6.21,-6.21l11.43 0z"/>
  <path class="fil0" d="M420.86 141.06l0.55 -0.37c2.25,-1.23 5.05,-1.96 8.41,-2.21l0.27 0 0.18 0 0.28 0 0.27 0 0.28 0 0.27 0 0.28 0 92.7 0c5.37,0 9.51,1.23 12.44,3.69l1.37 1.29c2.44,2.82 3.72,6.81 3.84,11.98l0 3.59c-0.31,-11 -5.91,-16.62 -16.82,-16.86l-0.83 0 -92.7 0 -0.74 0c-8.41,0.18 -13.68,3.53 -15.81,10.04 -0.67,1.97 -1.04,4.24 -1.1,6.82l0 -2.77 0 -0.46 0 -0.46c0,-1.1 0.09,-2.15 0.27,-3.13l0.19 -0.83 0.09 -0.83 0.09 -0.18c0.36,-1.72 0.91,-3.26 1.65,-4.61l1.37 -1.94 1.64 -1.65 1.56 -1.11z"/>
  <path class="fil6" d="M420.86 141.06l-1.56 1.11 -1.64 1.65c0.85,-1.1 1.92,-2.02 3.2,-2.76z"/>
  <path class="fil1" d="M414 159.03c0.06,-2.58 0.43,-4.85 1.1,-6.82 2.13,-6.51 7.4,-9.86 15.81,-10.04l0.74 0 92.7 0 0.83 0c10.91,0.24 16.51,5.86 16.82,16.86l0 15.11c-0.18,5.72 -3.23,8.57 -9.14,8.57l-45.72 0c-2.25,0 -4.08,-0.4 -5.48,-1.2 -2.38,-1.41 -3.6,-3.99 -3.66,-7.74 -0.12,5.96 -3.17,8.94 -9.14,8.94l-45.72 0c-5.91,0 -8.96,-2.85 -9.14,-8.57l0 -15.11z"/>
  <path class="fil2" d="M542 174.14l0 9.13c-0.18,5.77 -3.23,8.66 -9.14,8.66l-45.72 0c-5.97,0 -9.02,-2.98 -9.14,-8.94 -0.12,5.96 -3.17,8.94 -9.14,8.94l-14.63 0 -25.6 0 -5.49 0c-5.91,0 -8.96,-2.89 -9.14,-8.66l0 -9.13c0.18,5.72 3.23,8.57 9.14,8.57l45.72 0c5.97,0 9.02,-2.98 9.14,-8.94 0.06,3.75 1.28,6.33 3.66,7.74 1.4,0.8 3.23,1.2 5.48,1.2l45.72 0c5.91,0 8.96,-2.85 9.14,-8.57zm-16.46 50.5c-5.91,7.07 -13.32,13.33 -22.21,18.8 -3.48,-0.61 -5.22,-2.98 -5.22,-7.1l0 -13.27c0,-4.79 2.38,-7.18 7.13,-7.18l13.08 0c4.81,0 7.22,2.39 7.22,7.18l0 1.57zm-93.16 -17.97l7.04 0c3.78,0 5.67,1.88 5.67,5.62l0 7.1c0,3.81 -1.89,5.71 -5.67,5.71l-7.04 0c-3.72,0 -5.58,-1.9 -5.58,-5.71l0 -7.1c0,-3.74 1.86,-5.62 5.58,-5.62z"/>
  <path class="fil5" d="M432.38 206.67c-3.72,0 -5.58,1.88 -5.58,5.62l0 7.1c0,3.81 1.86,5.71 5.58,5.71l7.04 0c3.78,0 5.67,-1.9 5.67,-5.71l0 -7.1c0,-3.74 -1.89,-5.62 -5.67,-5.62l-7.04 0zm109.62 -23.4l0 0.82c-0.73,7.25 -2.32,14.1 -4.76,20.55l-0.09 0.1c-2.44,6.39 -5.73,12.28 -9.87,17.69l-1.74 2.21 0 -1.57c0,-4.79 -2.41,-7.18 -7.22,-7.18l-13.08 0c-4.75,0 -7.13,2.39 -7.13,7.18l0 13.27c0,4.12 1.74,6.49 5.22,7.1l-8.87 4.79 0 -11.42c0,-4.18 -2.05,-6.27 -6.13,-6.27l-11.43 0c-4.14,0 -6.21,2.09 -6.21,6.27l0 11.42c0,4.18 2.07,6.27 6.21,6.27l2.65 0c-5.54,2.03 -11.49,3.84 -17.83,5.44l-0.27 0 -7.68 1.84 -0.18 0 -29.35 4.7c-1.89,-0.55 -3.51,-1.38 -4.85,-2.49l-2.19 -2.3c-2.01,-2.77 -3.08,-6.45 -3.2,-11.06l0 -67.36c0.18,5.77 3.23,8.66 9.14,8.66l5.49 0 0 3.59c0,4.98 2.47,7.47 7.4,7.47l10.7 0c5,0 7.5,-2.49 7.5,-7.47l0 -3.59 14.63 0c5.97,0 9.02,-2.98 9.14,-8.94 0.12,5.96 3.17,8.94 9.14,8.94l45.72 0c5.91,0 8.96,-2.89 9.14,-8.66z"/>
  <path class="fil7" d="M494.46 248.23l-7.96 3.6 -0.27 0.09 -6.68 2.58 -2.65 0c-4.14,0 -6.21,-2.09 -6.21,-6.27l0 -11.42c0,-4.18 2.07,-6.27 6.21,-6.27l11.43 0c4.08,0 6.13,2.09 6.13,6.27l0 11.42zm-40.23 -56.3l0 3.59c0,4.98 -2.5,7.47 -7.5,7.47l-10.7 0c-4.93,0 -7.4,-2.49 -7.4,-7.47l0 -3.59 25.6 0z"/>
  <polygon class="fil0" points="1922,4.14 1918.34,0.48 1922,0.48 "/>
  <polygon class="fil1" points="1922,4.14 1922,32.75 1889.73,0.48 1918.34,0.48 "/>
  <path class="fil2" d="M1889.73 0.48l32.27 32.27 0 7.32 -39.59 -39.59 7.32 0zm-22.5 31.08l7.04 0c3.78,0 5.67,1.86 5.67,5.58l0 7.04c0,3.78 -1.89,5.67 -5.67,5.67l-7.04 0c-3.71,0 -5.57,-1.89 -5.57,-5.67l0 -7.04c0,-3.72 1.86,-5.58 5.57,-5.58zm18.02 73.15c-4.76,0 -7.14,-2.38 -7.14,-7.13l0 -13.17c0,-4.75 2.38,-7.13 7.14,-7.13l13.07 0c4.82,0 7.22,2.38 7.22,7.13l0 13.17c0,4.75 -2.4,7.13 -7.22,7.13l-13.07 0zm-72.87 -36.57l7.04 0c3.78,0 5.67,1.85 5.67,5.57l0 7.04c0,3.78 -1.89,5.67 -5.67,5.67l-7.04 0c-3.72,0 -5.58,-1.89 -5.58,-5.67l0 -7.04c0,-3.72 1.86,-5.57 5.58,-5.57z"/>
  <path class="fil5" d="M1812.38 68.14c-3.72,0 -5.58,1.85 -5.58,5.57l0 7.04c0,3.78 1.86,5.67 5.58,5.67l7.04 0c3.78,0 5.67,-1.89 5.67,-5.67l0 -7.04c0,-3.72 -1.89,-5.57 -5.67,-5.57l-7.04 0zm109.62 -28.07l0 71.68 0 1.19 0 15.54 -128 0 0 -110.35 0 -0.46 0 -17.19 88.41 0 39.59 39.59zm-54.77 -8.51c-3.71,0 -5.57,1.86 -5.57,5.58l0 7.04c0,3.78 1.86,5.67 5.57,5.67l7.04 0c3.78,0 5.67,-1.89 5.67,-5.67l0 -7.04c0,-3.72 -1.89,-5.58 -5.67,-5.58l-7.04 0zm-40.5 7.32l-10.7 0c-4.93,0 -7.4,2.47 -7.4,7.41l0 10.78c0,4.94 2.47,7.41 7.4,7.41l10.7 0c5,0 7.5,-2.47 7.5,-7.41l0 -10.78c0,-4.94 -2.5,-7.41 -7.5,-7.41zm58.52 65.83l13.07 0c4.82,0 7.22,-2.38 7.22,-7.13l0 -13.17c0,-4.75 -2.4,-7.13 -7.22,-7.13l-13.07 0c-4.76,0 -7.14,2.38 -7.14,7.13l0 13.17c0,4.75 2.38,7.13 7.14,7.13zm-16.92 -12.89l-11.43 0c-4.14,0 -6.21,2.07 -6.21,6.21l0 11.34c0,4.14 2.07,6.22 6.21,6.22l11.43 0c4.09,0 6.13,-2.08 6.13,-6.22l0 -11.34c0,-4.14 -2.04,-6.21 -6.13,-6.21z"/>
  <path class="fil7" d="M1868.33 91.82c4.09,0 6.13,2.07 6.13,6.21l0 11.34c0,4.14 -2.04,6.22 -6.13,6.22l-11.43 0c-4.14,0 -6.21,-2.08 -6.21,-6.22l0 -11.34c0,-4.14 2.07,-6.21 6.21,-6.21l11.43 0zm-41.6 -52.94c5,0 7.5,2.47 7.5,7.41l0 10.78c0,4.94 -2.5,7.41 -7.5,7.41l-10.7 0c-4.93,0 -7.4,-2.47 -7.4,-7.41l0 -10.78c0,-4.94 2.47,-7.41 7.4,-7.41l10.7 0z"/>
  <polygon class="fil0" points="690.18,4.14 690.18,0.48 693.84,0.48 "/>
  <polygon class="fil1" points="690.18,4.14 693.84,0.48 722.46,0.48 690.18,32.75 "/>
  <path class="fil5" d="M690.18 4.14l0 28.61 0 7.32 39.59 -39.59 88.23 0 0 111.27 0 1.19 0 15.54 -128 0 0 -110.35 0 -0.46 0 -17.19 0.18 0 0 3.66zm73.05 27.43c-3.71,0 -5.57,1.86 -5.57,5.57l0 7.04c0,3.78 1.86,5.67 5.57,5.67l7.04 0c3.78,0 5.67,-1.89 5.67,-5.67l0 -7.04c0,-3.71 -1.89,-5.57 -5.67,-5.57l-7.04 0zm-40.5 7.31l-10.7 0c-4.93,0 -7.4,2.47 -7.4,7.41l0 10.78c0,4.94 2.47,7.41 7.4,7.41l10.7 0c5,0 7.5,-2.47 7.5,-7.41l0 -10.78c0,-4.94 -2.5,-7.41 -7.5,-7.41zm-7.31 29.26l-7.04 0c-3.72,0 -5.58,1.86 -5.58,5.57l0 7.04c0,3.78 1.86,5.67 5.58,5.67l7.04 0c3.78,0 5.67,-1.89 5.67,-5.67l0 -7.04c0,-3.71 -1.89,-5.57 -5.67,-5.57zm65.83 36.57l13.07 0c4.81,0 7.22,-2.38 7.22,-7.13l0 -13.17c0,-4.75 -2.41,-7.13 -7.22,-7.13l-13.07 0c-4.76,0 -7.14,2.38 -7.14,7.13l0 13.17c0,4.75 2.38,7.13 7.14,7.13zm-34.56 -6.68l0 11.34c0,4.15 2.07,6.22 6.21,6.22l11.43 0c4.09,0 6.13,-2.07 6.13,-6.22l0 -11.34c0,-4.14 -2.04,-6.21 -6.13,-6.21l-11.43 0c-4.14,0 -6.21,2.07 -6.21,6.21z"/>
  <path class="fil4" d="M715.42 68.14c3.78,0 5.67,1.86 5.67,5.57l0 7.04c0,3.78 -1.89,5.67 -5.67,5.67l-7.04 0c-3.72,0 -5.58,-1.89 -5.58,-5.67l0 -7.04c0,-3.71 1.86,-5.57 5.58,-5.57l7.04 0z"/>
  <path class="fil4" d="M781.25 104.71c-4.76,0 -7.14,-2.38 -7.14,-7.13l0 -13.17c0,-4.75 2.38,-7.13 7.14,-7.13l13.07 0c4.81,0 7.22,2.38 7.22,7.13l0 13.17c0,4.75 -2.41,7.13 -7.22,7.13l-13.07 0z"/>
  <path class="fil2" d="M763.23 31.57l7.04 0c3.78,0 5.67,1.86 5.67,5.57l0 7.04c0,3.78 -1.89,5.67 -5.67,5.67l-7.04 0c-3.71,0 -5.57,-1.89 -5.57,-5.67l0 -7.04c0,-3.71 1.86,-5.57 5.57,-5.57z"/>
  <polygon class="fil2" points="729.77,0.48 690.18,40.07 690.18,32.75 722.46,0.48 "/>
  <path class="fil7" d="M722.73 38.88c5,0 7.5,2.47 7.5,7.41l0 10.78c0,4.94 -2.5,7.41 -7.5,7.41l-10.7 0c-4.93,0 -7.4,-2.47 -7.4,-7.41l0 -10.78c0,-4.94 2.47,-7.41 7.4,-7.41l10.7 0zm23.96 59.15c0,-4.14 2.07,-6.21 6.21,-6.21l11.43 0c4.09,0 6.13,2.07 6.13,6.21l0 11.34c0,4.15 -2.04,6.22 -6.13,6.22l-11.43 0c-4.14,0 -6.21,-2.07 -6.21,-6.22l0 -11.34z"/>
  <polygon class="fil9" points="138,4.23 138,0.48 266,0.48 266,4.23 "/>
  <path class="fil10" d="M138 4.23l128 0 0 31.72c-0.18,5.73 -3.23,8.6 -9.14,8.6l-45.72 0c-2.25,0 -4.08,-0.4 -5.48,-1.19 -2.38,-1.4 -3.6,-3.99 -3.66,-7.77 -0.12,5.97 -3.17,8.96 -9.14,8.96l-45.72 0c-5.91,0 -8.96,-2.87 -9.14,-8.6l0 -17.74 0 -0.45 0 -13.53z"/>
  <path class="fil11" d="M266 35.95l0 9.15c-0.18,5.73 -3.23,8.59 -9.14,8.59l-45.72 0c-5.97,0 -9.02,-2.96 -9.14,-8.87 -0.12,5.91 -3.17,8.87 -9.14,8.87l-14.63 0 -25.6 0 -5.49 0c-5.91,0 -8.96,-2.86 -9.14,-8.59l0 -9.15c0.18,5.73 3.23,8.6 9.14,8.6l45.72 0c5.97,0 9.02,-2.99 9.14,-8.96 0.06,3.78 1.28,6.37 3.66,7.77 1.4,0.79 3.23,1.19 5.48,1.19l45.72 0c5.91,0 8.96,-2.87 9.14,-8.6zm-96.91 37.67l-18.29 0c0.12,-3.53 1.98,-5.3 5.58,-5.3l7.04 0c3.65,0 5.54,1.77 5.67,5.3z"/>
  <path class="fil12" d="M169.09 73.62c-0.13,-3.53 -2.02,-5.3 -5.67,-5.3l-7.04 0c-3.6,0 -5.46,1.77 -5.58,5.3l-12.8 0 0 -28.52c0.18,5.73 3.23,8.59 9.14,8.59l5.49 0 0 3.57c0,4.93 2.47,7.4 7.4,7.4l10.7 0c5,0 7.5,-2.47 7.5,-7.4l0 -3.57 14.63 0c5.97,0 9.02,-2.96 9.14,-8.87 0.12,5.91 3.17,8.87 9.14,8.87l45.72 0c5.91,0 8.96,-2.86 9.14,-8.59l0 28.52 -96.91 0z"/>
  <path class="fil13" d="M178.23 53.69l0 3.57c0,4.93 -2.5,7.4 -7.5,7.4l-10.7 0c-4.93,0 -7.4,-2.47 -7.4,-7.4l0 -3.57 25.6 0z"/>
  <path class="fil10" d="M276 4.23l16.91 0 0.74 0 93.53 0c10.91,0.24 16.51,5.82 16.82,16.73l0 14.99c-0.18,5.73 -3.23,8.6 -9.14,8.6l-45.72 0c-2.25,0 -4.08,-0.4 -5.48,-1.19 -2.38,-1.4 -3.6,-3.99 -3.66,-7.77 -0.12,5.97 -3.17,8.96 -9.14,8.96l-45.72 0c-5.91,0 -8.96,-2.87 -9.14,-8.6l0 -31.72z"/>
  <path class="fil9" d="M276 4.23l0 -3.75 110.35 0 3.94 0.27 0.18 0c3.41,0.49 6.18,1.65 8.32,3.48 2.01,1.71 3.44,3.99 4.3,6.86 0.54,1.82 0.85,3.93 0.91,6.3l0 3.57c-0.31,-10.91 -5.91,-16.49 -16.82,-16.73l-93.53 0 -0.74 0 -16.91 0z"/>
  <path class="fil12" d="M316.23 53.69l14.63 0 1.83 -0.09c4.75,-0.55 7.19,-3.47 7.31,-8.78 0.12,5.91 3.17,8.87 9.14,8.87l45.72 0 3.29 -0.36c3.78,-0.92 5.73,-3.66 5.85,-8.23l0 11.79 0 1.19 -0.18 1.83c-0.43,3.11 -1.41,5.73 -2.93,7.86l-2.28 2.38c-2.93,2.32 -7.01,3.47 -12.26,3.47l-79.26 0c-0.13,-3.53 -2.02,-5.3 -5.67,-5.3l-7.04 0c-3.48,0 -5.34,1.65 -5.58,4.94l0 0.36 -12.8 0 0 -28.52c0.12,4.57 2.07,7.31 5.85,8.23l3.29 0.36 5.49 0 0 3.57c0,4.93 2.47,7.4 7.4,7.4l10.7 0c5,0 7.5,-2.47 7.5,-7.4l0 -3.57z"/>
  <path class="fil11" d="M316.23 53.69l-25.6 0 -5.49 0 -3.29 -0.37c-3.78,-0.91 -5.73,-3.65 -5.85,-8.22l0 -9.15c0.18,5.73 3.23,8.6 9.14,8.6l45.72 0c5.97,0 9.02,-2.99 9.14,-8.96 0.06,3.78 1.28,6.37 3.66,7.77 1.4,0.79 3.23,1.19 5.48,1.19l45.72 0c5.91,0 8.96,-2.87 9.14,-8.6l0 9.15c-0.12,4.57 -2.07,7.31 -5.85,8.22l-3.29 0.37 -45.72 0c-5.97,0 -9.02,-2.96 -9.14,-8.87 -0.12,5.3 -2.56,8.23 -7.31,8.78l-1.83 0.09 -14.63 0zm-27.43 19.93l0 -0.36c0.24,-3.3 2.1,-4.94 5.58,-4.94l7.04 0c3.65,0 5.54,1.77 5.67,5.3l-18.29 0z"/>
  <path class="fil13" d="M316.23 53.69l0 3.57c0,4.93 -2.5,7.4 -7.5,7.4l-10.7 0c-4.93,0 -7.4,-2.47 -7.4,-7.4l0 -3.57 25.6 0z"/>
  <path class="fil1" d="M966 11.45c0.06,-2.99 1.13,-5.55 3.2,-7.68 2.19,-2.19 4.85,-3.29 7.95,-3.29 3.11,0 5.73,1.1 7.87,3.29 2.13,2.13 3.23,4.69 3.29,7.68l-0.64 0c-0.55,-1.46 -1.43,-2.8 -2.65,-4.02 -2.14,-2.2 -4.76,-3.29 -7.87,-3.29 -3.1,0 -5.76,1.09 -7.95,3.29 -1.16,1.22 -2.01,2.56 -2.56,4.02l-0.64 0z"/>
  <path class="fil2" d="M966 11.45l0.64 0c0.55,-1.46 1.4,-2.8 2.56,-4.02 2.19,-2.2 4.85,-3.29 7.95,-3.29 3.11,0 5.73,1.09 7.87,3.29 1.22,1.22 2.1,2.56 2.65,4.02l0.64 0 0 3.66 0 63.54 0 49.83 -22.31 0 0 -117.03z"/>
  <path class="fil14" d="M988.31 11.45c15.6,-9.93 33.13,-7.62 52.57,6.95 16.15,12.07 31.54,17.71 46.17,16.91l0 3.66 -1.46 0.09c-14.2,0.31 -29.11,-5.36 -44.71,-17 -19.44,-14.57 -36.97,-16.89 -52.57,-6.95l0 -3.66z"/>
  <path class="fil4" d="M1087.05 38.97l-1.46 1.83c-15.97,20.23 -32.12,27.46 -48.46,21.67 -17.19,-6.1 -33.46,-0.7 -48.82,16.18l0 -63.54c15.6,-9.94 33.13,-7.62 52.57,6.95 15.6,11.64 30.51,17.31 44.71,17l1.46 -0.09z"/>
  <path class="fil15" d="M552 294.13l0 -0.46 0 -17.19 128 0 0 111.27 0 1.19 0 15.54 -128 0 0 -110.35zm73.23 13.43c-3.72,0 -5.57,1.86 -5.57,5.58l0 7.04c0,3.78 1.85,5.67 5.57,5.67l7.04 0c3.78,0 5.67,-1.89 5.67,-5.67l0 -7.04c0,-3.72 -1.89,-5.58 -5.67,-5.58l-7.04 0zm-40.5 7.32l-10.7 0c-4.93,0 -7.4,2.47 -7.4,7.4l0 10.79c0,4.94 2.47,7.41 7.4,7.41l10.7 0c5,0 7.5,-2.47 7.5,-7.41l0 -10.79c0,-4.93 -2.5,-7.4 -7.5,-7.4zm-14.35 29.26c-3.72,0 -5.58,1.85 -5.58,5.57l0 7.04c0,3.78 1.86,5.67 5.58,5.67l7.04 0c3.78,0 5.67,-1.89 5.67,-5.67l0 -7.04c0,-3.72 -1.89,-5.57 -5.67,-5.57l-7.04 0zm55.95 47.45c4.08,0 6.13,-2.08 6.13,-6.22l0 -11.34c0,-4.14 -2.05,-6.21 -6.13,-6.21l-11.43 0c-4.14,0 -6.21,2.07 -6.21,6.21l0 11.34c0,4.14 2.07,6.22 6.21,6.22l11.43 0zm16.91 -38.31c-4.75,0 -7.13,2.38 -7.13,7.13l0 13.17c0,4.75 2.38,7.13 7.13,7.13l13.08 0c4.81,0 7.22,-2.38 7.22,-7.13l0 -13.17c0,-4.75 -2.41,-7.13 -7.22,-7.13l-13.08 0z"/>
  <path class="fil16" d="M643.24 353.28l13.08 0c4.81,0 7.22,2.38 7.22,7.13l0 13.17c0,4.75 -2.41,7.13 -7.22,7.13l-13.08 0c-4.75,0 -7.13,-2.38 -7.13,-7.13l0 -13.17c0,-4.75 2.38,-7.13 7.13,-7.13zm-18.01 -45.72l7.04 0c3.78,0 5.67,1.86 5.67,5.58l0 7.04c0,3.78 -1.89,5.67 -5.67,5.67l-7.04 0c-3.72,0 -5.57,-1.89 -5.57,-5.67l0 -7.04c0,-3.72 1.85,-5.58 5.57,-5.58zm-54.85 36.58l7.04 0c3.78,0 5.67,1.86 5.67,5.57l0 7.04c0,3.78 -1.89,5.67 -5.67,5.67l-7.04 0c-3.72,0 -5.58,-1.89 -5.58,-5.67l0 -7.04c0,-3.71 1.86,-5.57 5.58,-5.57z"/>
  <path class="fil17" d="M584.73 314.88c5,0 7.5,2.47 7.5,7.4l0 10.79c0,4.94 -2.5,7.41 -7.5,7.41l-10.7 0c-4.93,0 -7.4,-2.47 -7.4,-7.41l0 -10.79c0,-4.93 2.47,-7.4 7.4,-7.4l10.7 0zm41.6 76.71l-11.43 0c-4.14,0 -6.21,-2.08 -6.21,-6.22l0 -11.34c0,-4.14 2.07,-6.21 6.21,-6.21l11.43 0c4.08,0 6.13,2.07 6.13,6.21l0 11.34c0,4.14 -2.05,6.22 -6.13,6.22z"/>
  <path class="fil18" d="M690 296.87c0.06,-2.56 0.43,-4.82 1.1,-6.77 2.13,-6.46 7.4,-9.78 15.81,-9.96l0.74 0 92.7 0 0.83 0c10.91,0.24 16.51,5.82 16.82,16.73l0 14.99c-0.18,5.67 -3.23,8.51 -9.14,8.51l-45.72 0c-2.25,0 -4.08,-0.4 -5.48,-1.19 -2.38,-1.4 -3.6,-3.97 -3.66,-7.68 -0.12,5.91 -3.17,8.87 -9.14,8.87l-45.72 0c-5.91,0 -8.96,-2.84 -9.14,-8.51l0 -14.99z"/>
  <path class="fil19" d="M690 296.87l0 -2.74 0 -0.46 0 -0.46c0,-1.1 0.09,-2.13 0.27,-3.11l0.19 -0.82 0.09 -0.82 0.09 -0.19c0.37,-1.7 0.91,-3.23 1.65,-4.57l1.37 -1.92 1.64 -1.64 1.56 -1.1 0.55 -0.37c2.25,-1.21 5.06,-1.95 8.41,-2.19l0.27 0 0.18 0 0.28 0 0.27 0 0.28 0 0.27 0 0.28 0 92.7 0c5.37,0 9.51,1.22 12.44,3.66l1.37 1.28c2.44,2.8 3.72,6.76 3.84,11.88l0 3.57c-0.31,-10.91 -5.91,-16.49 -16.82,-16.73l-0.83 0 -92.7 0 -0.74 0c-8.41,0.18 -13.68,3.5 -15.81,9.96 -0.67,1.95 -1.04,4.21 -1.1,6.77z"/>
  <path class="fil15" d="M800.9 329.51l-0.27 0.18c-14.63,9.45 -27.37,20.05 -38.22,31.82l-0.09 0 -5.58 6.31 -3.84 0c-4.14,0 -6.21,2.07 -6.21,6.21l0 6.95c-3.97,5.67 -7.53,11.55 -10.7,17.65l-0.09 0.09 -2.93 5.76 -25.32 0c-5.25,0 -9.33,-1.16 -12.25,-3.47l-2.2 -2.29c-2.01,-2.74 -3.08,-6.4 -3.2,-10.97l0 -66.84c0.18,5.73 3.23,8.6 9.14,8.6l5.49 0 0 3.56c0,4.94 2.47,7.41 7.4,7.41l10.7 0c5,0 7.5,-2.47 7.5,-7.41l0 -3.56 14.63 0c5.97,0 9.02,-2.96 9.14,-8.87 0.12,5.91 3.17,8.87 9.14,8.87l37.76 0zm-98.1 27.24c0,3.78 1.86,5.67 5.58,5.67l7.04 0c3.78,0 5.67,-1.89 5.67,-5.67l0 -7.04c0,-3.71 -1.89,-5.57 -5.67,-5.57l-7.04 0c-3.72,0 -5.58,1.86 -5.58,5.57l0 7.04z"/>
  <path class="fil16" d="M702.8 356.75l0 -7.04c0,-3.71 1.86,-5.57 5.58,-5.57l7.04 0c3.78,0 5.67,1.86 5.67,5.57l0 7.04c0,3.78 -1.89,5.67 -5.67,5.67l-7.04 0c-3.72,0 -5.58,-1.89 -5.58,-5.67zm115.2 -44.89l0 7.59 -5.94 3.29c-3.84,2.2 -7.56,4.45 -11.16,6.77l-37.76 0c-5.97,0 -9.02,-2.96 -9.14,-8.87 -0.12,5.91 -3.17,8.87 -9.14,8.87l-14.63 0 -25.6 0 -5.49 0c-5.91,0 -8.96,-2.87 -9.14,-8.6l0 -9.05c0.18,5.67 3.23,8.51 9.14,8.51l45.72 0c5.97,0 9.02,-2.96 9.14,-8.87 0.06,3.71 1.28,6.28 3.66,7.68 1.4,0.79 3.23,1.19 5.48,1.19l45.72 0c5.91,0 8.96,-2.84 9.14,-8.51z"/>
  <path class="fil6" d="M696.86 279.04l-1.56 1.1 -1.64 1.64c0.85,-1.09 1.92,-2.01 3.2,-2.74z"/>
  <path class="fil17" d="M756.74 367.82c-3.59,4.2 -6.95,8.59 -10.05,13.16l0 -6.95c0,-4.14 2.07,-6.21 6.21,-6.21l3.84 0zm-26.51 -38.31l0 3.56c0,4.94 -2.5,7.41 -7.5,7.41l-10.7 0c-4.93,0 -7.4,-2.47 -7.4,-7.41l0 -3.56 25.6 0z"/>
  <path class="fil19" d="M828 296.87l0 -2.74 0 -0.46c0,-1.28 0.09,-2.47 0.27,-3.57l0.19 -0.82 0.09 -0.82 0.09 -0.19c1.71,-7.86 7.37,-11.79 17.01,-11.79l92.7 0c11.77,0 17.65,5.88 17.65,17.65l0 2.74c-0.31,-11.16 -6.19,-16.73 -17.65,-16.73l-92.7 0c-8.84,0 -14.36,3.32 -16.55,9.96 -0.67,1.95 -1.04,4.21 -1.1,6.77z"/>
  <path class="fil15" d="M828 296.87c0.06,-2.56 0.43,-4.82 1.1,-6.77 2.19,-6.64 7.71,-9.96 16.55,-9.96l92.7 0c11.46,0 17.34,5.57 17.65,16.73l0 90.88 0 1.19 -0.18 1.83c-0.43,3.1 -1.41,5.72 -2.93,7.86l-2.28 2.38c-2.93,2.31 -7.01,3.47 -12.26,3.47l-92.7 0c-5.25,0 -9.33,-1.16 -12.26,-3.47l-2.19 -2.29c-2.01,-2.74 -3.08,-6.4 -3.2,-10.97l0 -90.88zm80.27 10.7l-7.04 0c-3.72,0 -5.57,1.86 -5.57,5.57l0 7.04c0,3.78 1.85,5.67 5.57,5.67l7.04 0c3.78,0 5.67,-1.89 5.67,-5.67l0 -7.04c0,-3.71 -1.89,-5.57 -5.67,-5.57zm-47.54 7.31l-10.7 0c-4.93,0 -7.4,2.47 -7.4,7.41l0 10.78c0,4.94 2.47,7.41 7.4,7.41l10.7 0c5,0 7.5,-2.47 7.5,-7.41l0 -10.78c0,-4.94 -2.5,-7.41 -7.5,-7.41zm-7.31 29.26l-7.04 0c-3.72,0 -5.58,1.86 -5.58,5.57l0 7.04c0,3.78 1.86,5.67 5.58,5.67l7.04 0c3.78,0 5.67,-1.89 5.67,-5.67l0 -7.04c0,-3.71 -1.89,-5.57 -5.67,-5.57zm58.69 29.44c0,4.75 2.38,7.13 7.13,7.13l13.08 0c4.81,0 7.22,-2.38 7.22,-7.13l0 -13.17c0,-4.75 -2.41,-7.13 -7.22,-7.13l-13.08 0c-4.75,0 -7.13,2.38 -7.13,7.13l0 13.17zm-9.78 -5.76l-11.43 0c-4.14,0 -6.21,2.07 -6.21,6.21l0 11.34c0,4.15 2.07,6.22 6.21,6.22l11.43 0c4.08,0 6.13,-2.07 6.13,-6.22l0 -11.34c0,-4.14 -2.05,-6.21 -6.13,-6.21z"/>
  <path class="fil16" d="M908.27 307.57c3.78,0 5.67,1.86 5.67,5.57l0 7.04c0,3.78 -1.89,5.67 -5.67,5.67l-7.04 0c-3.72,0 -5.57,-1.89 -5.57,-5.67l0 -7.04c0,-3.71 1.85,-5.57 5.57,-5.57l7.04 0zm3.84 66.01l0 -13.17c0,-4.75 2.38,-7.13 7.13,-7.13l13.08 0c4.81,0 7.22,2.38 7.22,7.13l0 13.17c0,4.75 -2.41,7.13 -7.22,7.13l-13.08 0c-4.75,0 -7.13,-2.38 -7.13,-7.13zm-58.69 -29.44c3.78,0 5.67,1.86 5.67,5.57l0 7.05c0,3.77 -1.89,5.66 -5.67,5.66l-7.04 0c-3.72,0 -5.58,-1.89 -5.58,-5.66l0 -7.05c0,-3.71 1.86,-5.57 5.58,-5.57l7.04 0z"/>
  <path class="fil17" d="M860.73 314.88c5,0 7.5,2.47 7.5,7.41l0 10.78c0,4.94 -2.5,7.41 -7.5,7.41l-10.7 0c-4.93,0 -7.4,-2.47 -7.4,-7.41l0 -10.78c0,-4.94 2.47,-7.41 7.4,-7.41l10.7 0zm41.6 52.94c4.08,0 6.13,2.07 6.13,6.21l0 11.34c0,4.15 -2.05,6.22 -6.13,6.22l-11.43 0c-4.14,0 -6.21,-2.07 -6.21,-6.22l0 -11.34c0,-4.14 2.07,-6.21 6.21,-6.21l11.43 0z"/>
  <path class="fil19" d="M972.86 279.06l0.55 -0.37c2.25,-1.23 5.05,-1.96 8.41,-2.21l0.27 0 0.18 0 0.28 0 0.27 0 0.28 0 0.27 0 0.28 0 92.7 0c5.37,0 9.51,1.23 12.44,3.69l1.37 1.29c2.44,2.82 3.72,6.81 3.84,11.98l0 3.59c-0.31,-11 -5.91,-16.62 -16.82,-16.86l-0.83 0 -92.7 0 -0.74 0c-8.41,0.18 -13.68,3.53 -15.81,10.04 -0.67,1.97 -1.04,4.24 -1.1,6.82l0 -2.77 0 -0.46 0 -0.46c0,-1.1 0.09,-2.15 0.27,-3.13l0.19 -0.83 0.09 -0.83 0.09 -0.18c0.36,-1.72 0.91,-3.26 1.65,-4.61l1.37 -1.94 1.64 -1.65 1.56 -1.11z"/>
  <path class="fil6" d="M972.86 279.06l-1.56 1.11 -1.64 1.65c0.85,-1.1 1.92,-2.02 3.2,-2.76z"/>
  <path class="fil18" d="M966 297.03c0.06,-2.58 0.43,-4.85 1.1,-6.82 2.13,-6.51 7.4,-9.86 15.81,-10.04l0.74 0 92.7 0 0.83 0c10.91,0.24 16.51,5.86 16.82,16.86l0 15.11c-0.19,5.72 -3.23,8.57 -9.14,8.57l-45.72 0c-2.25,0 -4.08,-0.4 -5.48,-1.2 -2.38,-1.41 -3.6,-3.99 -3.66,-7.74 -0.12,5.96 -3.17,8.94 -9.14,8.94l-45.72 0c-5.91,0 -8.96,-2.85 -9.14,-8.57l0 -15.11z"/>
  <path class="fil16" d="M1094 312.14l0 9.13c-0.19,5.77 -3.23,8.66 -9.14,8.66l-45.72 0c-5.97,0 -9.02,-2.98 -9.14,-8.94 -0.12,5.96 -3.17,8.94 -9.14,8.94l-14.63 0 -25.6 0 -5.49 0c-5.91,0 -8.96,-2.89 -9.14,-8.66l0 -9.13c0.18,5.72 3.23,8.57 9.14,8.57l45.72 0c5.97,0 9.02,-2.98 9.14,-8.94 0.06,3.75 1.28,6.33 3.66,7.74 1.4,0.8 3.23,1.2 5.48,1.2l45.72 0c5.91,0 8.95,-2.85 9.14,-8.57zm-16.46 50.5c-5.91,7.07 -13.32,13.33 -22.21,18.8 -3.48,-0.61 -5.22,-2.98 -5.22,-7.1l0 -13.27c0,-4.79 2.38,-7.18 7.13,-7.18l13.08 0c4.81,0 7.22,2.39 7.22,7.18l0 1.57zm-93.16 -17.97l7.04 0c3.78,0 5.67,1.88 5.67,5.62l0 7.1c0,3.81 -1.89,5.71 -5.67,5.71l-7.04 0c-3.72,0 -5.58,-1.9 -5.58,-5.71l0 -7.1c0,-3.74 1.86,-5.62 5.58,-5.62z"/>
  <path class="fil15" d="M984.38 344.67c-3.72,0 -5.58,1.88 -5.58,5.62l0 7.1c0,3.81 1.86,5.71 5.58,5.71l7.04 0c3.78,0 5.67,-1.9 5.67,-5.71l0 -7.1c0,-3.74 -1.89,-5.62 -5.67,-5.62l-7.04 0zm109.62 -23.4l0 0.82c-0.73,7.25 -2.32,14.1 -4.76,20.55l-0.09 0.1c-2.44,6.39 -5.73,12.28 -9.87,17.69l-1.74 2.21 0 -1.57c0,-4.79 -2.41,-7.18 -7.22,-7.18l-13.08 0c-4.75,0 -7.13,2.39 -7.13,7.18l0 13.27c0,4.12 1.74,6.49 5.22,7.1l-8.87 4.79 0 -11.42c0,-4.18 -2.05,-6.27 -6.13,-6.27l-11.43 0c-4.14,0 -6.21,2.09 -6.21,6.27l0 11.42c0,4.18 2.07,6.27 6.21,6.27l2.65 0c-5.54,2.03 -11.49,3.84 -17.83,5.44l-0.27 0 -7.68 1.84 -0.18 0 -29.35 4.7c-1.89,-0.55 -3.51,-1.38 -4.85,-2.49l-2.19 -2.3c-2.01,-2.77 -3.08,-6.45 -3.2,-11.06l0 -67.36c0.18,5.77 3.23,8.66 9.14,8.66l5.49 0 0 3.59c0,4.98 2.47,7.47 7.4,7.47l10.7 0c5,0 7.5,-2.49 7.5,-7.47l0 -3.59 14.63 0c5.97,0 9.02,-2.98 9.14,-8.94 0.12,5.96 3.17,8.94 9.14,8.94l45.72 0c5.91,0 8.95,-2.89 9.14,-8.66z"/>
  <path class="fil17" d="M1046.46 386.23l-7.96 3.6 -0.27 0.09 -6.68 2.58 -2.65 0c-4.14,0 -6.21,-2.09 -6.21,-6.27l0 -11.42c0,-4.18 2.07,-6.27 6.21,-6.27l11.43 0c4.08,0 6.13,2.09 6.13,6.27l0 11.42zm-40.23 -56.3l0 3.59c0,4.98 -2.5,7.47 -7.5,7.47l-10.7 0c-4.93,0 -7.4,-2.49 -7.4,-7.47l0 -3.59 25.6 0z"/>
  <path class="fil19" d="M1111.41 140.68c2.25,-1.22 5.05,-1.96 8.41,-2.2l0.27 0 0.18 0 0.28 0 0.27 0 0.28 0 0.27 0 0.28 0 92.7 0c5.37,0 9.51,1.22 12.44,3.66l1.37 1.28c2.44,2.8 3.72,6.76 3.84,11.88l0 3.57c-0.31,-10.91 -5.91,-16.49 -16.82,-16.73l-0.83 0 -92.7 0 -0.74 0c-8.41,0.18 -13.68,3.5 -15.81,9.96 -0.67,1.95 -1.04,4.21 -1.1,6.77l0 -2.74 0 -0.46 0 -0.46c0,-1.1 0.09,-2.13 0.27,-3.11l0.19 -0.82 0.09 -0.82 0.09 -0.18c0.37,-1.71 0.91,-3.24 1.65,-4.58l1.37 -1.92 1.64 -1.64 2.11 -1.46z"/>
  <path class="fil18" d="M1104 158.87c0.06,-2.56 0.43,-4.82 1.1,-6.77 2.13,-6.46 7.4,-9.78 15.81,-9.96l0.74 0 92.7 0 0.83 0c10.91,0.24 16.51,5.82 16.82,16.73l0 14.99c-0.18,5.67 -3.23,8.51 -9.14,8.51l-45.72 0c-2.25,0 -4.08,-0.4 -5.48,-1.19 -2.38,-1.4 -3.6,-3.96 -3.66,-7.68 -0.12,5.91 -3.17,8.87 -9.14,8.87l-45.72 0c-5.91,0 -8.96,-2.84 -9.14,-8.51l0 -14.99z"/>
  <path class="fil2" d="M1188.11 222.41c0,-4.75 2.38,-7.13 7.14,-7.13l13.07 0c4.81,0 7.22,2.38 7.22,7.13l0 13.17c0,4.75 -2.41,7.13 -7.22,7.13l-13.07 0c-4.76,0 -7.14,-2.38 -7.14,-7.13l0 -13.17z"/>
  <path class="fil3" d="M1122.38 206.14l7.04 0c3.78,0 5.67,1.86 5.67,5.57l0 7.04c0,3.78 -1.89,5.67 -5.67,5.67l-7.04 0c-3.72,0 -5.58,-1.89 -5.58,-5.67l0 -7.04c0,-3.71 1.86,-5.57 5.58,-5.57z"/>
  <path class="fil16" d="M1232 173.86l0 9.05c-0.18,5.73 -3.23,8.6 -9.14,8.6l-45.72 0c-5.97,0 -9.02,-2.96 -9.14,-8.87 -0.12,5.91 -3.17,8.87 -9.14,8.87l-14.63 0 -25.6 0 -5.49 0c-5.91,0 -8.96,-2.87 -9.14,-8.6l0 -9.05c0.18,5.67 3.23,8.51 9.14,8.51l45.72 0c5.97,0 9.02,-2.96 9.14,-8.87 0.06,3.71 1.28,6.28 3.66,7.68 1.4,0.79 3.23,1.19 5.48,1.19l45.72 0c5.91,0 8.96,-2.84 9.14,-8.51z"/>
  <path class="fil4" d="M1166.9 229.82l11.43 0c4.09,0 6.13,2.07 6.13,6.21l0 11.34c0,4.15 -2.04,6.22 -6.13,6.22l-11.43 0c-4.14,0 -6.21,-2.07 -6.21,-6.22l0 -11.34c0,-4.14 2.07,-6.21 6.21,-6.21z"/>
  <path class="fil4" d="M1144.23 191.51l0 3.56c0,4.94 -2.5,7.41 -7.5,7.41l-10.7 0c-4.93,0 -7.4,-2.47 -7.4,-7.41l0 -3.56 25.6 0z"/>
  <path class="fil15" d="M1166.9 229.82c-4.14,0 -6.21,2.07 -6.21,6.21l0 11.34c0,4.15 2.07,6.22 6.21,6.22l11.43 0c4.09,0 6.13,-2.07 6.13,-6.22l0 -11.34c0,-4.14 -2.04,-6.21 -6.13,-6.21l-11.43 0zm65.1 -46.91l0 66.84 0 1.19 -0.18 1.83c-0.43,3.1 -1.41,5.72 -2.93,7.86l-2.28 2.38c-2.93,2.31 -7.01,3.47 -12.26,3.47l-92.7 0c-5.25,0 -9.33,-1.16 -12.26,-3.47l-2.19 -2.29c-2.01,-2.74 -3.08,-6.4 -3.2,-10.97l0 -66.84c0.18,5.73 3.23,8.6 9.14,8.6l5.49 0 0 3.56c0,4.94 2.47,7.41 7.4,7.41l10.7 0c5,0 7.5,-2.47 7.5,-7.41l0 -3.56 14.63 0c5.97,0 9.02,-2.96 9.14,-8.87 0.12,5.91 3.17,8.87 9.14,8.87l45.72 0c5.91,0 8.96,-2.87 9.14,-8.6zm-109.62 23.23c-3.72,0 -5.58,1.86 -5.58,5.57l0 7.04c0,3.78 1.86,5.67 5.58,5.67l7.04 0c3.78,0 5.67,-1.89 5.67,-5.67l0 -7.04c0,-3.71 -1.89,-5.57 -5.67,-5.57l-7.04 0zm65.73 16.27l0 13.17c0,4.75 2.38,7.13 7.14,7.13l13.07 0c4.81,0 7.22,-2.38 7.22,-7.13l0 -13.17c0,-4.75 -2.41,-7.13 -7.22,-7.13l-13.07 0c-4.76,0 -7.14,2.38 -7.14,7.13z"/>
  <path class="fil6" d="M1111.41 140.67l-2.11 1.47 -1.64 1.64c0.97,-1.28 2.22,-2.31 3.75,-3.11z"/>
  <path class="fil19" d="M1387.41 140.67c2.25,-1.21 5.05,-1.95 8.41,-2.19l0.27 0 0.18 0 0.28 0 0.27 0 0.28 0 0.27 0 0.28 0 110.35 0 0 3.66 -110.35 0 -0.74 0c-8.41,0.18 -13.68,3.5 -15.81,9.96 -0.67,1.95 -1.04,4.21 -1.1,6.77l0 -2.74 0 -0.46 0 -0.46c0,-1.1 0.09,-2.13 0.27,-3.11l0.19 -0.82 0.09 -0.82 0.09 -0.19c0.37,-1.7 0.91,-3.23 1.65,-4.57l1.37 -1.92 1.64 -1.64 2.11 -1.47z"/>
  <path class="fil18" d="M1380 158.87c0.06,-2.56 0.43,-4.82 1.1,-6.77 2.13,-6.46 7.4,-9.78 15.81,-9.96l0.74 0 110.35 0 0 31.72c-0.18,5.67 -3.23,8.5 -9.14,8.5l-45.72 0c-2.25,0 -4.08,-0.39 -5.48,-1.18 -2.38,-1.41 -3.6,-3.97 -3.66,-7.68 -0.12,5.91 -3.17,8.86 -9.14,8.86l-45.72 0c-5.91,0 -8.96,-2.83 -9.14,-8.5l0 -14.99z"/>
  <path class="fil16" d="M1508 173.86l0 9.05c-0.18,5.73 -3.23,8.6 -9.14,8.6l-45.72 0c-5.97,0 -9.02,-2.96 -9.14,-8.87 -0.12,5.91 -3.17,8.87 -9.14,8.87l-14.63 0 -25.6 0 -5.49 0c-5.91,0 -8.96,-2.87 -9.14,-8.6l0 -9.05c0.18,5.67 3.23,8.5 9.14,8.5l45.72 0c5.97,0 9.02,-2.95 9.14,-8.86 0.06,3.71 1.28,6.27 3.66,7.68 1.4,0.79 3.23,1.18 5.48,1.18l45.72 0c5.91,0 8.96,-2.83 9.14,-8.5zm-36.75 41.42l13.07 0c4.81,0 7.22,2.38 7.22,7.13l0 13.17c0,4.75 -2.41,7.13 -7.22,7.13l-13.07 0c-4.76,0 -7.14,-2.38 -7.14,-7.13l0 -13.17c0,-4.75 2.38,-7.13 7.14,-7.13zm-72.87 -9.14l7.04 0c3.78,0 5.67,1.86 5.67,5.57l0 7.04c0,3.78 -1.89,5.67 -5.67,5.67l-7.04 0c-3.72,0 -5.58,-1.89 -5.58,-5.67l0 -7.04c0,-3.71 1.86,-5.57 5.58,-5.57z"/>
  <path class="fil15" d="M1398.38 206.14c-3.72,0 -5.58,1.85 -5.58,5.57l0 7.04c0,3.78 1.86,5.67 5.58,5.67l7.04 0c3.78,0 5.67,-1.89 5.67,-5.67l0 -7.04c0,-3.72 -1.89,-5.57 -5.67,-5.57l-7.04 0zm109.62 -23.23l0 66.84 0 1.19 0 15.54 -110.35 0c-5.25,0 -9.33,-1.16 -12.26,-3.48l-2.19 -2.28c-2.01,-2.74 -3.08,-6.4 -3.2,-10.97l0 -66.84c0.18,5.73 3.23,8.6 9.14,8.6l5.49 0 0 3.56c0,4.94 2.47,7.41 7.4,7.41l10.7 0c5,0 7.5,-2.47 7.5,-7.41l0 -3.56 14.63 0c5.97,0 9.02,-2.96 9.14,-8.87 0.12,5.91 3.17,8.87 9.14,8.87l45.72 0c5.91,0 8.96,-2.87 9.14,-8.6zm-36.75 32.37c-4.76,0 -7.14,2.38 -7.14,7.13l0 13.17c0,4.75 2.38,7.13 7.14,7.13l13.07 0c4.81,0 7.22,-2.38 7.22,-7.13l0 -13.17c0,-4.75 -2.41,-7.13 -7.22,-7.13l-13.07 0zm-28.35 14.54c-4.14,0 -6.21,2.07 -6.21,6.21l0 11.34c0,4.14 2.07,6.22 6.21,6.22l11.43 0c4.08,0 6.13,-2.08 6.13,-6.22l0 -11.34c0,-4.14 -2.05,-6.21 -6.13,-6.21l-11.43 0z"/>
  <path class="fil17" d="M1442.9 229.82l11.43 0c4.08,0 6.13,2.07 6.13,6.21l0 11.34c0,4.15 -2.05,6.22 -6.13,6.22l-11.43 0c-4.14,0 -6.21,-2.07 -6.21,-6.22l0 -11.34c0,-4.14 2.07,-6.21 6.21,-6.21zm-22.67 -38.31l0 3.56c0,4.94 -2.5,7.41 -7.5,7.41l-10.7 0c-4.93,0 -7.4,-2.47 -7.4,-7.41l0 -3.56 25.6 0z"/>
  <path class="fil6" d="M1387.41 140.67l-2.11 1.47 -1.64 1.64c0.97,-1.28 2.22,-2.31 3.75,-3.11z"/>
  <path class="fil16" d="M1656 173.86c0.18,5.67 3.23,8.5 9.14,8.5l45.72 0c5.97,0 9.02,-2.95 9.14,-8.86 0.06,3.71 1.28,6.27 3.66,7.68 1.4,0.79 3.23,1.18 5.48,1.18l45.72 0c5.91,0 8.96,-2.83 9.14,-8.5l0 9.05c-0.18,5.73 -3.23,8.6 -9.14,8.6l-45.72 0c-5.97,0 -9.02,-2.96 -9.14,-8.87 -0.12,5.91 -3.17,8.87 -9.14,8.87l-14.63 0 -25.6 0 -5.49 0c-5.91,0 -8.96,-2.87 -9.14,-8.6l0 -9.05zm104.32 41.42c4.82,0 7.22,2.38 7.22,7.13l0 13.17c0,4.75 -2.4,7.13 -7.22,7.13l-13.07 0c-4.76,0 -7.13,-2.38 -7.13,-7.13l0 -13.17c0,-4.75 2.37,-7.13 7.13,-7.13l13.07 0zm-85.94 -9.14l7.04 0c3.78,0 5.67,1.86 5.67,5.57l0 7.04c0,3.78 -1.89,5.67 -5.67,5.67l-7.04 0c-3.72,0 -5.58,-1.89 -5.58,-5.67l0 -7.04c0,-3.71 1.86,-5.57 5.58,-5.57z"/>
  <path class="fil15" d="M1674.38 206.14c-3.72,0 -5.58,1.85 -5.58,5.57l0 7.04c0,3.78 1.86,5.67 5.58,5.67l7.04 0c3.78,0 5.67,-1.89 5.67,-5.67l0 -7.04c0,-3.72 -1.89,-5.57 -5.67,-5.57l-7.04 0zm-18.38 -23.23c0.18,5.73 3.23,8.6 9.14,8.6l5.49 0 0 3.56c0,4.94 2.47,7.41 7.41,7.41l10.69 0c5,0 7.5,-2.47 7.5,-7.41l0 -3.56 14.63 0c5.97,0 9.02,-2.96 9.14,-8.87 0.12,5.91 3.17,8.87 9.14,8.87l45.72 0c5.91,0 8.96,-2.87 9.14,-8.6l0 66.84 0 1.19 0 15.54 -128 0 0 -83.57zm104.32 32.37l-13.07 0c-4.76,0 -7.13,2.38 -7.13,7.13l0 13.17c0,4.75 2.37,7.13 7.13,7.13l13.07 0c4.82,0 7.22,-2.38 7.22,-7.13l0 -13.17c0,-4.75 -2.4,-7.13 -7.22,-7.13zm-41.42 14.54c-4.14,0 -6.21,2.07 -6.21,6.21l0 11.34c0,4.14 2.07,6.22 6.21,6.22l11.43 0c4.09,0 6.13,-2.08 6.13,-6.22l0 -11.34c0,-4.14 -2.04,-6.21 -6.13,-6.21l-11.43 0z"/>
  <path class="fil18" d="M1784 173.86c-0.18,5.67 -3.23,8.5 -9.14,8.5l-45.72 0c-2.25,0 -4.08,-0.39 -5.48,-1.18 -2.38,-1.41 -3.6,-3.97 -3.66,-7.68 -0.12,5.91 -3.17,8.86 -9.14,8.86l-45.72 0c-5.91,0 -8.96,-2.83 -9.14,-8.5l0 -17.73 0 -0.46 0 -13.53 128 0 0 31.72z"/>
  <polygon class="fil19" points="1784,142.14 1656,142.14 1656,138.48 1784,138.48 "/>
  <path class="fil17" d="M1670.63 191.51l25.6 0 0 3.56c0,4.94 -2.5,7.41 -7.5,7.41l-10.69 0c-4.94,0 -7.41,-2.47 -7.41,-7.41l0 -3.56zm48.27 38.31l11.43 0c4.09,0 6.13,2.07 6.13,6.21l0 11.34c0,4.15 -2.04,6.22 -6.13,6.22l-11.43 0c-4.14,0 -6.21,-2.07 -6.21,-6.22l0 -11.34c0,-4.14 2.07,-6.21 6.21,-6.21z"/>
  <path class="fil19" d="M1794 142.14l0 -3.66 110.35 0 3.94 0.27 0.18 0c3.41,0.49 6.18,1.62 8.32,3.39 2.01,1.7 3.44,3.99 4.3,6.85 0.54,1.83 0.85,3.93 0.91,6.31l0 3.57c-0.31,-10.91 -5.91,-16.49 -16.82,-16.73l-93.53 0 -0.74 0 -16.91 0z"/>
  <path class="fil16" d="M1922 173.86l0 9.05c-0.18,5.73 -3.23,8.6 -9.14,8.6l-45.72 0c-5.97,0 -9.02,-2.96 -9.14,-8.87 -0.12,5.91 -3.17,8.87 -9.14,8.87l-14.63 0 -25.6 0 -5.49 0c-5.91,0 -8.96,-2.87 -9.14,-8.6l0 -9.05c0.18,5.67 3.23,8.5 9.14,8.5l45.72 0c5.97,0 9.02,-2.95 9.14,-8.86 0.06,3.71 1.28,6.27 3.66,7.68 1.4,0.79 3.23,1.18 5.48,1.18l45.72 0c5.91,0 8.96,-2.83 9.14,-8.5zm-36.75 41.42l13.07 0c4.81,0 7.22,2.38 7.22,7.13l0 13.17c0,4.75 -2.41,7.13 -7.22,7.13l-13.07 0c-4.76,0 -7.14,-2.38 -7.14,-7.13l0 -13.17c0,-4.75 2.38,-7.13 7.14,-7.13zm-72.87 -9.14l7.04 0c3.78,0 5.67,1.86 5.67,5.57l0 7.04c0,3.78 -1.89,5.67 -5.67,5.67l-7.04 0c-3.72,0 -5.58,-1.89 -5.58,-5.67l0 -7.04c0,-3.71 1.86,-5.57 5.58,-5.57z"/>
  <path class="fil18" d="M1794 142.14l16.91 0 0.74 0 93.53 0c10.91,0.24 16.51,5.82 16.82,16.73l0 14.99c-0.18,5.67 -3.23,8.5 -9.14,8.5l-45.72 0c-2.25,0 -4.08,-0.39 -5.48,-1.18 -2.38,-1.41 -3.6,-3.97 -3.66,-7.68 -0.12,5.91 -3.17,8.86 -9.14,8.86l-45.72 0c-5.91,0 -8.96,-2.83 -9.14,-8.5l0 -17.73 0 -0.46 0 -13.53z"/>
  <path class="fil15" d="M1922 182.91l0 66.84 0 1.19 -0.18 1.82c-0.43,3.11 -1.4,5.73 -2.93,7.87l-2.28 2.37c-2.93,2.32 -7.01,3.48 -12.26,3.48l-110.35 0 0 -83.57c0.18,5.73 3.23,8.6 9.14,8.6l5.49 0 0 3.56c0,4.94 2.47,7.41 7.4,7.41l10.7 0c5,0 7.5,-2.47 7.5,-7.41l0 -3.56 14.63 0c5.97,0 9.02,-2.96 9.14,-8.87 0.12,5.91 3.17,8.87 9.14,8.87l45.72 0c5.91,0 8.96,-2.87 9.14,-8.6zm-36.75 32.37c-4.76,0 -7.14,2.38 -7.14,7.13l0 13.17c0,4.75 2.38,7.13 7.14,7.13l13.07 0c4.81,0 7.22,-2.38 7.22,-7.13l0 -13.17c0,-4.75 -2.41,-7.13 -7.22,-7.13l-13.07 0zm-72.87 -9.14c-3.72,0 -5.58,1.85 -5.58,5.57l0 7.04c0,3.78 1.86,5.67 5.58,5.67l7.04 0c3.78,0 5.67,-1.89 5.67,-5.67l0 -7.04c0,-3.72 -1.89,-5.57 -5.67,-5.57l-7.04 0zm44.52 23.68c-3.11,0 -5.06,1.18 -5.85,3.56l-0.36 2.65 0 11.34c0,4.14 2.07,6.22 6.21,6.22l11.43 0c4.09,0 6.13,-2.08 6.13,-6.22l0 -11.34 -0.37 -2.65c-0.73,-2.38 -2.65,-3.56 -5.76,-3.56l-11.43 0z"/>
  <path class="fil17" d="M1856.9 229.82l11.43 0c3.11,0 5.03,1.18 5.76,3.56l0.37 2.65 0 11.34c0,4.15 -2.04,6.22 -6.13,6.22l-11.43 0c-4.14,0 -6.21,-2.07 -6.21,-6.22l0 -11.34 0.36 -2.65c0.79,-2.38 2.74,-3.56 5.85,-3.56zm-22.67 -38.31l0 3.56c0,4.94 -2.5,7.41 -7.5,7.41l-10.7 0c-4.93,0 -7.4,-2.47 -7.4,-7.41l0 -3.56 25.6 0z"/>
  <path class="fil19" d="M1939.41 140.6c2.25,-1.18 5.05,-1.88 8.41,-2.12l0.27 0 0.18 0 0.28 0 0.27 0 0.28 0 0.27 0 0.28 0 92.7 0c5.37,0 9.51,1.18 12.44,3.53l1.37 1.24c2.44,2.71 3.72,6.54 3.84,11.49l0 3.44c-0.31,-10.54 -5.91,-15.93 -16.82,-16.17l-0.83 0 -92.7 0 -0.74 0c-8.41,0.18 -13.68,3.39 -15.81,9.64 -0.67,1.88 -1.04,4.06 -1.1,6.53l0 -2.65 0 -0.44 0 -0.44c0,-1.06 0.09,-2.06 0.27,-3l0.19 -0.8 0.09 -0.79 0.09 -0.18c0.37,-1.65 0.91,-3.12 1.65,-4.42l1.37 -1.85 1.64 -1.6 2.11 -1.41z"/>
  <path class="fil18" d="M1932 158.18c0.06,-2.47 0.43,-4.65 1.1,-6.53 2.13,-6.25 7.4,-9.46 15.81,-9.64l0.74 0 92.7 0 0.83 0c10.91,0.24 16.51,5.63 16.82,16.17l0 14.5c-0.18,5.48 -3.23,8.22 -9.14,8.22l-45.72 0c-2.25,0 -4.08,-0.39 -5.48,-1.15 -2.38,-1.36 -3.6,-3.83 -3.66,-7.43 -0.12,5.72 -3.17,8.58 -9.14,8.58l-45.72 0c-5.91,0 -8.96,-2.74 -9.14,-8.22l0 -14.5z"/>
  <path class="fil16" d="M2060 172.68l0 8.75c-0.18,5.53 -3.23,8.3 -9.14,8.3l-45.72 0c-5.97,0 -9.02,-2.85 -9.14,-8.57 -0.12,5.72 -3.17,8.57 -9.14,8.57l-14.63 0 -25.6 0 -5.49 0c-5.91,0 -8.96,-2.77 -9.14,-8.3l0 -8.75c0.18,5.48 3.23,8.22 9.14,8.22l45.72 0c5.97,0 9.02,-2.86 9.14,-8.58 0.06,3.6 1.28,6.07 3.66,7.43 1.4,0.76 3.23,1.15 5.48,1.15l45.72 0c5.91,0 8.96,-2.74 9.14,-8.22zm-111.27 48.78l-2.01 -2.48 -1.92 -2.47 0 -0.45 0 -6.8c0,-3.59 1.86,-5.39 5.58,-5.39l7.04 0c3.78,0 5.67,1.8 5.67,5.39l0 6.8c0,3.66 -1.89,5.48 -5.67,5.48l-7.04 0 -1.65 -0.08zm67.38 10.86l0 -12.72c0,-4.6 2.38,-6.89 7.14,-6.89l13.07 0c4.81,0 7.22,2.29 7.22,6.89l0 12.72c0,4.6 -2.41,6.9 -7.22,6.9l-13.07 0c-4.76,0 -7.14,-2.3 -7.14,-6.9z"/>
  <path class="fil17" d="M1994.45 249.73c-1.89,-0.06 -3.3,-0.56 -4.21,-1.5 -1.04,-1 -1.55,-2.5 -1.55,-4.51l0 -10.95c0,-4.01 2.07,-6.01 6.21,-6.01l11.43 0c4.09,0 6.13,2 6.13,6.01l0 10.95c0,4.01 -2.04,6.01 -6.13,6.01l-11.43 0 -0.45 0zm-22.22 -60l0 3.45c0,4.77 -2.5,7.16 -7.5,7.16l-10.7 0c-4.93,0 -7.4,-2.39 -7.4,-7.16l0 -3.45 25.6 0z"/>
  <path class="fil15" d="M1972.23 189.73l14.63 0c5.97,0 9.02,-2.85 9.14,-8.57 0.12,5.72 3.17,8.57 9.14,8.57l45.72 0c5.91,0 8.96,-2.77 9.14,-8.3l0 64.59 0 1.15 -0.18 1.77c-0.43,3 -1.4,5.53 -2.93,7.6l-2.28 2.29c-1.35,1.06 -2.93,1.86 -4.76,2.39 -10.54,-1.12 -20.36,-2.62 -29.44,-4.51l-0.18 0 -7.68 -1.76 -0.28 0 -17.82 -5.22 0.45 0 11.43 0c4.09,0 6.13,-2 6.13,-6.01l0 -10.95c0,-4.01 -2.04,-6.01 -6.13,-6.01l-11.43 0c-4.14,0 -6.21,2 -6.21,6.01l0 10.95c0,2.01 0.51,3.51 1.55,4.51l-2.47 -0.97 -0.27 -0.09c-16.58,-6.6 -29.5,-15.17 -38.77,-25.71l1.65 0.08 7.04 0c3.78,0 5.67,-1.82 5.67,-5.48l0 -6.8c0,-3.59 -1.89,-5.39 -5.67,-5.39l-7.04 0c-3.72,0 -5.58,1.8 -5.58,5.39l0 6.8 0 0.45c-3.23,-4.54 -5.88,-9.37 -7.95,-14.5l-0.1 -0.08c-2.43,-6.19 -4.02,-12.76 -4.75,-19.71l0 -0.79c0.18,5.53 3.23,8.3 9.14,8.3l5.49 0 0 3.45c0,4.77 2.47,7.16 7.4,7.16l10.7 0c5,0 7.5,-2.39 7.5,-7.16l0 -3.45zm43.88 42.59c0,4.6 2.38,6.9 7.14,6.9l13.07 0c4.81,0 7.22,-2.3 7.22,-6.9l0 -12.72c0,-4.6 -2.41,-6.89 -7.22,-6.89l-13.07 0c-4.76,0 -7.14,2.29 -7.14,6.89l0 12.72z"/>
  <path class="fil6" d="M1939.41 140.6l-2.11 1.41 -1.64 1.59c0.97,-1.23 2.22,-2.24 3.75,-3z"/>
  <path class="fil15" d="M2070 156.13l0 -0.46 0 -17.19 0.18 0 0 3.66 0 13.99 -0.18 0 0.18 1.09 0 13.53 0 7.32 14.43 14.44 0 2.56c0,4.94 2.46,7.41 7.39,7.41l2.56 0 4.84 4.84c-0.91,-0.79 -2.25,-1.18 -4.02,-1.18l-7.03 0c-3.71,0 -5.57,1.86 -5.57,5.57l0 7.04c0,3.78 1.86,5.67 5.57,5.67l7.03 0c3.77,0 5.66,-1.89 5.66,-5.67l0 -7.04c0,-1.7 -0.36,-2.98 -1.09,-3.84l26.75 26.79 -0.1 1.37 0 11.34c0,4.14 2.07,6.22 6.21,6.22l11.41 0 1.28 -0.09 12.97 12.98 -88.47 0 0 -110.35z"/>
  <polygon class="fil19" points="2070.18,142.14 2070.18,138.48 2094.01,162.53 2096.48,164.99 2099.49,167.92 2198,266.48 2194.35,266.48 "/>
  <polygon class="fil18" points="2070.18,142.14 2194.35,266.48 2165.77,266.48 2070.18,170.75 2070.18,157.22 2070.18,156.13 "/>
  <path class="fil17" d="M2126.7 234.66l18.8 18.84 -1.28 0.09 -11.41 0c-4.14,0 -6.21,-2.08 -6.21,-6.22l0 -11.34 0.1 -1.37zm-32.14 -32.18l-2.56 0c-4.93,0 -7.39,-2.47 -7.39,-7.41l0 -2.56 9.95 9.97z"/>
  <path class="fil16" d="M2094.56 202.48l-9.95 -9.97 -14.43 -14.44 0 -7.32 95.59 95.73 -7.3 0 -12.97 -12.98 -18.8 -18.84 -26.75 -26.79c0.73,0.86 1.09,2.14 1.09,3.84l0 7.04c0,3.78 -1.89,5.67 -5.66,5.67l-7.03 0c-3.71,0 -5.57,-1.89 -5.57,-5.67l0 -7.04c0,-3.72 1.86,-5.57 5.57,-5.57l7.03 0c1.77,0 3.11,0.39 4.02,1.18l-4.84 -4.84z"/>
  <polygon class="fil8" points="2070,156.13 2070.18,156.13 2070.18,157.22 "/>
  <path class="fil19" d="M966 158.96l0 -2.74 0 -0.46 0 -0.46c0,-1.09 0.09,-2.13 0.28,-3.11l0.18 -0.82 0.09 -0.82 0.09 -0.19c0.73,-3.47 2.29,-6.18 4.67,-8.13 2.86,-2.5 6.97,-3.75 12.34,-3.75l92.7 0 3.94 0.27 0.18 0c3.41,0.49 6.19,1.65 8.32,3.48 2.01,1.7 3.44,3.99 4.3,6.86 0.54,1.82 0.85,3.93 0.91,6.3l0 3.57c-0.3,-10.91 -5.91,-16.49 -16.82,-16.73l-93.53 0 -0.73 0c-8.42,0.18 -13.69,3.5 -15.82,9.96 -0.67,1.95 -1.04,4.21 -1.1,6.77z"/>
  <path class="fil20" d="M966 158.96c0.06,-2.56 0.43,-4.82 1.1,-6.77 2.13,-6.46 7.4,-9.78 15.82,-9.96l0.73 0 93.53 0c10.91,0.24 16.52,5.82 16.82,16.73l0 14.99c-0.18,5.73 -3.23,8.6 -9.14,8.6l-45.72 0c-2.25,0 -4.08,-0.4 -5.48,-1.19 -2.38,-1.4 -3.6,-3.99 -3.66,-7.77 -0.12,5.97 -3.17,8.96 -9.14,8.96l-45.72 0c-5.91,0 -8.95,-2.87 -9.14,-8.6l0 -14.99z"/>
  <path class="fil16" d="M1094 173.95l0 9.15c-0.12,4.57 -2.07,7.31 -5.85,8.23l-3.29 0.36 -45.72 0c-5.97,0 -9.02,-2.96 -9.14,-8.87 -0.12,5.3 -2.56,8.23 -7.31,8.78l-1.83 0.09 -14.63 0 -25.6 0 -5.49 0 -3.29 -0.36c-3.78,-0.92 -5.73,-3.66 -5.85,-8.23l0 -9.15c0.19,5.73 3.23,8.6 9.14,8.6l45.72 0c5.97,0 9.02,-2.99 9.14,-8.96 0.06,3.78 1.28,6.37 3.66,7.77 1.4,0.79 3.23,1.19 5.48,1.19l45.72 0c5.91,0 8.96,-2.87 9.14,-8.6zm-96.91 37.67l-18.29 0 0 -0.36c0.24,-3.3 2.11,-4.94 5.58,-4.94l7.04 0c3.66,0 5.55,1.77 5.67,5.3z"/>
  <path class="fil15" d="M997.09 211.62c-0.12,-3.53 -2.01,-5.3 -5.67,-5.3l-7.04 0c-3.47,0 -5.34,1.65 -5.58,4.94 -2.98,-0.55 -5.45,-1.59 -7.4,-3.11l-2.2 -2.29c-2.01,-2.74 -3.08,-6.4 -3.2,-10.97l0 -11.79c0.12,4.57 2.07,7.31 5.85,8.23l3.29 0.36 5.49 0 0 3.57c0,4.93 2.47,7.4 7.41,7.4l10.69 0c5,0 7.5,-2.47 7.5,-7.4l0 -3.57 14.63 0 1.83 -0.09c4.75,-0.55 7.19,-3.48 7.31,-8.78 0.12,5.92 3.17,8.87 9.14,8.87l45.72 0 3.29 -0.36c3.78,-0.92 5.73,-3.66 5.85,-8.23l0 11.79 0 1.19 -0.18 1.83c-0.43,3.11 -1.4,5.73 -2.93,7.86l-2.28 2.38c-2.93,2.32 -7.01,3.47 -12.26,3.47l-79.26 0z"/>
  <path class="fil17" d="M1006.23 191.69l0 3.57c0,4.93 -2.5,7.4 -7.5,7.4l-10.69 0c-4.94,0 -7.41,-2.47 -7.41,-7.4l0 -3.57 25.6 0z"/>
  <path class="fil18" d="M681 173.47c-0.18,5.73 -3.23,8.6 -9.14,8.6l-45.72 0c-2.25,0 -4.08,-0.4 -5.48,-1.19 -2.38,-1.4 -3.6,-3.99 -3.66,-7.77 -0.12,5.97 -3.17,8.96 -9.14,8.96l-45.72 0c-5.91,0 -8.96,-2.87 -9.14,-8.6l0 -14.99c0.06,-2.56 0.43,-4.82 1.1,-6.77 2.13,-6.46 7.4,-9.78 15.81,-9.96l0.74 0 110.35 0 0 31.72z"/>
  <path class="fil16" d="M681 173.47l0 9.15c-0.12,4.57 -2.07,7.31 -5.85,8.23l-3.29 0.36 -45.72 0c-5.97,0 -9.02,-2.95 -9.14,-8.87 -0.12,5.31 -2.56,8.23 -7.31,8.78l-1.83 0.09 -14.63 0 -25.6 0 -5.49 0 -3.29 -0.36c-3.78,-0.92 -5.73,-3.66 -5.85,-8.23l0 -9.15c0.18,5.73 3.23,8.6 9.14,8.6l45.72 0c5.97,0 9.02,-2.99 9.14,-8.96 0.06,3.78 1.28,6.37 3.66,7.77 1.4,0.79 3.23,1.19 5.48,1.19l45.72 0c5.91,0 8.96,-2.87 9.14,-8.6zm-115.2 37.31c0.24,-3.29 2.1,-4.94 5.58,-4.94l7.04 0c3.66,0 5.55,1.77 5.67,5.3l-18.29 0 0 -0.36z"/>
  <path class="fil15" d="M565.8 210.78c-2.99,-0.55 -5.45,-1.59 -7.4,-3.11l-2.2 -2.29c-2.01,-2.74 -3.08,-6.4 -3.2,-10.97l0 -11.79c0.12,4.57 2.07,7.31 5.85,8.23l3.29 0.36 5.49 0 0 3.57c0,4.93 2.47,7.4 7.4,7.4l10.7 0c5,0 7.5,-2.47 7.5,-7.4l0 -3.57 14.63 0 1.83 -0.09c4.75,-0.55 7.19,-3.47 7.31,-8.78 0.12,5.92 3.17,8.87 9.14,8.87l45.72 0 3.29 -0.36c3.78,-0.92 5.73,-3.66 5.85,-8.23l0 28.52 -96.91 0c-0.12,-3.53 -2.01,-5.3 -5.67,-5.3l-7.04 0c-3.48,0 -5.34,1.65 -5.58,4.94z"/>
  <path class="fil17" d="M567.63 191.21l25.6 0 0 3.57c0,4.93 -2.5,7.4 -7.5,7.4l-10.7 0c-4.93,0 -7.4,-2.47 -7.4,-7.4l0 -3.57z"/>
  <path class="fil19" d="M681 141.75l-110.35 0 -0.74 0c-8.41,0.18 -13.68,3.5 -15.81,9.96 -0.67,1.95 -1.04,4.21 -1.1,6.77l0 -2.74 0 -0.46 0 -0.46c0,-1.09 0.09,-2.13 0.28,-3.11l0.18 -0.82 0.09 -0.82 0.09 -0.18c0.73,-3.48 2.29,-6.19 4.66,-8.14 2.87,-2.5 6.98,-3.75 12.35,-3.75l110.35 0 0 3.75z"/>
  <polygon class="fil19" points="1242.18,142.14 1242.18,138.48 1245.84,138.48 "/>
  <polygon class="fil18" points="1242.18,142.14 1245.84,138.48 1274.46,138.48 1242.18,170.75 "/>
  <path class="fil15" d="M1242.18 142.14l0 28.61 0 7.32 39.59 -39.59 88.23 0 0 111.27 0 1.19 0 15.54 -128 0 0 -110.35 0 -0.46 0 -17.19 0.18 0 0 3.66zm73.05 27.43c-3.71,0 -5.57,1.86 -5.57,5.57l0 7.04c0,3.78 1.86,5.67 5.57,5.67l7.04 0c3.78,0 5.67,-1.89 5.67,-5.67l0 -7.04c0,-3.71 -1.89,-5.57 -5.67,-5.57l-7.04 0zm-40.5 7.31l-10.7 0c-4.93,0 -7.4,2.47 -7.4,7.41l0 10.78c0,4.94 2.47,7.41 7.4,7.41l10.7 0c5,0 7.5,-2.47 7.5,-7.41l0 -10.78c0,-4.94 -2.5,-7.41 -7.5,-7.41zm-7.31 29.26l-7.04 0c-3.72,0 -5.58,1.86 -5.58,5.57l0 7.04c0,3.78 1.86,5.67 5.58,5.67l7.04 0c3.78,0 5.67,-1.89 5.67,-5.67l0 -7.04c0,-3.71 -1.89,-5.57 -5.67,-5.57zm65.83 36.57l13.07 0c4.81,0 7.22,-2.38 7.22,-7.13l0 -13.17c0,-4.75 -2.41,-7.13 -7.22,-7.13l-13.07 0c-4.76,0 -7.14,2.38 -7.14,7.13l0 13.17c0,4.75 2.38,7.13 7.14,7.13zm-34.56 -6.68l0 11.34c0,4.15 2.07,6.22 6.21,6.22l11.43 0c4.09,0 6.13,-2.07 6.13,-6.22l0 -11.34c0,-4.14 -2.04,-6.21 -6.13,-6.21l-11.43 0c-4.14,0 -6.21,2.07 -6.21,6.21z"/>
  <path class="fil4" d="M1267.42 206.14c3.78,0 5.67,1.86 5.67,5.57l0 7.04c0,3.78 -1.89,5.67 -5.67,5.67l-7.04 0c-3.72,0 -5.58,-1.89 -5.58,-5.67l0 -7.04c0,-3.71 1.86,-5.57 5.58,-5.57l7.04 0z"/>
  <path class="fil4" d="M1333.25 242.71c-4.76,0 -7.14,-2.38 -7.14,-7.13l0 -13.17c0,-4.75 2.38,-7.13 7.14,-7.13l13.07 0c4.81,0 7.22,2.38 7.22,7.13l0 13.17c0,4.75 -2.41,7.13 -7.22,7.13l-13.07 0z"/>
  <path class="fil2" d="M1315.23 169.57l7.04 0c3.78,0 5.67,1.86 5.67,5.57l0 7.04c0,3.78 -1.89,5.67 -5.67,5.67l-7.04 0c-3.71,0 -5.57,-1.89 -5.57,-5.67l0 -7.04c0,-3.71 1.86,-5.57 5.57,-5.57z"/>
  <polygon class="fil16" points="1281.77,138.48 1242.18,178.07 1242.18,170.75 1274.46,138.48 "/>
  <path class="fil17" d="M1274.73 176.88c5,0 7.5,2.47 7.5,7.41l0 10.78c0,4.94 -2.5,7.41 -7.5,7.41l-10.7 0c-4.93,0 -7.4,-2.47 -7.4,-7.41l0 -10.78c0,-4.94 2.47,-7.41 7.4,-7.41l10.7 0zm23.96 59.15c0,-4.14 2.07,-6.21 6.21,-6.21l11.43 0c4.09,0 6.13,2.07 6.13,6.21l0 11.34c0,4.15 -2.04,6.22 -6.13,6.22l-11.43 0c-4.14,0 -6.21,-2.07 -6.21,-6.22l0 -11.34z"/>
  <polygon class="fil19" points="690,142.23 690,138.48 818,138.48 818,142.23 "/>
  <path class="fil18" d="M690 142.23l128 0 0 31.72c-0.18,5.73 -3.23,8.6 -9.14,8.6l-45.72 0c-2.25,0 -4.08,-0.4 -5.48,-1.19 -2.38,-1.4 -3.6,-3.99 -3.66,-7.77 -0.12,5.97 -3.17,8.96 -9.14,8.96l-45.72 0c-5.91,0 -8.96,-2.87 -9.14,-8.6l0 -17.74 0 -0.45 0 -13.53z"/>
  <path class="fil16" d="M818 173.95l0 9.15c-0.18,5.73 -3.23,8.59 -9.14,8.59l-45.72 0c-5.97,0 -9.02,-2.96 -9.14,-8.87 -0.12,5.91 -3.17,8.87 -9.14,8.87l-14.63 0 -25.6 0 -5.49 0c-5.91,0 -8.96,-2.86 -9.14,-8.59l0 -9.15c0.18,5.73 3.23,8.6 9.14,8.6l45.72 0c5.97,0 9.02,-2.99 9.14,-8.96 0.06,3.78 1.28,6.37 3.66,7.77 1.4,0.79 3.23,1.19 5.48,1.19l45.72 0c5.91,0 8.96,-2.87 9.14,-8.6zm-96.91 37.67l-18.29 0c0.12,-3.53 1.98,-5.3 5.58,-5.3l7.04 0c3.65,0 5.54,1.77 5.67,5.3z"/>
  <path class="fil15" d="M721.09 211.62c-0.13,-3.53 -2.02,-5.3 -5.67,-5.3l-7.04 0c-3.6,0 -5.46,1.77 -5.58,5.3l-12.8 0 0 -28.52c0.18,5.73 3.23,8.59 9.14,8.59l5.49 0 0 3.57c0,4.93 2.47,7.4 7.4,7.4l10.7 0c5,0 7.5,-2.47 7.5,-7.4l0 -3.57 14.63 0c5.97,0 9.02,-2.96 9.14,-8.87 0.12,5.91 3.17,8.87 9.14,8.87l45.72 0c5.91,0 8.96,-2.86 9.14,-8.59l0 28.52 -96.91 0z"/>
  <path class="fil17" d="M730.23 191.69l0 3.57c0,4.93 -2.5,7.4 -7.5,7.4l-10.7 0c-4.93,0 -7.4,-2.47 -7.4,-7.4l0 -3.57 25.6 0z"/>
  <path class="fil18" d="M828 142.23l16.91 0 0.74 0 93.53 0c10.91,0.24 16.51,5.82 16.82,16.73l0 14.99c-0.18,5.73 -3.23,8.6 -9.14,8.6l-45.72 0c-2.25,0 -4.08,-0.4 -5.48,-1.19 -2.38,-1.4 -3.6,-3.99 -3.66,-7.77 -0.12,5.97 -3.17,8.96 -9.14,8.96l-45.72 0c-5.91,0 -8.96,-2.87 -9.14,-8.6l0 -31.72z"/>
  <path class="fil19" d="M828 142.23l0 -3.75 110.35 0 3.94 0.27 0.18 0c3.41,0.49 6.18,1.65 8.32,3.48 2.01,1.7 3.44,3.99 4.3,6.86 0.54,1.82 0.85,3.93 0.91,6.3l0 3.57c-0.31,-10.91 -5.91,-16.49 -16.82,-16.73l-93.53 0 -0.74 0 -16.91 0z"/>
  <path class="fil15" d="M868.23 191.69l14.63 0 1.83 -0.09c4.75,-0.55 7.19,-3.47 7.31,-8.78 0.12,5.91 3.17,8.87 9.14,8.87l45.72 0 3.29 -0.36c3.78,-0.92 5.73,-3.66 5.85,-8.23l0 11.79 0 1.19 -0.18 1.83c-0.43,3.11 -1.41,5.73 -2.93,7.86l-2.28 2.38c-2.93,2.32 -7.01,3.47 -12.26,3.47l-79.26 0c-0.13,-3.53 -2.02,-5.3 -5.67,-5.3l-7.04 0c-3.48,0 -5.34,1.65 -5.58,4.94l0 0.36 -12.8 0 0 -28.52c0.12,4.57 2.07,7.31 5.85,8.23l3.29 0.36 5.49 0 0 3.57c0,4.93 2.47,7.4 7.4,7.4l10.7 0c5,0 7.5,-2.47 7.5,-7.4l0 -3.57z"/>
  <path class="fil16" d="M868.23 191.69l-25.6 0 -5.49 0 -3.29 -0.37c-3.78,-0.91 -5.73,-3.65 -5.85,-8.22l0 -9.15c0.18,5.73 3.23,8.6 9.14,8.6l45.72 0c5.97,0 9.02,-2.99 9.14,-8.96 0.06,3.78 1.28,6.37 3.66,7.77 1.4,0.79 3.23,1.19 5.48,1.19l45.72 0c5.91,0 8.96,-2.87 9.14,-8.6l0 9.15c-0.12,4.57 -2.07,7.31 -5.85,8.22l-3.29 0.37 -45.72 0c-5.97,0 -9.02,-2.96 -9.14,-8.87 -0.12,5.3 -2.56,8.23 -7.31,8.78l-1.83 0.09 -14.63 0zm-27.43 19.93l0 -0.36c0.24,-3.3 2.1,-4.94 5.58,-4.94l7.04 0c3.65,0 5.54,1.77 5.67,5.3l-18.29 0z"/>
  <path class="fil17" d="M868.23 191.69l0 3.57c0,4.93 -2.5,7.4 -7.5,7.4l-10.7 0c-4.93,0 -7.4,-2.47 -7.4,-7.4l0 -3.57 25.6 0z"/>
  <path class="fil18" d="M1518 149.45c0.06,-2.99 1.13,-5.55 3.2,-7.68 2.19,-2.19 4.85,-3.29 7.95,-3.29 3.11,0 5.73,1.1 7.87,3.29 2.13,2.13 3.23,4.69 3.29,7.68l-0.64 0c-0.55,-1.46 -1.43,-2.8 -2.65,-4.02 -2.14,-2.2 -4.76,-3.3 -7.87,-3.3 -3.1,0 -5.76,1.1 -7.95,3.3 -1.16,1.22 -2.01,2.56 -2.56,4.02l-0.64 0z"/>
  <path class="fil16" d="M1518 149.45l0.64 0c0.55,-1.46 1.4,-2.8 2.56,-4.02 2.19,-2.2 4.85,-3.3 7.95,-3.3 3.11,0 5.73,1.1 7.87,3.3 1.22,1.22 2.1,2.56 2.65,4.02l0.64 0 0 3.66 0 63.54 0 49.83 -22.31 0 0 -117.03z"/>
  <path class="fil14" d="M1540.31 149.45c15.6,-9.93 33.13,-7.62 52.57,6.95 16.15,12.07 31.54,17.71 46.17,16.91l0 3.66 -1.46 0.09c-14.2,0.31 -29.11,-5.36 -44.71,-17 -19.44,-14.57 -36.97,-16.89 -52.57,-6.95l0 -3.66z"/>
  <path class="fil4" d="M1639.05 176.97l-1.46 1.83c-15.97,20.23 -32.12,27.46 -48.46,21.67 -17.19,-6.1 -33.46,-0.7 -48.82,16.18l0 -63.54c15.6,-9.94 33.13,-7.62 52.57,6.95 15.6,11.64 30.51,17.31 44.71,17l1.46 -0.09z"/>
  <path class="fil15" d="M76.23 368l7.95 -8.05 0 0.46 0 13.17c0,4.75 2.37,7.13 7.12,7.13l13.05 0c4.81,0 7.22,-2.38 7.22,-7.13l0 -13.17c0,-4.75 -2.41,-7.13 -7.22,-7.13l-13.05 0 -0.46 0 37.16 -37.21 0 71.68 0 1.19 0 15.54 -88.28 0 17.25 -17.28c0.55,2.93 2.56,4.39 6.03,4.39l11.41 0c4.08,0 6.12,-2.07 6.12,-6.22l0 -11.34c0,-3.47 -1.43,-5.48 -4.3,-6.03z"/>
  <path class="fil16" d="M76.23 368l-19.26 19.2 -17.25 17.28 -7.31 0 95.59 -95.73 0 7.32 -37.16 37.21 0.46 0 13.05 0c4.81,0 7.22,2.38 7.22,7.13l0 13.17c0,4.75 -2.41,7.13 -7.22,7.13l-13.05 0c-4.75,0 -7.12,-2.38 -7.12,-7.13l0 -13.17 0 -0.46 -7.95 8.05z"/>
  <polygon class="fil19" points="3.84,404.48 0.18,404.48 98.69,305.92 101.71,302.99 104.17,300.53 128,276.48 128,280.14 "/>
  <path class="fil17" d="M76.23 368c2.87,0.55 4.3,2.56 4.3,6.03l0 11.34c0,4.15 -2.04,6.22 -6.12,6.22l-11.41 0c-3.47,0 -5.48,-1.46 -6.03,-4.39l19.26 -19.2z"/>
  <polygon class="fil18" points="128,308.75 32.41,404.48 3.84,404.48 128,280.14 128,294.13 128,295.22 "/>
  <polygon class="fil8" points="128,294.13 128.18,294.13 128,295.22 "/>
  <path class="fil18" d="M276 287.45c0.06,-2.99 1.13,-5.54 3.2,-7.68 2.19,-2.19 4.85,-3.29 7.95,-3.29 3.11,0 5.73,1.1 7.87,3.29 2.13,2.14 3.23,4.69 3.29,7.68l-0.64 0c-0.55,-1.46 -1.43,-2.8 -2.65,-4.02 -2.14,-2.2 -4.76,-3.29 -7.87,-3.29 -3.1,0 -5.76,1.09 -7.95,3.29 -1.16,1.22 -2.01,2.56 -2.56,4.02l-0.64 0z"/>
  <path class="fil14" d="M298.31 287.45c15.36,16.89 31.63,22.28 48.82,16.18 16.82,-5.97 33.46,1.86 49.92,23.5l0 3.66 -1.46 -1.83c-15.97,-20.24 -32.12,-27.46 -48.46,-21.67 -17.19,6.1 -33.46,0.7 -48.82,-16.18l0 -3.66z"/>
  <path class="fil4" d="M397.05 330.79c-14.63,-0.79 -30.02,4.84 -46.17,16.91 -19.44,14.57 -36.97,16.89 -52.57,6.95l0 -63.54c15.36,16.88 31.63,22.28 48.82,16.18 16.34,-5.79 32.49,1.43 48.46,21.67l1.46 1.83z"/>
  <path class="fil16" d="M276 287.45l0.64 0c0.55,-1.46 1.4,-2.8 2.56,-4.02 2.19,-2.2 4.85,-3.29 7.95,-3.29 3.11,0 5.73,1.09 7.87,3.29 1.22,1.22 2.1,2.56 2.65,4.02l0.64 0 0 3.66 0 63.54 0 49.83 -22.31 0 0 -117.03z"/>
  <path class="fil19" d="M417.66 281.78l1.64 -1.64 2.11 -1.47c2.25,-1.21 5.06,-1.95 8.41,-2.19l0.27 0 0.18 0 0.28 0 0.27 0 0.28 0 0.27 0 0.28 0 92.7 0c5.37,0 9.51,1.22 12.44,3.66l1.37 1.28c2.44,2.8 3.72,6.76 3.84,11.88l0 3.57c-0.31,-10.91 -5.91,-16.49 -16.82,-16.73l-0.83 0 -92.7 0 -0.74 0c-8.41,0.18 -13.68,3.5 -15.81,9.96 -0.67,1.95 -1.04,4.21 -1.1,6.77l0 -2.74 0 -0.46 0 -0.46c0,-1.1 0.09,-2.13 0.27,-3.11l0.19 -0.82 0.09 -0.82 0.09 -0.19c0.37,-1.7 0.91,-3.23 1.65,-4.57l1.37 -1.92z"/>
  <path class="fil6" d="M417.66 281.78c0.97,-1.28 2.22,-2.31 3.75,-3.11l-2.11 1.47 -1.64 1.64z"/>
  <path class="fil18" d="M542 296.87l0 14.99c-0.18,5.67 -3.23,8.51 -9.14,8.51l-45.72 0c-2.25,0 -4.08,-0.4 -5.48,-1.19 -2.38,-1.4 -3.6,-3.97 -3.66,-7.68 -0.12,5.91 -3.17,8.87 -9.14,8.87l-45.72 0c-5.91,0 -8.96,-2.84 -9.14,-8.51l0 -14.99c0.06,-2.56 0.43,-4.82 1.1,-6.77 2.13,-6.46 7.4,-9.78 15.81,-9.96l0.74 0 92.7 0 0.83 0c10.91,0.24 16.51,5.82 16.82,16.73z"/>
  <path class="fil16" d="M542 311.86l0 9.05c-0.18,5.73 -3.23,8.6 -9.14,8.6l-45.72 0c-5.97,0 -9.02,-2.96 -9.14,-8.87 -0.12,5.91 -3.17,8.87 -9.14,8.87l-14.63 0 -23.13 0c-3.6,-2.32 -7.32,-4.57 -11.16,-6.77l-5.94 -3.29 0 -7.59c0.18,5.67 3.23,8.51 9.14,8.51l45.72 0c5.97,0 9.02,-2.96 9.14,-8.87 0.06,3.71 1.28,6.28 3.66,7.68 1.4,0.79 3.23,1.19 5.48,1.19l45.72 0c5.91,0 8.96,-2.84 9.14,-8.51zm-36.75 41.42l13.07 0c4.81,0 7.22,2.38 7.22,7.13l0 13.17c0,4.75 -2.41,7.13 -7.22,7.13l-13.07 0c-4.76,0 -7.14,-2.38 -7.14,-7.13l0 -13.17c0,-4.75 2.38,-7.13 7.14,-7.13z"/>
  <path class="fil15" d="M505.25 353.28c-4.76,0 -7.14,2.38 -7.14,7.13l0 13.17c0,4.75 2.38,7.13 7.14,7.13l13.07 0c4.81,0 7.22,-2.38 7.22,-7.13l0 -13.17c0,-4.75 -2.41,-7.13 -7.22,-7.13l-13.07 0zm36.75 -32.37l0 66.84 0 1.19 -0.18 1.83c-0.43,3.1 -1.41,5.72 -2.93,7.86l-2.28 2.38c-2.93,2.31 -7.01,3.47 -12.26,3.47l-25.32 0 -2.93 -5.76 -0.27 -0.46 -4.12 -7.31c1.83,-0.92 2.75,-2.77 2.75,-5.58l0 -11.34c0,-4.14 -2.05,-6.21 -6.13,-6.21l-11.43 0 -1.55 0.09 -5.67 -6.4c-6.95,-7.5 -14.63,-14.51 -23.04,-21.03l0.09 0c5,0 7.5,-2.47 7.5,-7.41l0 -3.56 14.63 0c5.97,0 9.02,-2.96 9.14,-8.87 0.12,5.91 3.17,8.87 9.14,8.87l45.72 0c5.91,0 8.96,-2.87 9.14,-8.6z"/>
  <path class="fil17" d="M491.71 390.95c-4.81,-8.11 -10.27,-15.79 -16.36,-23.04l1.55 -0.09 11.43 0c4.08,0 6.13,2.07 6.13,6.21l0 11.34c0,2.81 -0.92,4.66 -2.75,5.58zm-45.07 -50.47c-4.81,-3.78 -9.87,-7.38 -15.18,-10.79l-0.09 0 -0.27 -0.18 23.13 0 0 3.56c0,4.94 -2.5,7.41 -7.5,7.41l-0.09 0z"/>
  <polygon class="fil19" points="266,280.14 262.34,276.48 266,276.48 "/>
  <polygon class="fil18" points="266,280.14 266,308.75 233.73,276.48 262.34,276.48 "/>
  <path class="fil16" d="M233.73 276.48l32.27 32.27 0 7.32 -39.59 -39.59 7.32 0zm-22.5 31.09l7.04 0c3.78,0 5.67,1.86 5.67,5.57l0 7.04c0,3.78 -1.89,5.67 -5.67,5.67l-7.04 0c-3.71,0 -5.57,-1.89 -5.57,-5.67l0 -7.04c0,-3.71 1.86,-5.57 5.57,-5.57zm18.02 73.14c-4.76,0 -7.14,-2.38 -7.14,-7.13l0 -13.17c0,-4.75 2.38,-7.13 7.14,-7.13l13.07 0c4.82,0 7.22,2.38 7.22,7.13l0 13.17c0,4.75 -2.4,7.13 -7.22,7.13l-13.07 0zm-72.87 -36.57l7.04 0c3.78,0 5.67,1.86 5.67,5.57l0 7.04c0,3.78 -1.89,5.67 -5.67,5.67l-7.04 0c-3.72,0 -5.58,-1.89 -5.58,-5.67l0 -7.04c0,-3.71 1.86,-5.57 5.58,-5.57z"/>
  <path class="fil15" d="M156.38 344.14c-3.72,0 -5.58,1.86 -5.58,5.57l0 7.04c0,3.78 1.86,5.67 5.58,5.67l7.04 0c3.78,0 5.67,-1.89 5.67,-5.67l0 -7.04c0,-3.71 -1.89,-5.57 -5.67,-5.57l-7.04 0zm109.62 -28.07l0 71.68 0 1.19 0 15.54 -128 0 0 -110.35 0 -0.46 0 -17.19 88.41 0 39.59 39.59zm-54.77 -8.5c-3.71,0 -5.57,1.86 -5.57,5.57l0 7.04c0,3.78 1.86,5.67 5.57,5.67l7.04 0c3.78,0 5.67,-1.89 5.67,-5.67l0 -7.04c0,-3.71 -1.89,-5.57 -5.67,-5.57l-7.04 0zm-40.5 7.31l-10.7 0c-4.93,0 -7.4,2.47 -7.4,7.41l0 10.78c0,4.94 2.47,7.41 7.4,7.41l10.7 0c5,0 7.5,-2.47 7.5,-7.41l0 -10.78c0,-4.94 -2.5,-7.41 -7.5,-7.41zm58.52 65.83l13.07 0c4.82,0 7.22,-2.38 7.22,-7.13l0 -13.17c0,-4.75 -2.4,-7.13 -7.22,-7.13l-13.07 0c-4.76,0 -7.14,2.38 -7.14,7.13l0 13.17c0,4.75 2.38,7.13 7.14,7.13zm-16.92 -12.89l-11.43 0c-4.14,0 -6.21,2.07 -6.21,6.21l0 11.34c0,4.15 2.07,6.22 6.21,6.22l11.43 0c4.09,0 6.13,-2.07 6.13,-6.22l0 -11.34c0,-4.14 -2.04,-6.21 -6.13,-6.21z"/>
  <path class="fil17" d="M212.33 367.82c4.09,0 6.13,2.07 6.13,6.21l0 11.34c0,4.15 -2.04,6.22 -6.13,6.22l-11.43 0c-4.14,0 -6.21,-2.07 -6.21,-6.22l0 -11.34c0,-4.14 2.07,-6.21 6.21,-6.21l11.43 0zm-41.6 -52.94c5,0 7.5,2.47 7.5,7.41l0 10.78c0,4.94 -2.5,7.41 -7.5,7.41l-10.7 0c-4.93,0 -7.4,-2.47 -7.4,-7.41l0 -10.78c0,-4.94 2.47,-7.41 7.4,-7.41l10.7 0z"/>
 </g>
</svg>
