<?xml version="1.0" encoding="UTF-8"?>
<svg viewBox="0 0 128 128" width="100%" height="100%" xmlns="http://www.w3.org/2000/svg"><svg viewBox="0 0 128 128" width="100%" height="100%" xmlns="http://www.w3.org/2000/svg"><g id="arm_left_front"><polygon points="85,45 98,45 95,85 82,85" fill="#22252a"></polygon><polygon points="80,40 103,40 98,58 85,58" fill="#D4CEB8"></polygon></g><g id="leg_left_front"><polygon points="66,80 76,80 76,125 66,125" fill="#22252a"></polygon><polygon points="67,82 75,82 75,123 67,123" fill="#5B7B43"></polygon><polygon points="64,100 78,100 78,110 64,110" fill="#D4CEB8"></polygon></g><g id="body_front"><polygon points="40,40 88,40 78,85 50,85" fill="#22252a"></polygon><polygon points="42,42 86,42 80,65 48,65" fill="#5B7B43"></polygon><polygon points="35,40 93,40 74,65 54,65" fill="#D4CEB8"></polygon><polygon points="56,45 72,45 68,55 60,55" fill="#F98822"></polygon></g><g id="head_front"><polygon points="58,35 70,35 70,45 58,45" fill="#22252a"></polygon><polygon points="50,15 78,15 64,38" fill="#5B7B43"></polygon><polygon points="45,15 83,15 64,25" fill="#D4CEB8"></polygon><polygon points="56,26 72,26 68,34 60,34" fill="#22252a"></polygon><polygon points="58,28 70,28 66,32 62,32" fill="#00E575"></polygon></g><g id="leg_right_front"><polygon points="52,80 62,80 62,125 52,125" fill="#22252a"></polygon><polygon points="53,82 61,82 61,123 53,123" fill="#5B7B43"></polygon><polygon points="50,100 64,100 64,110 50,110" fill="#D4CEB8"></polygon></g><g id="arm_right_front"><polygon points="30,45 43,45 46,85 33,85" fill="#22252a"></polygon><polygon points="25,40 48,40 43,58 30,58" fill="#D4CEB8"></polygon></g></svg></svg>